<svg width="19" height="20" viewBox="0 0 19 20" fill="none" xmlns="http://www.w3.org/2000/svg">
<g clip-path="url(#clip0_1202_822)">
<path d="M17.03 11.0889C17.3196 11.3833 17.4884 11.7756 17.5033 12.1883C17.5033 13.8484 14.4089 15.2172 10.4043 15.4356" stroke="black" stroke-width="1.16496" stroke-linecap="round" stroke-linejoin="round"/>
<path d="M3.40412 8.74987C2.93265 8.74987 2.51936 8.67079 2.16426 8.51264C1.81214 8.35449 1.53314 8.13516 1.32724 7.85466C1.12433 7.57118 1.00795 7.24443 0.978109 6.87441L0.973633 6.8207H2.07474L2.07921 6.86993C2.1001 7.05196 2.16724 7.21459 2.28064 7.35782C2.39403 7.49807 2.54621 7.60848 2.73719 7.68905C2.92817 7.76663 3.15048 7.80542 3.40412 7.80542C3.6518 7.80542 3.86814 7.76216 4.05315 7.67562C4.24114 7.58908 4.38736 7.46972 4.4918 7.31754C4.59624 7.16535 4.64846 6.98929 4.64846 6.78936V6.78041C4.64846 6.44023 4.53059 6.17913 4.29485 5.9971C4.05912 5.81508 3.73386 5.72407 3.31908 5.72407H2.55367V4.86467H3.2967C3.53244 4.86467 3.73983 4.82289 3.91887 4.73934C4.09791 4.65578 4.23667 4.54239 4.33514 4.39916C4.43361 4.25294 4.48285 4.08583 4.48285 3.89784V3.88889C4.48285 3.68896 4.43958 3.51887 4.35304 3.37862C4.26949 3.23837 4.14565 3.13095 3.98153 3.05635C3.82039 2.98174 3.62494 2.94444 3.39517 2.94444C3.16838 2.94444 2.96696 2.98324 2.79091 3.06082C2.61783 3.13841 2.47907 3.24882 2.37463 3.39205C2.27019 3.5323 2.20753 3.69791 2.18664 3.88889L2.18216 3.93365H1.11239L1.11687 3.87994C1.14969 3.50693 1.26308 3.18317 1.45705 2.90864C1.65399 2.63112 1.91659 2.41627 2.24483 2.26409C2.57606 2.10892 2.9595 2.03133 3.39517 2.03133C3.83979 2.03133 4.22622 2.10444 4.55446 2.25066C4.88271 2.39389 5.13635 2.59233 5.31539 2.84597C5.49742 3.09961 5.58843 3.39652 5.58843 3.7367V3.74566C5.58843 4.01123 5.52875 4.24697 5.40939 4.45287C5.29301 4.65578 5.13187 4.82438 4.92598 4.95866C4.72306 5.09294 4.4918 5.18694 4.23219 5.24065V5.26303C4.70963 5.30779 5.09308 5.46595 5.38253 5.73749C5.67198 6.00606 5.81671 6.36414 5.81671 6.81174V6.8207C5.81671 7.19668 5.71525 7.53089 5.51234 7.82333C5.30942 8.11278 5.02594 8.33956 4.66189 8.50369C4.30082 8.66781 3.88157 8.74987 3.40412 8.74987Z" fill="black"/>
<path d="M9.49601 8.7812C9.15285 8.7812 8.8261 8.71854 8.51576 8.59321C8.20542 8.46489 7.9294 8.26795 7.68769 8.00237C7.44897 7.73381 7.26098 7.39214 7.12371 6.97736C6.98645 6.55959 6.91781 6.05828 6.91781 5.47341V5.46445C6.91781 4.73934 7.02225 4.11866 7.23114 3.60242C7.44002 3.0832 7.73842 2.68633 8.12634 2.4118C8.51725 2.13727 8.98276 2 9.52287 2C9.91676 2 10.2734 2.07311 10.5926 2.21933C10.9119 2.36256 11.176 2.561 11.3849 2.81464C11.5938 3.06828 11.7325 3.36072 11.8012 3.69194L11.8101 3.74118H10.6777L10.6598 3.69642C10.6031 3.54423 10.521 3.41294 10.4136 3.30253C10.3092 3.18913 10.1808 3.1026 10.0287 3.04292C9.87946 2.98025 9.71086 2.94892 9.52287 2.94892C9.17971 2.94892 8.89921 3.05038 8.68137 3.25329C8.46652 3.45322 8.30539 3.72178 8.19796 4.05898C8.09352 4.39617 8.03235 4.77216 8.01444 5.18694C8.01146 5.22872 8.00997 5.27199 8.00997 5.31675C8.00997 5.35852 8.00997 5.40179 8.00997 5.44655L8.21139 6.52528C8.21139 6.76997 8.26809 6.99228 8.38148 7.19221C8.49487 7.39214 8.64855 7.55029 8.84251 7.66667C9.03647 7.78304 9.25132 7.84123 9.48706 7.84123C9.72578 7.84123 9.94213 7.78454 10.1361 7.67114C10.33 7.55477 10.4837 7.3996 10.5971 7.20563C10.7105 7.00869 10.7672 6.79086 10.7672 6.55213V6.54318C10.7672 6.29252 10.712 6.0717 10.6016 5.88073C10.4942 5.68676 10.345 5.53458 10.154 5.42417C9.96301 5.31376 9.74518 5.25856 9.50049 5.25856C9.25878 5.25856 9.03946 5.31227 8.84251 5.41969C8.64855 5.52712 8.49487 5.67632 8.38148 5.8673C8.26809 6.05828 8.21139 6.27462 8.21139 6.51632V6.52528H7.94283V5.33465H8.09949C8.18006 5.16456 8.29494 5.00641 8.44414 4.86019C8.59633 4.71397 8.78432 4.5961 9.00812 4.50658C9.23193 4.41706 9.49005 4.3723 9.78248 4.3723C10.1973 4.3723 10.5628 4.46481 10.8791 4.64982C11.1984 4.83483 11.4476 5.08847 11.6266 5.41074C11.8056 5.73003 11.8952 6.09408 11.8952 6.5029V6.51185C11.8952 6.9505 11.7922 7.33992 11.5863 7.68009C11.3804 8.02027 11.0969 8.28884 10.7359 8.48578C10.3778 8.68273 9.96451 8.7812 9.49601 8.7812Z" fill="black"/>
<path d="M15.5118 8.7812C14.9986 8.7812 14.5584 8.64394 14.1914 8.3694C13.8273 8.09487 13.5468 7.70397 13.3499 7.19668C13.1529 6.6894 13.0545 6.08812 13.0545 5.39284V5.38389C13.0545 4.68861 13.1529 4.08882 13.3499 3.58452C13.5468 3.07723 13.8273 2.68633 14.1914 2.4118C14.5584 2.13727 14.9986 2 15.5118 2C16.0251 2 16.4652 2.13727 16.8322 2.4118C17.1993 2.68633 17.4813 3.07723 17.6782 3.58452C17.8752 4.08882 17.9736 4.68861 17.9736 5.38389V5.39284C17.9736 6.08812 17.8752 6.6894 17.6782 7.19668C17.4813 7.70397 17.1993 8.09487 16.8322 8.3694C16.4652 8.64394 16.0251 8.7812 15.5118 8.7812ZM15.5118 7.84571C15.7863 7.84571 16.0206 7.74724 16.2146 7.55029C16.4085 7.35334 16.5562 7.07285 16.6577 6.70879C16.7621 6.34176 16.8143 5.90311 16.8143 5.39284V5.38389C16.8143 4.87362 16.7621 4.43646 16.6577 4.07241C16.5562 3.70537 16.4085 3.42487 16.2146 3.23091C16.0206 3.03397 15.7863 2.93549 15.5118 2.93549C15.2373 2.93549 15.003 3.03397 14.8091 3.23091C14.6181 3.42487 14.4704 3.70537 14.3659 4.07241C14.2645 4.43646 14.2138 4.87362 14.2138 5.38389V5.39284C14.2138 5.90311 14.2645 6.34176 14.3659 6.70879C14.4704 7.07285 14.6181 7.35334 14.8091 7.55029C15.003 7.74724 15.2373 7.84571 15.5118 7.84571Z" fill="black"/>
<path d="M6.03631 13.2803L7.12846 15.4646L5.49023 17.1028" stroke="black" stroke-width="1.16496" stroke-linecap="round" stroke-linejoin="round"/>
<path d="M1.60901 11.0889C1.32234 11.3853 1.15401 11.7763 1.13574 12.1883C1.13574 13.6445 1.3833 15.4502 7.12074 15.4575" stroke="black" stroke-width="1.16496" stroke-linecap="round" stroke-linejoin="round"/>
</g>
<defs>
<clipPath id="clip0_1202_822">
<rect width="18.6394" height="18.6394" fill="white" transform="translate(0 0.407471)"/>
</clipPath>
</defs>
</svg>
