<svg width="24" height="24" viewBox="0 0 24 24" fill="none" xmlns="http://www.w3.org/2000/svg">
<g clip-path="url(#clip0_1143_810)">
<path d="M12.7954 1.65283H3.24442C2.36528 1.65283 1.65259 2.36552 1.65259 3.24467V20.7549C1.65259 21.634 2.36528 22.3467 3.24442 22.3467H14.3873C15.2664 22.3467 15.9791 21.634 15.9791 20.7549V15.1834" stroke="#292D34" stroke-width="1.71429" stroke-linecap="round" stroke-linejoin="round"/>
<path d="M8.02026 18.3672H9.6121" stroke="#292D34" stroke-width="1.71429" stroke-linecap="round" stroke-linejoin="round"/>
<path d="M16.2854 3.80886L17.0974 1.83682C17.1433 1.72549 17.2519 1.65283 17.3722 1.65283C17.4925 1.65283 17.6011 1.72549 17.6469 1.83682L18.4589 3.80886C18.7822 4.59391 19.4056 5.2173 20.1907 5.54056L22.1627 6.35259C22.2741 6.39842 22.3467 6.50692 22.3467 6.62732C22.3467 6.74773 22.2741 6.85623 22.1627 6.90206L20.1907 7.71408C19.4056 8.03734 18.7822 8.66073 18.4589 9.44578L17.6469 11.4178C17.6011 11.5291 17.4925 11.6018 17.3722 11.6018C17.2519 11.6018 17.1433 11.5291 17.0974 11.4178L16.2854 9.44578C15.9622 8.66073 15.3388 8.03734 14.5537 7.71408L12.5817 6.90206C12.4704 6.85623 12.3977 6.74773 12.3977 6.62732C12.3977 6.50692 12.4704 6.39842 12.5817 6.35259L14.5537 5.54056C15.3388 5.2173 15.9622 4.59391 16.2854 3.80886Z" stroke="#292D34" stroke-width="1.71429" stroke-linecap="round" stroke-linejoin="round"/>
</g>
<defs>
<clipPath id="clip0_1143_810">
<rect width="24" height="24" fill="white"/>
</clipPath>
</defs>
</svg>
