<svg width="20" height="24" viewBox="0 0 20 24" fill="none" xmlns="http://www.w3.org/2000/svg">
<path d="M16.2404 22.5006C14.9879 23.7147 13.6204 23.523 12.3041 22.9479C10.911 22.36 9.63299 22.3345 8.16325 22.9479C6.32289 23.7403 5.35159 23.5102 4.25248 22.5006C-1.9843 16.0721 -1.06412 6.28241 6.01616 5.92456C7.7415 6.01403 8.94285 6.8703 9.95249 6.94699C11.4606 6.64026 12.9047 5.75842 14.5151 5.87344C16.4449 6.02681 17.9018 6.79362 18.8604 8.17389C14.8729 10.5638 15.8186 15.8165 19.4738 17.2862C18.7453 19.2033 17.7996 21.1075 16.2276 22.5134L16.2404 22.5006V22.5006ZM9.82469 5.84788C9.63299 2.99788 11.9462 0.646305 14.6045 0.41626C14.9751 3.71357 11.6139 6.16739 9.82469 5.84788Z" fill="white"/>
</svg>
