<svg width="222" height="78" viewBox="0 0 222 78" fill="none" xmlns="http://www.w3.org/2000/svg">
<g clip-path="url(#clip0_145_3305)">
<path d="M203.67 0.74488H17.8357C17.1583 0.74488 16.489 0.74488 15.8134 0.748739C15.2479 0.752599 14.6868 0.763811 14.1159 0.773248C12.8755 0.788497 11.638 0.902499 10.4142 1.11426C9.19206 1.33064 8.00824 1.73857 6.90274 2.32425C5.7986 2.91489 4.78971 3.68237 3.91268 4.59883C3.03105 5.51273 2.29613 6.56906 1.73621 7.72722C1.17473 8.88307 0.785406 10.1217 0.581671 11.4003C0.375999 12.6772 0.265325 13.9689 0.250642 15.2637C0.2335 15.8554 0.231689 16.449 0.222656 17.0408V61.6468C0.231689 62.246 0.2335 62.8265 0.250642 63.4259C0.265329 64.7206 0.376003 66.0123 0.581671 67.2892C0.784843 68.5685 1.17419 69.8078 1.73621 70.9641C2.29588 72.1185 3.03089 73.1706 3.91268 74.0794C4.78639 74.9999 5.79593 75.7679 6.90274 76.354C8.00823 76.9413 9.19192 77.3516 10.4142 77.5714C11.6382 77.7814 12.8756 77.8955 14.1159 77.9125C14.6868 77.9257 15.2479 77.9332 15.8134 77.9332C16.489 77.9371 17.1583 77.937 17.8357 77.937H203.67C204.334 77.937 205.008 77.9371 205.672 77.9332C206.235 77.9332 206.812 77.9257 207.375 77.9125C208.613 77.8964 209.848 77.7823 211.07 77.5714C212.296 77.3501 213.484 76.9398 214.595 76.354C215.701 75.7676 216.709 74.9996 217.582 74.0794C218.462 73.167 219.198 72.1157 219.765 70.9641C220.323 69.807 220.708 68.5677 220.908 67.2892C221.114 66.0121 221.229 64.7208 221.251 63.4259C221.259 62.8265 221.259 62.246 221.259 61.6468C221.273 60.9457 221.273 60.2485 221.273 59.536V19.1477C221.273 18.441 221.273 17.74 221.259 17.0408C221.259 16.449 221.259 15.8554 221.251 15.2636C221.229 13.9687 221.114 12.6773 220.908 11.4002C220.708 10.1223 220.322 8.88384 219.765 7.72714C218.625 5.40574 216.816 3.51613 214.595 2.32408C213.484 1.73982 212.296 1.332 211.07 1.11409C209.849 0.901392 208.613 0.78735 207.375 0.772978C206.812 0.76356 206.235 0.752252 205.672 0.748489C205.008 0.744629 204.334 0.744629 203.67 0.744629V0.74488Z" fill="#A6A6A6"/>
<path d="M15.823 76.2481C15.2602 76.2481 14.711 76.2406 14.1526 76.2275C12.9958 76.2117 11.8417 76.1065 10.6998 75.9127C9.63502 75.7211 8.60354 75.3648 7.63937 74.8554C6.68405 74.3502 5.81272 73.6878 5.05875 72.8935C4.29388 72.1086 3.65709 71.1983 3.17361 70.1986C2.68481 69.1923 2.34652 68.1138 2.17055 67.0005C1.98051 65.8042 1.87769 64.5946 1.86298 63.3821C1.85127 62.9751 1.83594 61.62 1.83594 61.62V17.0404C1.83594 17.0404 1.85227 15.7062 1.86307 15.3142C1.87716 14.1036 1.97938 12.8958 2.16885 11.7014C2.34515 10.5851 2.68369 9.50342 3.17276 8.49391C3.65446 7.49487 4.28772 6.58384 5.04799 5.79614C5.8074 5.00094 6.68152 4.33513 7.63847 3.82297C8.60042 3.31521 9.62995 2.96136 10.6926 2.77327C11.8382 2.57752 12.9963 2.47169 14.1571 2.45667L15.8239 2.43311H205.664L207.351 2.45761C208.501 2.47189 209.648 2.57678 210.784 2.77138C211.857 2.96182 212.897 3.31814 213.87 3.82862C215.787 4.86077 217.347 6.49373 218.331 8.49862C218.813 9.50116 219.146 10.574 219.32 11.6807C219.512 12.8849 219.619 14.1021 219.641 15.3227C219.646 15.8692 219.646 16.4562 219.646 17.0404C219.661 17.7641 219.661 18.4529 219.661 19.1474V59.5356C219.661 60.2367 219.661 60.9208 219.646 61.6106C219.646 62.2381 219.646 62.813 219.639 63.4047C219.618 64.6034 219.512 65.7989 219.323 66.9816C219.151 68.1029 218.815 69.1899 218.326 70.2044C217.839 71.1932 217.206 72.0957 216.45 72.8785C215.695 73.677 214.822 74.3433 213.865 74.8517C212.895 75.365 211.856 75.7227 210.784 75.9127C209.642 76.1076 208.488 76.2128 207.331 76.2275C206.79 76.2406 206.223 76.2481 205.673 76.2481L203.671 76.252L15.823 76.2481Z" fill="black"/>
<path d="M45.979 39.9216C45.9988 38.3109 46.4084 36.7316 47.1695 35.3306C47.9306 33.9297 49.0186 32.7526 50.3321 31.909C49.4977 30.6639 48.3968 29.6393 47.117 28.9165C45.8371 28.1937 44.4136 27.7926 42.9594 27.7451C39.8575 27.4049 36.8502 29.6842 35.2695 29.6842C33.6582 29.6842 31.2244 27.7788 28.6037 27.8352C26.9085 27.8924 25.2564 28.4073 23.8084 29.3299C22.3604 30.2525 21.1658 31.5511 20.341 33.0994C16.7684 39.5612 19.4333 49.0579 22.8555 54.2811C24.5677 56.8388 26.5688 59.6957 29.1872 59.5944C31.7495 59.4834 32.7064 57.8876 35.7993 57.8876C38.8635 57.8876 39.7613 59.5944 42.4328 59.53C45.1822 59.4834 46.9145 56.961 48.5666 54.3791C49.7969 52.5567 50.7435 50.5425 51.3716 48.4112C49.7742 47.7054 48.4111 46.524 47.4521 45.0143C46.4932 43.5046 45.9808 41.7335 45.979 39.9216Z" fill="white"/>
<path d="M40.9308 24.3095C42.4299 22.4294 43.1685 20.013 42.9896 17.5732C40.6993 17.8245 38.5837 18.9681 37.0644 20.776C36.3215 21.6592 35.7526 22.6867 35.3901 23.7997C35.0276 24.9128 34.8786 26.0896 34.9517 27.2628C36.0972 27.2751 37.2305 27.0157 38.2662 26.5042C39.3019 25.9926 40.213 25.2422 40.9308 24.3095Z" fill="white"/>
<path d="M78.3714 53.1184H69.6276L67.5278 59.5957H63.8242L72.1062 35.6313H75.9541L84.236 59.5957H80.4694L78.3714 53.1184ZM70.5331 50.1294H77.4641L74.0474 39.6173H73.9517L70.5331 50.1294Z" fill="white"/>
<path d="M102.121 50.8604C102.121 56.2899 99.3395 59.7782 95.1417 59.7782C94.0783 59.8363 93.0208 59.5804 92.0901 59.0398C91.1595 58.4992 90.3934 57.6958 89.8796 56.7214H89.8001V65.3754H86.3672V42.1235H89.6901V45.0295H89.7533C90.2907 44.0599 91.0698 43.2606 92.0075 42.7167C92.9452 42.1728 94.0066 41.9046 95.0786 41.9407C99.3232 41.9407 102.121 45.446 102.121 50.8604ZM98.5927 50.8604C98.5927 47.3231 96.8428 44.9975 94.173 44.9975C91.55 44.9975 89.7857 47.3721 89.7857 50.8604C89.7857 54.3808 91.55 56.7384 94.173 56.7384C96.8429 56.7384 98.5927 54.4298 98.5927 50.8604Z" fill="white"/>
<path d="M120.527 50.8604C120.527 56.2899 117.746 59.7782 113.548 59.7782C112.485 59.8363 111.427 59.5804 110.496 59.0398C109.566 58.4992 108.8 57.6957 108.286 56.7214H108.206V65.3754H104.773V42.1235H108.096V45.0295H108.159C108.697 44.0599 109.476 43.2606 110.414 42.7167C111.351 42.1728 112.413 41.9046 113.485 41.9407C117.73 41.9407 120.527 45.446 120.527 50.8604ZM116.999 50.8604C116.999 47.3231 115.249 44.9975 112.579 44.9975C109.956 44.9975 108.192 47.3721 108.192 50.8604C108.192 54.3808 109.956 56.7384 112.579 56.7384C115.249 56.7384 116.999 54.4298 116.999 50.8604H116.999Z" fill="white"/>
<path d="M132.694 52.9188C132.948 55.2952 135.158 56.8556 138.178 56.8556C141.071 56.8556 143.153 55.2951 143.153 53.1524C143.153 51.2923 141.898 50.1785 138.925 49.4153L135.952 48.6671C131.74 47.6042 129.784 45.5462 129.784 42.2067C129.784 38.072 133.233 35.2319 138.131 35.2319C142.978 35.2319 146.301 38.072 146.413 42.2067H142.948C142.74 39.8152 140.848 38.3716 138.082 38.3716C135.317 38.3716 133.424 39.8322 133.424 41.958C133.424 43.6522 134.633 44.6492 137.59 45.4123L140.117 46.0606C144.824 47.2234 146.779 49.1985 146.779 52.7038C146.779 57.1872 143.361 59.9952 137.923 59.9952C132.836 59.9952 129.402 57.2531 129.18 52.9186L132.694 52.9188Z" fill="white"/>
<path d="M154.189 37.9893V42.124H157.37V44.9641H154.189V54.5961C154.189 56.0925 154.826 56.7898 156.224 56.7898C156.602 56.7829 156.979 56.7552 157.354 56.7068V59.5299C156.725 59.6526 156.086 59.7081 155.447 59.6957C152.061 59.6957 150.74 58.3671 150.74 54.9786V44.9641H148.309V42.124H150.74V37.9893H154.189Z" fill="white"/>
<path d="M159.215 50.8614C159.215 45.3641 162.314 41.9097 167.147 41.9097C171.996 41.9097 175.081 45.364 175.081 50.8614C175.081 56.3738 172.012 59.8131 167.147 59.8131C162.283 59.8131 159.215 56.3738 159.215 50.8614ZM171.583 50.8614C171.583 47.0904 169.929 44.8647 167.147 44.8647C164.365 44.8647 162.713 47.1073 162.713 50.8614C162.713 54.6475 164.365 56.8562 167.147 56.8562C169.929 56.8562 171.583 54.6475 171.583 50.8614H171.583Z" fill="white"/>
<path d="M177.91 42.1234H181.184V45.0972H181.264C181.485 44.1684 182.006 43.3476 182.739 42.7727C183.471 42.1979 184.371 41.904 185.287 41.9405C185.682 41.9391 186.077 41.984 186.463 42.0744V45.4289C185.963 45.2695 185.442 45.1963 184.92 45.2122C184.422 45.191 183.924 45.2829 183.463 45.4814C183.001 45.68 182.586 45.9805 182.247 46.3624C181.907 46.7443 181.65 47.1985 181.494 47.6938C181.338 48.1892 181.287 48.7139 181.343 49.232V59.5952H177.91L177.91 42.1234Z" fill="white"/>
<path d="M202.29 54.4647C201.828 57.6364 198.871 59.8131 195.088 59.8131C190.223 59.8131 187.203 56.4077 187.203 50.9443C187.203 45.464 190.239 41.9097 194.944 41.9097C199.571 41.9097 202.481 45.2303 202.481 50.5278V51.7566H190.669V51.9733C190.614 52.6163 190.691 53.2641 190.895 53.8736C191.098 54.4831 191.423 55.0404 191.849 55.5085C192.275 55.9765 192.791 56.3447 193.363 56.5884C193.935 56.8321 194.55 56.9459 195.168 56.9222C195.979 57.0016 196.793 56.8053 197.489 56.3625C198.185 55.9198 198.725 55.2541 199.03 54.4647L202.29 54.4647ZM190.685 49.2501H199.046C199.077 48.6719 198.993 48.0933 198.8 47.5507C198.606 47.008 198.308 46.5129 197.922 46.0965C197.537 45.6801 197.074 45.3514 196.561 45.131C196.049 44.9106 195.498 44.8032 194.944 44.8157C194.385 44.8122 193.831 44.9244 193.313 45.1458C192.796 45.3673 192.326 45.6935 191.93 46.1058C191.534 46.5181 191.22 47.0082 191.006 47.5479C190.793 48.0875 190.683 48.6661 190.685 49.2501V49.2501Z" fill="white"/>
<path d="M70.0946 17.5941C70.8143 17.5402 71.5365 17.6538 72.2092 17.9267C72.8818 18.1996 73.488 18.6251 73.9842 19.1725C74.4803 19.7198 74.854 20.3753 75.0782 21.0918C75.3025 21.8083 75.3718 22.5679 75.281 23.3157C75.281 26.9944 73.3778 29.109 70.0946 29.109H66.1133V17.5941H70.0946ZM67.8252 27.4805H69.9034C70.4177 27.5126 70.9323 27.4245 71.4099 27.2226C71.8875 27.0208 72.316 26.7102 72.6642 26.3135C73.0124 25.9168 73.2715 25.4439 73.4228 24.9294C73.574 24.4149 73.6135 23.8716 73.5384 23.3391C73.608 22.8088 73.5645 22.2689 73.411 21.7581C73.2574 21.2474 72.9977 20.7784 72.6503 20.3849C72.3029 19.9913 71.8764 19.6829 71.4015 19.4818C70.9266 19.2806 70.415 19.1917 69.9034 19.2214H67.8252V27.4805Z" fill="white"/>
<path d="M77.2178 24.7602C77.1655 24.1892 77.228 23.613 77.4014 23.0686C77.5747 22.5243 77.855 22.0238 78.2244 21.5993C78.5937 21.1748 79.0439 20.8356 79.5461 20.6035C80.0483 20.3714 80.5914 20.2515 81.1405 20.2515C81.6896 20.2515 82.2327 20.3714 82.7349 20.6035C83.2371 20.8356 83.6873 21.1748 84.0566 21.5993C84.4259 22.0238 84.7063 22.5243 84.8796 23.0686C85.053 23.613 85.1155 24.1892 85.0632 24.7602C85.1165 25.3319 85.0547 25.9088 84.8818 26.4541C84.7089 26.9993 84.4288 27.5007 84.0593 27.926C83.6899 28.3514 83.2393 28.6913 82.7367 28.9239C82.234 29.1565 81.6903 29.2767 81.1405 29.2767C80.5907 29.2767 80.047 29.1565 79.5443 28.9239C79.0416 28.6913 78.5911 28.3514 78.2217 27.926C77.8522 27.5007 77.5721 26.9993 77.3992 26.4541C77.2263 25.9088 77.1645 25.3319 77.2178 24.7602ZM83.3747 24.7602C83.3747 22.8766 82.5647 21.7751 81.1432 21.7751C79.7163 21.7751 78.9136 22.8766 78.9136 24.7602C78.9136 26.659 79.7163 27.752 81.1432 27.752C82.5647 27.752 83.3747 26.6514 83.3747 24.7602H83.3747Z" fill="white"/>
<path d="M95.4935 29.1087H93.7906L92.0714 22.7087H91.9415L90.2295 29.1087H88.5428L86.25 20.4189H87.9151L89.4051 27.0498H89.5278L91.238 20.4189H92.8128L94.523 27.0498H94.6529L96.1357 20.4189H97.7773L95.4935 29.1087Z" fill="white"/>
<path d="M99.7031 20.4195H101.283V21.7999H101.406C101.614 21.3041 101.965 20.8885 102.41 20.611C102.855 20.3334 103.372 20.2079 103.888 20.2517C104.293 20.2199 104.699 20.2837 105.077 20.4383C105.455 20.5928 105.795 20.8342 106.072 21.1446C106.348 21.455 106.554 21.8265 106.675 22.2314C106.795 22.6363 106.827 23.0643 106.767 23.4838V29.1091H105.126V23.9144C105.126 22.5179 104.545 21.8235 103.331 21.8235C103.056 21.8101 102.782 21.859 102.527 21.9667C102.272 22.0744 102.042 22.2385 101.853 22.4477C101.665 22.6568 101.522 22.9061 101.434 23.1785C101.346 23.4508 101.316 23.7398 101.345 24.0256V29.1092H99.7031L99.7031 20.4195Z" fill="white"/>
<path d="M109.383 17.0269H111.024V29.1089H109.383V17.0269Z" fill="white"/>
<path d="M113.304 24.7604C113.251 24.1893 113.314 23.6131 113.487 23.0687C113.661 22.5243 113.941 22.0239 114.311 21.5993C114.68 21.1748 115.13 20.8356 115.632 20.6035C116.135 20.3714 116.678 20.2515 117.227 20.2515C117.776 20.2515 118.319 20.3714 118.821 20.6035C119.324 20.8356 119.774 21.1748 120.143 21.5993C120.513 22.0239 120.793 22.5243 120.966 23.0687C121.14 23.6131 121.202 24.1893 121.15 24.7604C121.203 25.3321 121.141 25.909 120.968 26.4543C120.795 26.9995 120.515 27.5009 120.146 27.9262C119.776 28.3515 119.326 28.6914 118.823 28.924C118.32 29.1566 117.777 29.2768 117.227 29.2768C116.677 29.2768 116.133 29.1566 115.631 28.924C115.128 28.6914 114.677 28.3515 114.308 27.9262C113.938 27.5009 113.658 26.9995 113.485 26.4543C113.312 25.909 113.25 25.3321 113.304 24.7604ZM119.461 24.7604C119.461 22.8768 118.651 21.7752 117.229 21.7752C115.802 21.7752 114.999 22.8768 114.999 24.7604C114.999 26.6591 115.802 27.7522 117.229 27.7522C118.651 27.7521 119.461 26.6515 119.461 24.7604H119.461Z" fill="white"/>
<path d="M122.883 26.6515C122.883 25.0873 123.998 24.1855 125.977 24.0573L128.23 23.9217V23.1716C128.23 22.2538 127.649 21.7356 126.527 21.7356C125.61 21.7356 124.975 22.087 124.793 22.7014H123.204C123.372 21.2088 124.716 20.2515 126.603 20.2515C128.688 20.2515 129.864 21.336 129.864 23.1716V29.109H128.284V27.8878H128.154C127.89 28.3258 127.52 28.6829 127.081 28.9226C126.642 29.1623 126.15 29.276 125.656 29.2521C125.306 29.2901 124.953 29.2512 124.619 29.1379C124.286 29.0246 123.978 28.8395 123.717 28.5945C123.456 28.3494 123.246 28.0499 123.103 27.7153C122.959 27.3806 122.884 27.0182 122.883 26.6515ZM128.23 25.9089V25.1824L126.198 25.3181C125.053 25.3982 124.533 25.8053 124.533 26.5714C124.533 27.3535 125.183 27.8086 126.076 27.8086C126.338 27.8362 126.602 27.8086 126.853 27.7274C127.104 27.6462 127.337 27.513 127.538 27.3358C127.739 27.1585 127.904 26.9409 128.023 26.6958C128.142 26.4506 128.212 26.1831 128.23 25.9089Z" fill="white"/>
<path d="M132.02 24.7602C132.02 22.0144 133.371 20.2749 135.472 20.2749C135.992 20.2499 136.508 20.38 136.96 20.65C137.411 20.9199 137.78 21.3186 138.023 21.7995H138.146V17.0269H139.787V29.1089H138.214V27.7359H138.084C137.823 28.2135 137.441 28.6073 136.981 28.8745C136.52 29.1418 135.999 29.2723 135.472 29.2521C133.356 29.2522 132.02 27.5127 132.02 24.7602ZM133.715 24.7602C133.715 26.6034 134.547 27.7124 135.938 27.7124C137.321 27.7124 138.177 26.5874 138.177 24.7678C138.177 22.9567 137.312 21.8156 135.938 21.8156C134.556 21.8156 133.715 22.9322 133.715 24.7602H133.715Z" fill="white"/>
<path d="M146.581 24.7602C146.529 24.1892 146.591 23.613 146.765 23.0686C146.938 22.5243 147.218 22.0238 147.588 21.5993C147.957 21.1748 148.407 20.8356 148.909 20.6035C149.412 20.3714 149.955 20.2515 150.504 20.2515C151.053 20.2515 151.596 20.3714 152.098 20.6035C152.6 20.8356 153.051 21.1748 153.42 21.5993C153.789 22.0238 154.07 22.5243 154.243 23.0686C154.416 23.613 154.479 24.1892 154.426 24.7602C154.48 25.3319 154.418 25.9088 154.245 26.4541C154.072 26.9993 153.792 27.5007 153.423 27.926C153.053 28.3514 152.603 28.6913 152.1 28.9239C151.597 29.1565 151.054 29.2767 150.504 29.2767C149.954 29.2767 149.41 29.1565 148.908 28.9239C148.405 28.6913 147.954 28.3514 147.585 27.926C147.215 27.5007 146.935 26.9993 146.762 26.4541C146.59 25.9088 146.528 25.3319 146.581 24.7602ZM152.738 24.7602C152.738 22.8766 151.928 21.7751 150.506 21.7751C149.08 21.7751 148.277 22.8766 148.277 24.7602C148.277 26.659 149.08 27.752 150.506 27.752C151.928 27.752 152.738 26.6514 152.738 24.7602Z" fill="white"/>
<path d="M156.629 20.4195H158.209V21.7999H158.332C158.54 21.3041 158.891 20.8885 159.336 20.611C159.781 20.3334 160.298 20.2079 160.814 20.2517C161.219 20.2199 161.625 20.2837 162.003 20.4383C162.381 20.5928 162.721 20.8342 162.997 21.1446C163.274 21.455 163.48 21.8265 163.601 22.2314C163.721 22.6363 163.753 23.0643 163.693 23.4838V29.1091H162.052V23.9144C162.052 22.5179 161.471 21.8235 160.257 21.8235C159.982 21.8101 159.708 21.859 159.453 21.9667C159.198 22.0744 158.968 22.2385 158.779 22.4477C158.591 22.6568 158.447 22.9061 158.36 23.1785C158.272 23.4508 158.241 23.7398 158.271 24.0256V29.1092H156.629V20.4195Z" fill="white"/>
<path d="M172.964 18.2559V20.4589H174.766V21.9035H172.964V26.3718C172.964 27.282 173.323 27.6806 174.14 27.6806C174.349 27.6799 174.558 27.6667 174.766 27.641V29.0695C174.471 29.1246 174.173 29.1539 173.873 29.1572C172.048 29.1572 171.321 28.4863 171.321 26.8109V21.9034H170V20.4588H171.321V18.2559H172.964Z" fill="white"/>
<path d="M177.012 17.0269H178.639V21.8156H178.769C178.987 21.3151 179.348 20.8972 179.801 20.6186C180.255 20.34 180.78 20.2144 181.305 20.2589C181.708 20.236 182.11 20.3062 182.484 20.4646C182.858 20.6229 183.193 20.8654 183.467 21.1748C183.74 21.4843 183.945 21.853 184.067 22.2546C184.188 22.6563 184.223 23.081 184.17 23.4985V29.1089H182.527V23.9216C182.527 22.5336 181.908 21.8306 180.748 21.8306C180.466 21.8064 180.182 21.847 179.916 21.9494C179.651 22.0517 179.41 22.2135 179.21 22.4233C179.011 22.6332 178.858 22.886 178.761 23.1642C178.665 23.4423 178.628 23.7391 178.653 24.0337V29.1088H177.012L177.012 17.0269Z" fill="white"/>
<path d="M193.74 26.7628C193.517 27.557 193.034 28.244 192.375 28.7036C191.716 29.1631 190.923 29.3661 190.136 29.2768C189.588 29.2919 189.043 29.1823 188.54 28.9555C188.036 28.7287 187.586 28.3901 187.221 27.9634C186.855 27.5366 186.583 27.0319 186.423 26.4842C186.262 25.9364 186.218 25.3589 186.293 24.7916C186.22 24.2225 186.265 23.6437 186.425 23.0943C186.585 22.5449 186.856 22.0379 187.219 21.6074C187.583 21.1769 188.031 20.833 188.533 20.5991C189.035 20.3652 189.579 20.2467 190.128 20.2516C192.443 20.2516 193.839 21.9035 193.839 24.6323V25.2307H187.966V25.3268C187.94 25.6457 187.978 25.9667 188.078 26.2692C188.178 26.5717 188.338 26.849 188.546 27.0834C188.755 27.3178 189.008 27.504 189.289 27.6302C189.571 27.7564 189.874 27.8198 190.181 27.8162C190.573 27.8655 190.971 27.7916 191.324 27.604C191.676 27.4164 191.967 27.1236 192.16 26.7628L193.74 26.7628ZM187.966 23.9623H192.167C192.188 23.6707 192.15 23.3777 192.056 23.1023C191.961 22.8269 191.813 22.5751 191.62 22.3631C191.428 22.1511 191.194 21.9836 190.936 21.8713C190.677 21.759 190.399 21.7045 190.119 21.7112C189.836 21.7075 189.554 21.7632 189.291 21.875C189.028 21.9868 188.789 22.1525 188.588 22.3623C188.387 22.5721 188.229 22.8218 188.122 23.0966C188.015 23.3714 187.962 23.6657 187.966 23.9623H187.966Z" fill="white"/>
</g>
<defs>
<clipPath id="clip0_145_3305">
<rect width="221.05" height="77.1922" fill="white" transform="translate(0.222656 0.744629)"/>
</clipPath>
</defs>
</svg>
