<svg width="207" height="73" viewBox="0 0 207 73" fill="none" xmlns="http://www.w3.org/2000/svg">
<path d="M14.5784 70.5565C14.0525 70.5565 13.5392 70.5495 13.0174 70.5372C11.9364 70.5225 10.858 70.4242 9.79088 70.2431C8.79587 70.0641 7.83198 69.7311 6.93099 69.255C6.03826 68.783 5.22402 68.164 4.51946 67.4217C3.8047 66.6883 3.20963 65.8376 2.75784 64.9034C2.30106 63.9631 1.98494 62.9552 1.8205 61.9148C1.64291 60.797 1.54683 59.6666 1.53308 58.5335C1.52214 58.1532 1.50781 56.8869 1.50781 56.8869V15.2283C1.50781 15.2283 1.52307 13.9815 1.53317 13.6152C1.54633 12.4839 1.64186 11.3553 1.81891 10.2392C1.98366 9.19596 2.30002 8.18517 2.75704 7.2418C3.20718 6.30823 3.79894 5.45689 4.5094 4.7208C5.21905 3.97771 6.03589 3.35552 6.93014 2.87692C7.82906 2.40243 8.79113 2.07176 9.78413 1.896C10.8547 1.71308 11.9369 1.61419 13.0217 1.60014L14.5793 1.57812H191.98L193.556 1.60103C194.631 1.61437 195.704 1.71238 196.764 1.89424C197.768 2.0722 198.74 2.40517 199.649 2.8822C201.44 3.84672 202.898 5.37268 203.818 7.2462C204.267 8.18306 204.579 9.1856 204.741 10.2198C204.921 11.3451 205.021 12.4826 205.042 13.6231C205.047 14.1338 205.047 14.6824 205.047 15.2283C205.06 15.9046 205.06 16.5483 205.06 17.1972V54.9391C205.06 55.5943 205.06 56.2335 205.047 56.8781C205.047 57.4645 205.047 58.0017 205.04 58.5546C205.02 59.6748 204.921 60.792 204.745 61.8972C204.584 62.945 204.269 63.9608 203.813 64.9088C203.358 65.8328 202.766 66.6762 202.059 67.4077C201.354 68.1539 200.539 68.7765 199.644 69.2516C198.737 69.7313 197.766 70.0655 196.764 70.2431C195.697 70.4252 194.619 70.5235 193.538 70.5372C193.032 70.5495 192.503 70.5565 191.989 70.5565L190.117 70.5601L14.5784 70.5565Z" fill="white"/>
<path d="M42.7582 36.6093C42.7768 35.1041 43.1595 33.6283 43.8708 32.3191C44.582 31.01 45.5987 29.91 46.8262 29.1217C46.0464 27.9582 45.0176 27.0007 43.8217 26.3253C42.6257 25.6498 41.2954 25.275 39.9366 25.2306C37.0378 24.9127 34.2276 27.0427 32.7505 27.0427C31.2448 27.0427 28.9705 25.2621 26.5214 25.3148C24.9373 25.3682 23.3935 25.8495 22.0403 26.7116C20.6872 27.5737 19.5709 28.7873 18.8002 30.2341C15.4617 36.2725 17.9519 45.1469 21.1499 50.0279C22.7499 52.418 24.6199 55.0878 27.0668 54.9931C29.4611 54.8893 30.3554 53.398 33.2456 53.398C36.109 53.398 36.948 54.9931 39.4444 54.9329C42.0137 54.8893 43.6325 52.5322 45.1764 50.1195C46.326 48.4164 47.2106 46.5342 47.7975 44.5426C46.3048 43.883 45.031 42.7791 44.1349 41.3683C43.2388 39.9575 42.76 38.3024 42.7582 36.6093V36.6093Z" fill="black"/>
<path d="M38.0418 22.0214C39.4426 20.2646 40.1328 18.0064 39.9657 15.7266C37.8255 15.9614 35.8485 17.03 34.4287 18.7194C33.7345 19.5448 33.2028 20.5049 32.8641 21.5451C32.5253 22.5852 32.3861 23.6849 32.4544 24.7812C33.5249 24.7927 34.5839 24.5503 35.5518 24.0723C36.5196 23.5942 37.371 22.893 38.0418 22.0214Z" fill="black"/>
<path d="M73.0276 48.9418H64.8567L62.8945 54.9947H59.4336L67.1729 32.6006H70.7686L78.508 54.9947H74.9881L73.0276 48.9418ZM65.7029 46.1487H72.1797L68.9869 36.3253H68.8975L65.7029 46.1487Z" fill="black"/>
<path d="M95.2218 46.8334C95.2218 51.9071 92.6224 55.1669 88.6996 55.1669C87.7059 55.2212 86.7176 54.982 85.848 54.4768C84.9783 53.9717 84.2624 53.2208 83.7822 52.3103H83.708V60.3973H80.5V38.669H83.6052V41.3846H83.6642C84.1665 40.4784 84.8945 39.7315 85.7708 39.2232C86.647 38.715 87.6388 38.4644 88.6406 38.4981C92.6071 38.4981 95.2218 41.7738 95.2218 46.8334ZM91.9244 46.8334C91.9244 43.5278 90.2892 41.3546 87.7943 41.3546C85.3432 41.3546 83.6946 43.5736 83.6946 46.8334C83.6946 50.1231 85.3432 52.3262 87.7943 52.3262C90.2893 52.3262 91.9244 50.1689 91.9244 46.8334Z" fill="black"/>
<path d="M112.421 46.8334C112.421 51.9071 109.822 55.1668 105.899 55.1668C104.905 55.2211 103.917 54.982 103.047 54.4768C102.178 53.9716 101.462 53.2208 100.981 52.3103H100.907V60.3973H97.6992V38.6689H100.804V41.3845H100.863C101.366 40.4784 102.094 39.7315 102.97 39.2232C103.846 38.715 104.838 38.4644 105.84 38.4981C109.806 38.4981 112.421 41.7737 112.421 46.8334ZM109.124 46.8334C109.124 43.5278 107.488 41.3546 104.994 41.3546C102.542 41.3546 100.894 43.5736 100.894 46.8334C100.894 50.1231 102.542 52.3262 104.994 52.3262C107.488 52.3262 109.124 50.1689 109.124 46.8334H109.124Z" fill="black"/>
<path d="M123.788 48.7555C124.026 50.9762 126.091 52.4343 128.913 52.4343C131.616 52.4343 133.562 50.9761 133.562 48.9738C133.562 47.2356 132.389 46.1948 129.61 45.4815L126.832 44.7824C122.896 43.7891 121.069 41.866 121.069 38.7453C121.069 34.8815 124.292 32.2275 128.869 32.2275C133.398 32.2275 136.504 34.8815 136.608 38.7453H133.37C133.176 36.5105 131.407 35.1615 128.823 35.1615C126.239 35.1615 124.471 36.5264 124.471 38.5129C124.471 40.0961 125.6 41.0277 128.363 41.7409L130.725 42.3467C135.123 43.4333 136.95 45.279 136.95 48.5546C136.95 52.7442 133.756 55.3682 128.675 55.3682C123.921 55.3682 120.711 52.8058 120.504 48.7553L123.788 48.7555Z" fill="black"/>
<path d="M143.878 34.8047V38.6685H146.85V41.3225H143.878V50.3234C143.878 51.7217 144.473 52.3733 145.78 52.3733C146.133 52.3669 146.485 52.341 146.835 52.2958V54.9339C146.248 55.0486 145.651 55.1005 145.053 55.0889C141.889 55.0889 140.655 53.8473 140.655 50.6809V41.3225H138.383V38.6685H140.655V34.8047H143.878Z" fill="black"/>
<path d="M148.574 46.8329C148.574 41.6959 151.47 38.4678 155.987 38.4678C160.518 38.4678 163.4 41.6958 163.4 46.8329C163.4 51.9841 160.533 55.1981 155.987 55.1981C151.442 55.1981 148.574 51.9841 148.574 46.8329ZM160.132 46.8329C160.132 43.309 158.586 41.2292 155.986 41.2292C153.387 41.2292 151.843 43.3249 151.843 46.8329C151.843 50.371 153.387 52.435 155.986 52.435C158.586 52.435 160.132 50.371 160.132 46.8329H160.132Z" fill="black"/>
<path d="M166.043 38.6688H169.103V41.4478H169.177C169.384 40.5798 169.871 39.8128 170.555 39.2756C171.24 38.7384 172.081 38.4638 172.936 38.498C173.306 38.4966 173.674 38.5386 174.035 38.623V41.7577C173.568 41.6088 173.082 41.5403 172.594 41.5552C172.128 41.5355 171.663 41.6213 171.232 41.8069C170.801 41.9924 170.413 42.2732 170.095 42.6301C169.778 42.987 169.538 43.4114 169.392 43.8743C169.246 44.3371 169.198 44.8275 169.251 45.3116V54.9959H166.043L166.043 38.6688Z" fill="black"/>
<path d="M188.825 50.2002C188.393 53.1641 185.63 55.1981 182.095 55.1981C177.549 55.1981 174.727 52.0158 174.727 46.9104C174.727 41.7892 177.564 38.4678 181.96 38.4678C186.284 38.4678 189.003 41.5708 189.003 46.5212V47.6695H177.965V47.872C177.914 48.4729 177.986 49.0782 178.176 49.6478C178.366 50.2173 178.67 50.7381 179.068 51.1755C179.466 51.6129 179.948 51.9569 180.483 52.1847C181.017 52.4125 181.592 52.5188 182.169 52.4966C182.927 52.5708 183.688 52.3874 184.338 51.9736C184.989 51.5599 185.494 50.9379 185.778 50.2001L188.825 50.2002ZM177.98 45.3272H185.794C185.822 44.7869 185.744 44.2463 185.563 43.7392C185.383 43.232 185.103 42.7694 184.744 42.3803C184.384 41.9912 183.951 41.684 183.472 41.478C182.993 41.2721 182.478 41.1718 181.96 41.1834C181.438 41.1801 180.92 41.285 180.436 41.4919C179.953 41.6988 179.514 42.0037 179.144 42.389C178.774 42.7742 178.48 43.2322 178.281 43.7365C178.081 44.2408 177.979 44.7815 177.98 45.3272V45.3272Z" fill="black"/>
<path d="M65.2947 15.7466C65.9672 15.6962 66.6421 15.8023 67.2707 16.0574C67.8992 16.3124 68.4657 16.71 68.9294 17.2215C69.393 17.733 69.7422 18.3456 69.9518 19.0151C70.1613 19.6846 70.226 20.3944 70.1412 21.0932C70.1412 24.5309 68.3628 26.5069 65.2947 26.5069H61.5742V15.7466H65.2947ZM63.174 24.9852H65.116C65.5966 25.0152 66.0775 24.9329 66.5238 24.7442C66.9701 24.5556 67.3705 24.2653 67.6959 23.8946C68.0213 23.5239 68.2634 23.0821 68.4048 22.6012C68.5461 22.1204 68.583 21.6128 68.5128 21.1152C68.5779 20.6196 68.5372 20.115 68.3938 19.6377C68.2503 19.1605 68.0075 18.7222 67.6829 18.3545C67.3582 17.9867 66.9597 17.6985 66.516 17.5106C66.0722 17.3226 65.5941 17.2395 65.116 17.2672H63.174V24.9852Z" fill="black"/>
<path d="M71.9509 22.4428C71.9021 21.9092 71.9605 21.3707 72.1225 20.8621C72.2845 20.3534 72.5464 19.8857 72.8916 19.489C73.2367 19.0923 73.6574 18.7753 74.1267 18.5584C74.596 18.3415 75.1035 18.2295 75.6166 18.2295C76.1298 18.2295 76.6373 18.3415 77.1065 18.5584C77.5758 18.7753 77.9965 19.0923 78.3417 19.489C78.6868 19.8857 78.9488 20.3534 79.1108 20.8621C79.2727 21.3707 79.3312 21.9092 79.2823 22.4428C79.3321 22.977 79.2744 23.5162 79.1128 24.0257C78.9512 24.5352 78.6894 25.0037 78.3442 25.4012C77.999 25.7987 77.578 26.1163 77.1082 26.3337C76.6385 26.551 76.1304 26.6633 75.6166 26.6633C75.1029 26.6633 74.5948 26.551 74.125 26.3337C73.6553 26.1163 73.2343 25.7987 72.889 25.4012C72.5438 25.0037 72.282 24.5352 72.1204 24.0257C71.9589 23.5162 71.9011 22.977 71.9509 22.4428V22.4428ZM77.7044 22.4428C77.7044 20.6826 76.9475 19.6533 75.6191 19.6533C74.2857 19.6533 73.5356 20.6826 73.5356 22.4428C73.5356 24.2171 74.2858 25.2386 75.6191 25.2386C76.9475 25.2385 77.7044 24.2101 77.7044 22.4428H77.7044Z" fill="black"/>
<path d="M89.0285 26.5061H87.4371L85.8306 20.5255H85.7092L84.1094 26.5061H82.5332L80.3906 18.3857H81.9466L83.339 24.5821H83.4537L85.0518 18.3857H86.5234L88.1215 24.5821H88.2429L89.6286 18.3857H91.1626L89.0285 26.5061Z" fill="black"/>
<path d="M92.961 18.3854H94.4377V19.6754H94.5523C94.7468 19.2121 95.0748 18.8237 95.4906 18.5644C95.9064 18.3051 96.3892 18.1877 96.8719 18.2287C97.2501 18.199 97.6299 18.2586 97.9831 18.403C98.3362 18.5474 98.6538 18.7731 98.9122 19.0631C99.1706 19.3532 99.3632 19.7002 99.4757 20.0786C99.5883 20.457 99.6179 20.857 99.5624 21.249V26.5057H98.0283V21.6514C98.0283 20.3464 97.4855 19.6975 96.351 19.6975C96.0942 19.685 95.8379 19.7306 95.5996 19.8313C95.3612 19.932 95.1466 20.0853 94.9703 20.2808C94.794 20.4762 94.6603 20.7092 94.5782 20.9637C94.4962 21.2182 94.4678 21.4882 94.495 21.7553V26.5058H92.9609L92.961 18.3854Z" fill="black"/>
<path d="M102.008 15.2158H103.542V26.5062H102.008V15.2158Z" fill="black"/>
<path d="M105.674 22.443C105.625 21.9093 105.683 21.3708 105.845 20.8621C106.007 20.3534 106.269 19.8857 106.614 19.489C106.96 19.0923 107.38 18.7753 107.85 18.5584C108.319 18.3415 108.826 18.2295 109.34 18.2295C109.853 18.2295 110.36 18.3415 110.83 18.5584C111.299 18.7753 111.72 19.0923 112.065 19.489C112.41 19.8857 112.672 20.3534 112.834 20.8621C112.996 21.3708 113.055 21.9093 113.006 22.443C113.055 22.9772 112.998 23.5164 112.836 24.0259C112.674 24.5353 112.413 25.0039 112.067 25.4014C111.722 25.7988 111.301 26.1164 110.831 26.3338C110.362 26.5512 109.853 26.6634 109.34 26.6634C108.826 26.6634 108.318 26.5512 107.848 26.3338C107.378 26.1164 106.957 25.7988 106.612 25.4014C106.267 25.0039 106.005 24.5353 105.843 24.0259C105.682 23.5164 105.624 22.9772 105.674 22.443V22.443ZM111.427 22.443C111.427 20.6828 110.67 19.6534 109.342 19.6534C108.008 19.6534 107.258 20.6828 107.258 22.443C107.258 24.2173 108.008 25.2387 109.342 25.2387C110.67 25.2387 111.427 24.2102 111.427 22.443H111.427Z" fill="black"/>
<path d="M114.625 24.2101C114.625 22.7484 115.667 21.9058 117.516 21.786L119.622 21.6592V20.9583C119.622 20.1006 119.079 19.6163 118.03 19.6163C117.174 19.6163 116.58 19.9448 116.41 20.5189H114.925C115.082 19.1241 116.338 18.2295 118.101 18.2295C120.05 18.2295 121.149 19.243 121.149 20.9583V26.5066H119.672V25.3654H119.551C119.304 25.7748 118.958 26.1085 118.548 26.3325C118.138 26.5565 117.678 26.6627 117.216 26.6404C116.89 26.6759 116.56 26.6395 116.248 26.5336C115.936 26.4278 115.648 26.2548 115.404 26.0258C115.16 25.7969 114.965 25.517 114.831 25.2043C114.696 24.8915 114.626 24.5529 114.625 24.2101V24.2101ZM119.622 23.5163V22.8374L117.723 22.9642C116.653 23.039 116.167 23.4194 116.167 24.1353C116.167 24.8661 116.774 25.2914 117.609 25.2914C117.853 25.3173 118.1 25.2915 118.335 25.2156C118.57 25.1397 118.788 25.0152 118.975 24.8496C119.163 24.684 119.317 24.4806 119.428 24.2515C119.539 24.0225 119.605 23.7724 119.622 23.5163V23.5163Z" fill="black"/>
<path d="M123.164 22.4425C123.164 19.8766 124.427 18.2511 126.391 18.2511C126.876 18.2277 127.359 18.3493 127.781 18.6015C128.203 18.8538 128.547 19.2264 128.774 19.6757H128.889V15.2158H130.423V26.5062H128.953V25.2232H128.832C128.587 25.6695 128.23 26.0375 127.8 26.2872C127.37 26.5369 126.882 26.6589 126.391 26.64C124.413 26.6401 123.164 25.0146 123.164 22.4425ZM124.749 22.4425C124.749 24.1648 125.526 25.2012 126.826 25.2012C128.119 25.2012 128.918 24.1499 128.918 22.4495C128.918 20.7571 128.11 19.6908 126.826 19.6908C125.534 19.6908 124.749 20.7342 124.749 22.4425H124.749Z" fill="black"/>
<path d="M136.771 22.4428C136.722 21.9092 136.781 21.3707 136.943 20.8621C137.105 20.3534 137.367 19.8857 137.712 19.489C138.057 19.0923 138.478 18.7753 138.947 18.5584C139.416 18.3415 139.924 18.2295 140.437 18.2295C140.95 18.2295 141.458 18.3415 141.927 18.5584C142.396 18.7753 142.817 19.0923 143.162 19.489C143.507 19.8857 143.769 20.3534 143.931 20.8621C144.093 21.3707 144.151 21.9092 144.103 22.4428C144.152 22.977 144.095 23.5162 143.933 24.0257C143.772 24.5352 143.51 25.0037 143.165 25.4012C142.819 25.7987 142.398 26.1163 141.929 26.3337C141.459 26.551 140.951 26.6633 140.437 26.6633C139.923 26.6633 139.415 26.551 138.945 26.3337C138.476 26.1163 138.055 25.7987 137.709 25.4012C137.364 25.0037 137.102 24.5352 136.941 24.0257C136.779 23.5162 136.721 22.977 136.771 22.4428V22.4428ZM142.525 22.4428C142.525 20.6826 141.768 19.6533 140.439 19.6533C139.106 19.6533 138.356 20.6826 138.356 22.4428C138.356 24.2171 139.106 25.2386 140.439 25.2386C141.768 25.2385 142.525 24.2101 142.525 22.4428Z" fill="black"/>
<path d="M146.156 18.3854H147.633V19.6754H147.748C147.942 19.2121 148.27 18.8237 148.686 18.5644C149.102 18.3051 149.585 18.1877 150.067 18.2287C150.445 18.199 150.825 18.2586 151.178 18.403C151.532 18.5474 151.849 18.7731 152.107 19.0631C152.366 19.3532 152.558 19.7002 152.671 20.0786C152.784 20.457 152.813 20.857 152.758 21.249V26.5057H151.224V21.6514C151.224 20.3464 150.681 19.6975 149.546 19.6975C149.29 19.685 149.033 19.7306 148.795 19.8313C148.557 19.932 148.342 20.0853 148.166 20.2808C147.989 20.4762 147.856 20.7092 147.774 20.9637C147.691 21.2182 147.663 21.4882 147.69 21.7553V26.5058H146.156V18.3854Z" fill="black"/>
<path d="M161.426 16.3643V18.423H163.11V19.7729H161.426V23.9484C161.426 24.799 161.761 25.1715 162.525 25.1715C162.721 25.1708 162.916 25.1585 163.11 25.1345V26.4694C162.835 26.5209 162.555 26.5483 162.276 26.5513C160.57 26.5513 159.89 25.9243 159.89 24.3587V19.7728H158.656V18.4229H159.89V16.3643H161.426Z" fill="black"/>
<path d="M165.207 15.2158H166.728V19.6908H166.849C167.053 19.2231 167.39 18.8325 167.814 18.5722C168.238 18.3119 168.729 18.1945 169.219 18.2361C169.595 18.2147 169.971 18.2803 170.321 18.4283C170.67 18.5762 170.983 18.8029 171.239 19.092C171.495 19.3812 171.686 19.7257 171.8 20.101C171.913 20.4764 171.946 20.8733 171.896 21.2634V26.5062H170.36V21.6588C170.36 20.3617 169.782 19.7048 168.698 19.7048C168.435 19.6822 168.169 19.7201 167.921 19.8158C167.673 19.9115 167.448 20.0626 167.261 20.2587C167.075 20.4548 166.932 20.6911 166.842 20.951C166.752 21.2109 166.718 21.4883 166.741 21.7635V26.5062H165.207L165.207 15.2158Z" fill="black"/>
<path d="M180.84 24.3142C180.631 25.0563 180.18 25.6983 179.564 26.1278C178.948 26.5572 178.208 26.7469 177.471 26.6635C176.959 26.6776 176.45 26.5751 175.98 26.3632C175.51 26.1512 175.089 25.8349 174.747 25.4361C174.406 25.0373 174.151 24.5656 174.002 24.0538C173.852 23.542 173.811 23.0022 173.881 22.4721C173.813 21.9403 173.855 21.3994 174.004 20.8861C174.153 20.3727 174.406 19.8988 174.746 19.4966C175.086 19.0943 175.505 18.773 175.974 18.5544C176.443 18.3358 176.951 18.2251 177.465 18.2296C179.628 18.2296 180.932 19.7733 180.932 22.3232V22.8825H175.443V22.9723C175.419 23.2703 175.455 23.5702 175.549 23.8529C175.642 24.1356 175.791 24.3947 175.986 24.6137C176.181 24.8328 176.418 25.0068 176.681 25.1248C176.944 25.2427 177.227 25.3019 177.514 25.2986C177.881 25.3446 178.252 25.2756 178.582 25.1003C178.911 24.925 179.183 24.6513 179.363 24.3141L180.84 24.3142ZM175.443 21.6972H179.37C179.389 21.4247 179.353 21.1509 179.265 20.8936C179.178 20.6362 179.039 20.4009 178.859 20.2028C178.679 20.0047 178.461 19.8481 178.219 19.7432C177.978 19.6383 177.718 19.5873 177.456 19.5936C177.191 19.5901 176.928 19.6422 176.682 19.7466C176.436 19.8511 176.213 20.006 176.025 20.202C175.838 20.3981 175.69 20.6314 175.59 20.8882C175.49 21.145 175.44 21.42 175.443 21.6972H175.443Z" fill="black"/>
</svg>
