<svg width="25" height="25" viewBox="0 0 25 25" fill="none" xmlns="http://www.w3.org/2000/svg">
<g clip-path="url(#clip0_802_13794)">
<path fill-rule="evenodd" clip-rule="evenodd" d="M3.97032 12.2455C3.82987 12.3862 3.75098 12.5768 3.75098 12.7755C3.75098 12.9743 3.82987 13.1649 3.97032 13.3055L9.97032 19.3055C10.039 19.3792 10.1218 19.4383 10.2138 19.4793C10.3058 19.5203 10.4051 19.5424 10.5058 19.5441C10.6065 19.5459 10.7065 19.5274 10.7999 19.4897C10.8933 19.4519 10.9781 19.3958 11.0494 19.3246C11.1206 19.2534 11.1767 19.1685 11.2144 19.0751C11.2522 18.9818 11.2707 18.8817 11.2689 18.781C11.2671 18.6803 11.2451 18.581 11.2041 18.489C11.1631 18.397 11.104 18.3142 11.0303 18.2455L6.31032 13.5255L20.5003 13.5255C20.6992 13.5255 20.89 13.4465 21.0306 13.3059C21.1713 13.1652 21.2503 12.9745 21.2503 12.7755C21.2503 12.5766 21.1713 12.3859 21.0306 12.2452C20.89 12.1046 20.6992 12.0255 20.5003 12.0255L6.31032 12.0255L11.0303 7.30554C11.104 7.23688 11.1631 7.15408 11.2041 7.06208C11.2451 6.97008 11.2671 6.87077 11.2689 6.77007C11.2707 6.66936 11.2522 6.56933 11.2144 6.47595C11.1767 6.38256 11.1206 6.29772 11.0494 6.22651C10.9781 6.15529 10.8933 6.09914 10.7999 6.06142C10.7065 6.0237 10.6065 6.00518 10.5058 6.00695C10.4051 6.00873 10.3058 6.03077 10.2138 6.07176C10.1218 6.11275 10.039 6.17186 9.97032 6.24554L3.97032 12.2455Z" fill="#202124"/>
</g>
<defs>
<clipPath id="clip0_802_13794">
<rect width="24" height="24" fill="white" transform="matrix(-1 0 0 1 24.5 0.775391)"/>
</clipPath>
</defs>
</svg>
