<svg width="39" height="40" viewBox="0 0 39 40" fill="none" xmlns="http://www.w3.org/2000/svg">
<rect y="0.698242" width="39" height="39" rx="19.5" fill="white"/>
<path d="M16.4908 15.7483C16.4414 15.7161 16.3852 15.6988 16.3278 15.6983C16.2705 15.6977 16.214 15.7139 16.1642 15.7451C16.1143 15.7764 16.0729 15.8216 16.044 15.8762C16.0152 15.9308 16 15.9928 16 16.0559V24.3405C16 24.4037 16.0152 24.4657 16.044 24.5203C16.0729 24.5749 16.1143 24.6201 16.1642 24.6514C16.214 24.6826 16.2705 24.6988 16.3278 24.6982C16.3852 24.6977 16.4414 24.6804 16.4908 24.6482L22.8408 20.5059C22.8893 20.4742 22.9295 20.4292 22.9574 20.3753C22.9853 20.3213 23 20.2603 23 20.1982C23 20.1362 22.9853 20.0752 22.9574 20.0212C22.9295 19.9673 22.8893 19.9222 22.8408 19.8906L16.4908 15.7483Z" fill="black" stroke="black" stroke-width="1.5" stroke-linecap="round" stroke-linejoin="round"/>
</svg>
