<svg width="219" height="24" viewBox="0 0 219 24" fill="none" xmlns="http://www.w3.org/2000/svg">
<rect x="0.510957" y="0.778535" width="37.8108" height="22.4821" rx="3.5767" fill="white"/>
<rect x="0.510957" y="0.778535" width="37.8108" height="22.4821" rx="3.5767" stroke="#DFE1ED" stroke-width="1.02191"/>
<g clip-path="url(#clip0_62_1084)">
<path d="M14.7593 6.75586H20.3972V16.8863H14.7593V6.75586Z" fill="#FF5F00"/>
<path d="M15.1181 11.8204C15.1181 9.76208 16.0846 7.93641 17.5701 6.75509C16.4784 5.89599 15.1003 5.37695 13.5968 5.37695C10.0349 5.37695 7.15332 8.25854 7.15332 11.8204C7.15332 15.3822 10.0349 18.2638 13.5967 18.2638C15.1002 18.2638 16.4783 17.7447 17.5701 16.8855C16.0846 15.7222 15.1181 13.8786 15.1181 11.8204Z" fill="#EB001B"/>
<path d="M28.0047 11.8204C28.0047 15.3821 25.1231 18.2638 21.5613 18.2638C20.0578 18.2638 18.6797 17.7447 17.5879 16.8855C19.0913 15.7043 20.04 13.8786 20.04 11.8204C20.04 9.76208 19.0734 7.93641 17.5879 6.75509C18.6796 5.89599 20.0578 5.37695 21.5613 5.37695C25.1231 5.37695 28.0047 8.27648 28.0047 11.8204Z" fill="#F79E1B"/>
</g>
<rect x="45.5525" y="0.778535" width="37.8108" height="22.4821" rx="3.5767" fill="white"/>
<rect x="45.5525" y="0.778535" width="37.8108" height="22.4821" rx="3.5767" stroke="#DFE1ED" stroke-width="1.02191"/>
<g clip-path="url(#clip1_62_1084)">
<path d="M66.698 7.19458C66.2265 6.65716 65.3742 6.42676 64.2838 6.42676H61.1192C61.0114 6.42674 60.907 6.46522 60.825 6.53528C60.7429 6.60534 60.6886 6.70237 60.6717 6.80893L59.354 15.1659C59.3278 15.3306 59.4554 15.4799 59.6224 15.4799H61.5761L62.0668 12.3677L62.0516 12.4652C62.0865 12.2452 62.2747 12.083 62.4974 12.083H63.4258C65.2496 12.083 66.6777 11.3422 67.0949 9.19923C67.1073 9.13585 67.118 9.07416 67.1273 9.01389C67.0746 8.98601 67.0746 8.98601 67.1273 9.01389C67.2515 8.22184 67.1264 7.6827 66.698 7.19458Z" fill="#27346A"/>
<path d="M62.8143 8.72857C62.8677 8.7031 62.9262 8.68992 62.9853 8.68999H65.4663C65.7601 8.68999 66.0341 8.70911 66.2845 8.74941C66.3545 8.76059 66.4243 8.77393 66.4935 8.78941C66.5916 8.81107 66.6887 8.83758 66.7842 8.86883C66.9073 8.90994 67.0219 8.95782 67.1273 9.01389C67.2515 8.22154 67.1264 7.6827 66.698 7.19458C66.2262 6.65716 65.3742 6.42676 64.2838 6.42676H61.119C60.8961 6.42676 60.7066 6.58898 60.6717 6.80893L59.354 15.1655C59.3278 15.3306 59.4554 15.4796 59.6222 15.4796H61.5761L62.5941 9.02432C62.6041 8.96087 62.6294 8.9008 62.6677 8.84929C62.7061 8.79777 62.7564 8.75634 62.8143 8.72857Z" fill="#27346A"/>
<path d="M67.0951 9.199C66.678 11.3416 65.2499 12.0827 63.4261 12.0827H62.4974C62.2746 12.0827 62.0865 12.245 62.0519 12.465L61.4414 16.3345C61.4186 16.4788 61.5302 16.6094 61.6761 16.6094H63.323C63.4173 16.6094 63.5086 16.5757 63.5803 16.5144C63.652 16.4532 63.6995 16.3683 63.7143 16.2751L63.7303 16.1912L64.0407 14.224L64.0607 14.1153C64.0754 14.0221 64.1229 13.9372 64.1947 13.8759C64.2664 13.8147 64.3576 13.781 64.4519 13.7809H64.6984C66.2938 13.7809 67.543 13.1328 67.908 11.2583C68.0604 10.4749 67.9816 9.82092 67.5785 9.36153C67.4562 9.22239 67.3044 9.10747 67.1275 9.01367C67.1179 9.07424 67.1076 9.13562 67.0951 9.199Z" fill="#2790C3"/>
<path d="M66.6896 8.83932C66.6246 8.82033 66.5589 8.80352 66.4928 8.7889C66.4235 8.77367 66.3538 8.76043 66.2837 8.74918C66.0331 8.70861 65.7592 8.68945 65.4652 8.68945H62.9845C62.9253 8.68935 62.8669 8.70265 62.8136 8.72833C62.7556 8.75601 62.7052 8.79741 62.6668 8.84894C62.6284 8.90047 62.6032 8.96059 62.5933 9.02408L62.066 12.3672L62.0508 12.4647C62.0855 12.2447 62.2736 12.0824 62.4964 12.0824H63.4251C65.2489 12.0824 66.6769 11.3417 67.0941 9.19872C67.1065 9.13534 67.1169 9.07392 67.1265 9.01339C67.0209 8.95767 66.9065 8.9094 66.7834 8.86859C66.7523 8.85829 66.7211 8.84853 66.6897 8.83932" fill="#1F264F"/>
</g>
<rect x="90.5945" y="0.778535" width="37.8108" height="22.4821" rx="3.5767" fill="white"/>
<rect x="90.5945" y="0.778535" width="37.8108" height="22.4821" rx="3.5767" stroke="#DFE1ED" stroke-width="1.02191"/>
<g clip-path="url(#clip2_62_1084)">
<path d="M105.675 8.60041L102.069 17.2015H99.7172L97.9429 10.337C97.8353 9.91524 97.7419 9.76002 97.4145 9.58166C96.8795 9.29101 95.9959 9.01918 95.2192 8.85008L95.2716 8.60041H99.0585C99.5404 8.60041 99.9744 8.92129 100.085 9.47689L101.022 14.4545L103.337 8.60041H105.675ZM108.854 8.60041L107.015 17.2015H104.789L106.629 8.60041H108.854ZM114.891 14.3933C114.9 12.1236 111.753 11.9977 111.773 10.9836C111.781 10.6753 112.074 10.3471 112.717 10.2632C113.036 10.222 113.915 10.1892 114.912 10.6483L115.302 8.8233C114.766 8.62967 114.077 8.44336 113.22 8.44336C111.02 8.44336 109.473 9.61178 109.461 11.2862C109.446 12.5248 110.566 13.2151 111.408 13.6276C112.275 14.0488 112.566 14.3196 112.562 14.6961C112.556 15.2732 111.869 15.5287 111.231 15.5381C110.112 15.5559 109.463 15.2356 108.946 14.9946L108.542 16.8801C109.063 17.1187 110.022 17.3259 111.016 17.3365C113.354 17.3365 114.884 16.1814 114.891 14.3933ZM120.7 17.2016H122.757L120.96 8.60041H119.061C118.633 8.60041 118.273 8.8489 118.114 9.23088L114.775 17.2015H117.112L117.575 15.9167H120.43L120.7 17.2016ZM118.216 14.1542L119.388 10.9242L120.061 14.1542H118.216Z" fill="#1A1F71"/>
</g>
<rect x="135.636" y="0.778535" width="37.8108" height="22.4821" rx="3.5767" fill="white"/>
<rect x="135.636" y="0.778535" width="37.8108" height="22.4821" rx="3.5767" stroke="#DFE1ED" stroke-width="1.02191"/>
<g clip-path="url(#clip3_62_1084)">
<path d="M157.931 12.0082C157.929 11.2308 157.693 10.472 157.252 9.83154C156.811 9.1911 156.187 8.69903 155.461 8.42004V15.5964C156.187 15.3178 156.812 14.8258 157.252 14.1853C157.693 13.5448 157.93 12.7858 157.931 12.0082ZM152.709 15.5952V8.42068C151.983 8.69994 151.36 9.19204 150.919 9.83233C150.479 10.4726 150.243 11.2311 150.241 12.0082C150.243 12.7852 150.479 13.5436 150.919 14.1838C151.36 14.8239 151.983 15.3159 152.709 15.5952ZM154.086 5.94253C152.477 5.9427 150.934 6.58184 149.797 7.71936C148.659 8.85688 148.02 10.3996 148.02 12.0082C148.021 13.6165 148.66 15.1589 149.797 16.296C150.934 17.4332 152.477 18.072 154.085 18.072C154.881 18.0721 155.67 17.9153 156.406 17.6106C157.142 17.306 157.81 16.8593 158.373 16.2962C158.936 15.7332 159.383 15.0647 159.688 14.3289C159.993 13.5932 160.15 12.8046 160.15 12.0082C160.149 10.3998 159.51 8.85733 158.373 7.71992C157.236 6.58251 155.693 5.94321 154.085 5.94253H154.086ZM154.071 18.6449C150.405 18.6622 147.388 15.6922 147.388 12.0772C147.388 8.12688 150.405 5.39389 154.071 5.39453H155.789C159.41 5.39453 162.717 8.1256 162.717 12.0772C162.717 15.691 159.411 18.6449 155.788 18.6449" fill="#3086C8"/>
</g>
<rect x="180.678" y="0.778535" width="37.8108" height="22.4821" rx="3.5767" fill="white"/>
<rect x="180.678" y="0.778535" width="37.8108" height="22.4821" rx="3.5767" stroke="#DFE1ED" stroke-width="1.02191"/>
<g clip-path="url(#clip4_62_1084)">
<path d="M199.847 9.48438C198.554 9.48438 197.506 10.468 197.506 11.6819C197.506 12.9725 198.509 13.9373 199.847 13.9373C201.151 13.9373 202.181 12.9597 202.181 11.7072C202.181 10.4621 201.158 9.48438 199.847 9.48438Z" fill="url(#paint0_linear_62_1084)"/>
<path d="M199.847 9.48438C198.554 9.48438 197.506 10.468 197.506 11.6819C197.506 12.9725 198.509 13.9373 199.847 13.9373C201.151 13.9373 202.181 12.9597 202.181 11.7072C202.181 10.4621 201.158 9.48438 199.847 9.48438Z" fill="#FF8001"/>
<path d="M186.557 9.56422H185.299V13.8406H186.551C187.215 13.8406 187.695 13.6873 188.117 13.3472C188.617 12.9432 188.913 12.334 188.913 11.7044C188.913 10.4419 187.945 9.56422 186.557 9.56422ZM187.558 12.776C187.288 13.0138 186.939 13.1166 186.386 13.1166H186.156V10.2883H186.386C186.939 10.2883 187.274 10.3846 187.558 10.6344C187.854 10.8909 188.031 11.2882 188.031 11.6983C188.031 12.1094 187.854 12.5205 187.558 12.776ZM189.309 13.8406H190.164V9.56422H189.309L189.309 13.8406ZM192.258 11.2046C191.744 11.019 191.592 10.8967 191.592 10.6667C191.592 10.3971 191.862 10.1921 192.231 10.1921C192.488 10.1921 192.698 10.2946 192.923 10.5376L193.37 9.96778C193.001 9.65294 192.56 9.49287 192.079 9.49287C191.303 9.49287 190.711 10.0189 190.711 10.7172C190.711 11.3076 190.987 11.6087 191.79 11.8915C192.126 12.0064 192.297 12.083 192.382 12.1353C192.554 12.2443 192.64 12.3977 192.64 12.5771C192.64 12.9239 192.356 13.18 191.974 13.18C191.566 13.18 191.237 12.9814 191.039 12.6096L190.487 13.1295C190.881 13.693 191.355 13.9439 192.008 13.9439C192.896 13.9439 193.521 13.3661 193.521 12.5391C193.521 11.8593 193.232 11.5513 192.258 11.2046ZM193.791 11.7045C193.791 12.9626 194.805 13.9371 196.108 13.9371C196.477 13.9371 196.793 13.8661 197.182 13.6872V12.7056C196.839 13.0394 196.536 13.1737 196.148 13.1737C195.286 13.1737 194.673 12.5644 194.673 11.6983C194.673 10.878 195.305 10.2302 196.108 10.2302C196.516 10.2302 196.826 10.3712 197.182 10.711V9.72954C196.807 9.54421 196.497 9.46777 196.128 9.46777C194.831 9.46777 193.791 10.4619 193.791 11.7045ZM204.119 12.4368L202.947 9.56422H202.012L203.876 13.9498H204.336L206.232 9.56416H205.305L204.119 12.4368ZM206.622 13.8406H209.05V13.1166H207.477V11.9616H208.99V11.2375H207.477V10.2883H209.05V9.56427H206.622L206.622 13.8406ZM212.439 10.8263C212.439 10.0252 211.874 9.56422 210.886 9.56422H209.615V13.8406H210.472V12.1219H210.584L211.768 13.8406H212.822L211.438 12.0393C212.084 11.9105 212.439 11.4807 212.439 10.8263ZM210.721 11.5325H210.472V10.2367H210.735C211.269 10.2367 211.559 10.4554 211.559 10.8715C211.559 11.3008 211.269 11.5325 210.721 11.5325Z" fill="#0B1015"/>
</g>
<defs>
<linearGradient id="paint0_linear_62_1084" x1="288.278" y1="49.841" x2="595.515" y2="382.931" gradientUnits="userSpaceOnUse">
<stop stop-color="#F34F26"/>
<stop offset="1" stop-color="#F69E35"/>
</linearGradient>
<clipPath id="clip0_62_1084">
<rect width="20.8722" height="16.2249" fill="white" transform="translate(7.15332 5.37695)"/>
</clipPath>
<clipPath id="clip1_62_1084">
<rect width="8.66259" height="10.2191" fill="white" transform="translate(59.3477 6.39844)"/>
</clipPath>
<clipPath id="clip2_62_1084">
<rect width="27.5379" height="12.263" fill="white" transform="translate(95.2197 5.37695)"/>
</clipPath>
<clipPath id="clip3_62_1084">
<rect width="15.3287" height="15.3287" fill="white" transform="translate(147.388 4.35547)"/>
</clipPath>
<clipPath id="clip4_62_1084">
<rect width="27.5917" height="4.63454" fill="white" transform="translate(185.276 9.46484)"/>
</clipPath>
</defs>
</svg>
