<svg width="18" height="16" viewBox="0 0 18 16" fill="none" xmlns="http://www.w3.org/2000/svg">
<path d="M17.9357 8.67859L16.0071 5.46429C15.8786 5.27144 15.6857 5.14287 15.4286 5.14287H11.5714V3.21429C11.5714 2.82858 11.3143 2.57143 10.9286 2.57143H8.54998C7.84284 1.02857 6.30001 0 4.50001 0C1.99286 0 0 1.99286 0 4.50001C0 7.00715 1.99286 9.00002 4.50001 9.00002C7.00712 9.00002 8.99999 7.00715 8.99999 4.50001C8.99999 4.30715 8.99999 4.05001 8.9357 3.85715H10.2857V12.8572H7.5857C7.32855 12.0857 6.62141 11.5714 5.78573 11.5714C4.95001 11.5714 4.24287 12.0857 3.98572 12.8572H2.57143V10.2857C2.57143 9.90002 2.31429 9.64287 1.92858 9.64287C1.54286 9.64287 1.28572 9.90002 1.28572 10.2857V13.5C1.28572 13.8857 1.54286 14.1429 1.92858 14.1429H3.98572C4.24287 14.9143 4.95001 15.4286 5.78573 15.4286C6.62141 15.4286 7.32855 14.9143 7.5857 14.1429H12.3428C12.6 14.9143 13.3071 15.4286 14.1429 15.4286C14.9786 15.4286 15.6857 14.9143 15.9429 14.1429H17.3571C17.7429 14.1429 18 13.8857 18 13.5V9.00002C18 8.87144 18 8.74287 17.9357 8.67859ZM4.50001 7.7143C2.70001 7.7143 1.28572 6.30001 1.28572 4.50001C1.28572 2.7 2.70001 1.28572 4.50001 1.28572C6.30001 1.28572 7.71427 2.7 7.71427 4.50001C7.71427 6.30001 6.30001 7.7143 4.50001 7.7143ZM16.2 8.35716H14.1429V6.42858H15.0429L16.2 8.35716ZM5.78573 14.1429C5.40001 14.1429 5.14287 13.8857 5.14287 13.5C5.14287 13.1143 5.40001 12.8572 5.78573 12.8572C6.17144 12.8572 6.42858 13.1143 6.42858 13.5C6.42858 13.8857 6.17144 14.1429 5.78573 14.1429ZM14.1429 14.1429C13.7571 14.1429 13.5 13.8857 13.5 13.5C13.5 13.1143 13.7571 12.8572 14.1429 12.8572C14.5286 12.8572 14.7857 13.1143 14.7857 13.5C14.7857 13.8857 14.5286 14.1429 14.1429 14.1429ZM15.9429 12.8572C15.6857 12.0857 14.9786 11.5714 14.1429 11.5714C13.3071 11.5714 12.6 12.0857 12.3428 12.8572H11.5714V6.42858H12.8571V9.00002C12.8571 9.38573 13.1143 9.64287 13.5 9.64287H16.7143V12.8572H15.9429Z" fill="black"/>
<path d="M3.98633 2.92481C3.98633 2.64077 4.21646 2.41064 4.50049 2.41064C4.78452 2.41064 5.01465 2.64077 5.01465 2.92481V4.47733L6.10763 5.35185L6.14719 5.387C6.33289 5.56953 6.35405 5.86663 6.18799 6.07443C6.01056 6.29623 5.68657 6.33223 5.46478 6.15479L3.98633 4.97203V2.92481Z" fill="black"/>
</svg>
