<svg width="124" height="44" viewBox="0 0 124 44" fill="none" xmlns="http://www.w3.org/2000/svg">
<g clip-path="url(#clip0_62_1069)">
<path d="M116.07 0.28125H7.86908C3.62477 0.28125 0.184082 3.72194 0.184082 7.96625V34.2272C0.184082 38.4716 3.62477 41.9123 7.86908 41.9123H116.07C120.314 41.9123 123.755 38.4716 123.755 34.2272V7.96625C123.755 3.72194 120.314 0.28125 116.07 0.28125Z" fill="black"/>
<path d="M116.07 0.28125H7.86908C3.62477 0.28125 0.184082 3.72194 0.184082 7.96625V34.2272C0.184082 38.4716 3.62477 41.9123 7.86908 41.9123H116.07C120.314 41.9123 123.755 38.4716 123.755 34.2272V7.96625C123.755 3.72194 120.314 0.28125 116.07 0.28125Z" stroke="black" stroke-width="0.369"/>
<path d="M24.9858 21.798C24.9968 20.9526 25.2214 20.1238 25.6387 19.3886C26.0561 18.6534 26.6526 18.0357 27.3728 17.593C26.9153 16.9396 26.3118 16.4019 25.6101 16.0226C24.9085 15.6433 24.128 15.4329 23.3308 15.408C21.6308 15.229 19.9808 16.425 19.1148 16.425C18.2308 16.425 16.8968 15.425 15.4598 15.455C14.5304 15.4851 13.6247 15.7554 12.8308 16.2397C12.0369 16.7239 11.382 17.4054 10.9298 18.218C8.97082 21.608 10.4318 26.593 12.3088 29.334C13.2478 30.676 14.3448 32.176 15.7798 32.122C17.1848 32.064 17.7098 31.227 19.4048 31.227C21.0848 31.227 21.5768 32.122 23.0418 32.089C24.5498 32.064 25.4988 30.74 26.4048 29.385C27.0794 28.4286 27.5985 27.3715 27.9428 26.253C27.067 25.8827 26.3196 25.2628 25.7938 24.4705C25.2679 23.6783 24.9869 22.7488 24.9858 21.798ZM22.2198 13.605C23.0418 12.6184 23.4468 11.3503 23.3488 10.07C22.0929 10.2017 20.9328 10.8019 20.0998 11.751C19.6927 12.2145 19.3808 12.7537 19.1821 13.3377C18.9834 13.9218 18.9018 14.5393 18.9418 15.155C19.5699 15.1614 20.1912 15.0253 20.759 14.7568C21.3268 14.4883 21.8263 14.0945 22.2198 13.605ZM101.235 13.667C101.235 13.843 101.219 13.955 101.211 14.059H97.7948C97.9068 14.715 98.3468 15.283 99.2988 15.283C99.8108 15.283 100.403 15.091 100.795 14.803L101.123 15.387C100.739 15.691 100.043 15.987 99.2828 15.987C97.6588 15.987 96.9948 14.851 96.9948 13.731C96.9948 12.459 97.8668 11.499 99.1628 11.499C100.355 11.499 101.235 12.307 101.235 13.667ZM99.1628 12.179C98.4428 12.179 97.9228 12.691 97.7948 13.395H100.443C100.395 12.635 99.8508 12.179 99.1628 12.179ZM92.4198 15.891V9.83496H93.1628V12.131C93.4188 11.755 93.9228 11.491 94.5228 11.491C95.4108 11.491 96.2108 12.067 96.2108 13.291V15.891H95.4508V13.507C95.4508 12.635 94.9868 12.203 94.3628 12.203C93.6668 12.203 93.1868 12.739 93.1868 13.507V15.891H92.4198ZM91.6158 15.043L91.9038 15.635C91.5918 15.875 91.1678 15.995 90.7598 15.995C89.8318 15.995 89.3918 15.387 89.3918 14.387V12.259H88.6318V11.603H89.3998V10.083H90.1518V11.603H91.6718V12.259H90.1518V14.443C90.1518 14.963 90.3358 15.291 90.8478 15.291C91.1198 15.291 91.3838 15.187 91.6158 15.043ZM82.5028 15.891V11.603H83.2548V12.211C83.5108 11.755 84.0068 11.491 84.6148 11.491C85.5028 11.491 86.3108 12.067 86.3108 13.291V15.891H85.5508V13.507C85.5508 12.643 85.0788 12.203 84.4548 12.203C83.7588 12.203 83.2708 12.747 83.2708 13.515V15.891H82.5028ZM79.4368 15.995C78.1088 15.995 77.1808 14.995 77.1808 13.739C77.1808 12.507 78.1088 11.491 79.4368 11.491C80.7568 11.491 81.6848 12.507 81.6848 13.739C81.6848 14.995 80.7568 15.995 79.4368 15.995ZM79.4368 15.291C80.2688 15.291 80.9168 14.587 80.9168 13.739C80.9168 12.907 80.2688 12.203 79.4368 12.203C78.6048 12.203 77.9568 12.907 77.9568 13.739C77.9568 14.587 78.6048 15.291 79.4368 15.291ZM73.7128 9.83496H74.4808V15.891H73.7128V15.291C73.536 15.5152 73.3096 15.6954 73.0514 15.8176C72.7933 15.9397 72.5104 16.0004 72.2248 15.995C70.9688 15.995 70.0648 14.995 70.0648 13.739C70.0648 12.499 70.9768 11.499 72.2088 11.499C72.4987 11.4961 72.7852 11.5604 73.0461 11.6867C73.307 11.813 73.5352 11.9979 73.7128 12.227V9.83496ZM72.3048 15.291C73.2008 15.291 73.7688 14.587 73.7688 13.739C73.7688 12.907 73.2008 12.203 72.3048 12.203C71.4088 12.203 70.8408 12.907 70.8408 13.739C70.8408 14.587 71.4088 15.291 72.3048 15.291ZM68.4998 11.603H69.2358V15.891H68.4988V15.283C68.3188 15.5099 68.0887 15.6923 67.8266 15.8158C67.5646 15.9393 67.2775 16.0006 66.9878 15.995C65.7548 15.995 64.8438 15.003 64.8438 13.715C64.8438 12.435 65.7558 11.499 66.9878 11.499C67.6118 11.499 68.1238 11.771 68.4988 12.227L68.4998 11.603ZM67.0758 15.291C67.9718 15.291 68.5478 14.587 68.5478 13.739C68.5478 12.907 67.9718 12.203 67.0758 12.203C66.1798 12.203 65.6198 12.907 65.6198 13.747C65.6198 14.587 66.1798 15.291 67.0758 15.291ZM62.0408 15.995C60.7128 15.995 59.7848 14.995 59.7848 13.739C59.7848 12.507 60.7128 11.491 62.0408 11.491C63.3608 11.491 64.2888 12.507 64.2888 13.739C64.2888 14.995 63.3608 15.995 62.0408 15.995ZM62.0408 15.291C62.8728 15.291 63.5208 14.587 63.5208 13.739C63.5208 12.907 62.8728 12.203 62.0408 12.203C61.2088 12.203 60.5608 12.907 60.5608 13.739C60.5608 14.587 61.2088 15.291 62.0408 15.291ZM58.9548 15.891H58.1868V9.83496H58.9548V15.891ZM53.3398 15.891V11.603H54.0918V12.211C54.3478 11.755 54.8438 11.491 55.4518 11.491C56.3398 11.491 57.1478 12.067 57.1478 13.291V15.891H56.3878V13.507C56.3878 12.643 55.9158 12.203 55.2918 12.203C54.5958 12.203 54.1078 12.747 54.1078 13.515V15.891H53.3398ZM47.6868 15.882L46.2148 11.602H47.0228L48.0388 14.818L49.2068 11.602H49.7428L50.9588 14.818L51.9348 11.602H52.7348L51.3028 15.882H50.6628L49.4788 12.674L48.3188 15.882H47.6868ZM43.7468 15.995C42.4188 15.995 41.4908 14.995 41.4908 13.739C41.4908 12.507 42.4188 11.491 43.7468 11.491C45.0668 11.491 45.9948 12.507 45.9948 13.739C45.9948 14.995 45.0668 15.995 43.7468 15.995ZM43.7468 15.291C44.5788 15.291 45.2268 14.587 45.2268 13.739C45.2268 12.907 44.5788 12.203 43.7468 12.203C42.9148 12.203 42.2668 12.907 42.2668 13.739C42.2668 14.587 42.9148 15.291 43.7468 15.291ZM35.9428 15.89V9.97796H38.1428C39.8148 9.97796 40.8628 11.122 40.8628 12.946C40.8628 14.754 39.8068 15.89 38.0628 15.89H35.9428ZM36.7428 15.13H38.0948C39.3508 15.13 40.0308 14.17 40.0308 12.922C40.0308 11.69 39.3508 10.738 38.0948 10.738H36.7428V15.13ZM41.8058 27.737H38.2818L37.4358 30.179H35.9428L39.2808 21.145H40.8308L44.1698 30.179H42.6498L41.8048 27.738L41.8058 27.737ZM38.6458 26.611H41.4398L40.0628 22.648H40.0248L38.6458 26.611ZM51.3788 26.887C51.3788 28.934 50.2568 30.249 48.5658 30.249C48.138 30.2709 47.7124 30.1743 47.3358 29.97C46.9628 29.7683 46.654 29.4658 46.4448 29.097H46.4128V32.359H45.0288V23.593H46.3688V24.689H46.3938C46.6098 24.323 46.9238 24.022 47.3018 23.817C47.6812 23.6114 48.1085 23.5102 48.5398 23.524C50.2498 23.524 51.3788 24.846 51.3788 26.887ZM49.9558 26.887C49.9558 25.553 49.2508 24.677 48.1758 24.677C47.1178 24.677 46.4058 25.572 46.4058 26.887C46.4058 28.214 47.1178 29.103 48.1758 29.103C49.2508 29.103 49.9558 28.233 49.9558 26.887ZM58.7968 26.887C58.7968 28.934 57.6768 30.249 55.9838 30.249C55.556 30.2709 55.1304 30.1743 54.7538 29.97C54.381 29.7679 54.0726 29.465 53.8638 29.096H53.8318V32.359H52.4478V23.593H53.7878V24.689H53.8128C54.0288 24.323 54.3428 24.022 54.7208 23.817C55.1003 23.6114 55.5275 23.5102 55.9588 23.524C57.6688 23.524 58.7968 24.846 58.7968 26.887ZM57.3748 26.887C57.3748 25.553 56.6698 24.677 55.5938 24.677C54.5368 24.677 53.8258 25.572 53.8258 26.887C53.8258 28.214 54.5358 29.103 55.5938 29.103C56.6698 29.103 57.3748 28.233 57.3748 26.887ZM63.6998 27.662C63.8028 28.558 64.6938 29.147 65.9108 29.147C67.0768 29.147 67.9158 28.558 67.9158 27.751C67.9158 27.049 67.4098 26.63 66.2118 26.341L65.0138 26.06C63.3158 25.659 62.5278 24.883 62.5278 23.624C62.5278 22.066 63.9178 20.995 65.8918 20.995C67.8458 20.995 69.1848 22.065 69.2298 23.625H67.8328C67.7498 22.723 66.9868 22.179 65.8728 22.179C64.7578 22.179 63.9948 22.729 63.9948 23.531C63.9948 24.169 64.4818 24.545 65.6738 24.833L66.6928 25.077C68.5898 25.516 69.3778 26.26 69.3778 27.581C69.3778 29.271 67.9998 30.331 65.8078 30.331C63.7578 30.331 62.3738 29.296 62.2838 27.662H63.6998ZM72.3638 22.034V23.593H73.6448V24.663H72.3638V28.294C72.3638 28.858 72.6198 29.121 73.1838 29.121C73.3358 29.119 73.4878 29.108 73.6388 29.091V30.154C73.3858 30.2 73.1288 30.221 72.8698 30.217C71.5058 30.217 70.9728 29.716 70.9728 28.439V24.663H69.9928V23.593H70.9728V22.034H72.3638ZM74.3878 26.887C74.3878 24.814 75.6368 23.512 77.5848 23.512C79.5388 23.512 80.7828 24.814 80.7828 26.886C80.7828 28.964 79.5458 30.261 77.5848 30.261C75.6248 30.261 74.3878 28.965 74.3878 26.887ZM79.3728 26.887C79.3728 25.465 78.7058 24.626 77.5848 24.626C76.4638 24.626 75.7978 25.471 75.7978 26.886C75.7978 28.313 76.4638 29.146 77.5848 29.146C78.7058 29.146 79.3728 28.314 79.3728 26.887ZM81.9228 23.593H83.2428V24.714H83.2748C83.3638 24.364 83.5738 24.054 83.8688 23.838C84.1661 23.6209 84.528 23.5106 84.8958 23.525C85.0558 23.524 85.2148 23.541 85.3698 23.575V24.839C85.1684 24.7791 84.9588 24.7518 84.7488 24.758C84.5488 24.7503 84.3494 24.7848 84.1636 24.8594C83.9779 24.9341 83.8099 25.047 83.6708 25.191C83.5351 25.334 83.4323 25.5049 83.3694 25.6918C83.3065 25.8787 83.2852 26.077 83.3068 26.273V30.18H81.9228V23.593ZM91.7498 28.244C91.5628 29.44 90.3718 30.261 88.8468 30.261C86.8858 30.261 85.6688 28.977 85.6688 26.917C85.6688 24.851 86.8928 23.512 88.7888 23.512C90.6538 23.512 91.8258 24.763 91.8258 26.76V27.224H87.0658V27.305C87.0433 27.5483 87.0741 27.7937 87.1561 28.0239C87.2382 28.2541 87.3695 28.4637 87.5408 28.638C87.7148 28.8146 87.9235 28.9532 88.1539 29.045C88.3842 29.1367 88.6311 29.1796 88.8788 29.171C89.2058 29.201 89.5338 29.127 89.8148 28.96C90.0932 28.7948 90.3107 28.544 90.4348 28.245H91.7488L91.7498 28.244ZM87.0718 26.279H90.4418C90.4548 26.0599 90.4211 25.8405 90.343 25.6354C90.2649 25.4302 90.1442 25.244 89.9888 25.089C89.8315 24.932 89.6442 24.8083 89.438 24.7253C89.2318 24.6423 89.011 24.6017 88.7888 24.606C88.3359 24.6041 87.9001 24.7788 87.5738 25.093C87.4155 25.2474 87.2896 25.4318 87.2034 25.6354C87.1172 25.8391 87.0725 26.0578 87.0718 26.279Z" fill="white"/>
</g>
<defs>
<clipPath id="clip0_62_1069">
<rect width="124" height="43" fill="white" transform="translate(0 0.0371094)"/>
</clipPath>
</defs>
</svg>
