<svg width="22" height="22" viewBox="0 0 22 22" fill="none" xmlns="http://www.w3.org/2000/svg">
<path fill-rule="evenodd" clip-rule="evenodd" d="M12.2467 1.88791C12.795 1.23037 13.8628 1.67972 13.7761 2.53158L13.1636 8.51538H18.1178C18.2826 8.51544 18.444 8.56247 18.5831 8.65094C18.7221 8.73942 18.8331 8.86569 18.903 9.01496C18.9729 9.16424 18.9989 9.33034 18.9778 9.49382C18.9567 9.65729 18.8895 9.81138 18.784 9.93803L10.1093 20.3477C9.56103 21.0052 8.49318 20.5559 8.57993 19.704L9.19236 13.7202H4.23824C4.07341 13.7201 3.912 13.6731 3.77293 13.5846C3.63386 13.4962 3.52287 13.3699 3.45297 13.2206C3.38306 13.0713 3.35714 12.9052 3.37822 12.7418C3.39931 12.5783 3.46653 12.4242 3.57202 12.2976L12.2467 1.88791Z" fill="black"/>
</svg>
