<svg width="70" height="14" viewBox="0 0 70 14" fill="none" xmlns="http://www.w3.org/2000/svg">
<path d="M6.99998 10.0766L4.57914 11.535C4.4722 11.603 4.36039 11.6322 4.24373 11.6225C4.12706 11.6127 4.02498 11.5738 3.93748 11.5058C3.84998 11.4377 3.78192 11.3528 3.73331 11.2509C3.6847 11.149 3.67498 11.0347 3.70414 10.9079L4.34581 8.15163L2.20206 6.29954C2.10484 6.21204 2.04417 6.11229 2.02006 6.00029C1.99595 5.88829 2.00314 5.77902 2.04164 5.67246C2.08014 5.56591 2.13848 5.47841 2.21664 5.40996C2.29481 5.34152 2.40176 5.29777 2.53748 5.27871L5.36664 5.03079L6.46039 2.43496C6.50901 2.31829 6.58445 2.23079 6.68673 2.17246C6.78901 2.11413 6.89342 2.08496 6.99998 2.08496C7.10653 2.08496 7.21095 2.11413 7.31323 2.17246C7.41551 2.23079 7.49095 2.31829 7.53956 2.43496L8.63331 5.03079L11.4625 5.27871C11.5986 5.29816 11.7055 5.34191 11.7833 5.40996C11.8611 5.47802 11.9194 5.56552 11.9583 5.67246C11.9972 5.77941 12.0046 5.88888 11.9805 6.00088C11.9564 6.11288 11.8955 6.21243 11.7979 6.29954L9.65414 8.15163L10.2958 10.9079C10.325 11.0343 10.3153 11.1486 10.2666 11.2509C10.218 11.3532 10.15 11.4381 10.0625 11.5058C9.97498 11.5735 9.87289 11.6123 9.75623 11.6225C9.63956 11.6326 9.52776 11.6034 9.42081 11.535L6.99998 10.0766Z" fill="#F9BB47"/>
<path d="M20.2045 10.0766L17.7836 11.535C17.6767 11.603 17.5649 11.6322 17.4482 11.6225C17.3316 11.6127 17.2295 11.5738 17.142 11.5058C17.0545 11.4377 16.9864 11.3528 16.9378 11.2509C16.8892 11.149 16.8795 11.0347 16.9086 10.9079L17.5503 8.15163L15.4066 6.29954C15.3093 6.21204 15.2487 6.11229 15.2246 6.00029C15.2004 5.88829 15.2076 5.77902 15.2461 5.67246C15.2846 5.56591 15.343 5.47841 15.4211 5.40996C15.4993 5.34152 15.6063 5.29777 15.742 5.27871L18.5711 5.03079L19.6649 2.43496C19.7135 2.31829 19.7889 2.23079 19.8912 2.17246C19.9935 2.11413 20.0979 2.08496 20.2045 2.08496C20.311 2.08496 20.4154 2.11413 20.5177 2.17246C20.62 2.23079 20.6954 2.31829 20.7441 2.43496L21.8378 5.03079L24.667 5.27871C24.8031 5.29816 24.91 5.34191 24.9878 5.40996C25.0656 5.47802 25.1239 5.56552 25.1628 5.67246C25.2017 5.77941 25.2091 5.88888 25.185 6.00088C25.1609 6.11288 25.1 6.21243 25.0024 6.29954L22.8586 8.15163L23.5003 10.9079C23.5295 11.0343 23.5198 11.1486 23.4711 11.2509C23.4225 11.3532 23.3545 11.4381 23.267 11.5058C23.1795 11.5735 23.0774 11.6123 22.9607 11.6225C22.8441 11.6326 22.7323 11.6034 22.6253 11.535L20.2045 10.0766Z" fill="#F9BB47"/>
<path d="M33.4089 10.0766L30.988 11.535C30.8811 11.603 30.7693 11.6322 30.6526 11.6225C30.536 11.6127 30.4339 11.5738 30.3464 11.5058C30.2589 11.4377 30.1908 11.3528 30.1422 11.2509C30.0936 11.149 30.0839 11.0347 30.113 10.9079L30.7547 8.15163L28.611 6.29954C28.5137 6.21204 28.4531 6.11229 28.429 6.00029C28.4049 5.88829 28.412 5.77902 28.4505 5.67246C28.489 5.56591 28.5474 5.47841 28.6255 5.40996C28.7037 5.34152 28.8107 5.29777 28.9464 5.27871L31.7755 5.03079L32.8693 2.43496C32.9179 2.31829 32.9934 2.23079 33.0956 2.17246C33.1979 2.11413 33.3023 2.08496 33.4089 2.08496C33.5154 2.08496 33.6199 2.11413 33.7221 2.17246C33.8244 2.23079 33.8999 2.31829 33.9485 2.43496L35.0422 5.03079L37.8714 5.27871C38.0075 5.29816 38.1144 5.34191 38.1922 5.40996C38.27 5.47802 38.3283 5.56552 38.3672 5.67246C38.4061 5.77941 38.4135 5.88888 38.3894 6.00088C38.3653 6.11288 38.3044 6.21243 38.2068 6.29954L36.063 8.15163L36.7047 10.9079C36.7339 11.0343 36.7242 11.1486 36.6755 11.2509C36.6269 11.3532 36.5589 11.4381 36.4714 11.5058C36.3839 11.5735 36.2818 11.6123 36.1651 11.6225C36.0485 11.6326 35.9367 11.6034 35.8297 11.535L33.4089 10.0766Z" fill="#F9BB47"/>
<path d="M46.6135 10.0766L44.1926 11.535C44.0857 11.603 43.9739 11.6322 43.8572 11.6225C43.7406 11.6127 43.6385 11.5738 43.551 11.5058C43.4635 11.4377 43.3954 11.3528 43.3468 11.2509C43.2982 11.149 43.2885 11.0347 43.3176 10.9079L43.9593 8.15163L41.8156 6.29954C41.7183 6.21204 41.6577 6.11229 41.6336 6.00029C41.6094 5.88829 41.6166 5.77902 41.6551 5.67246C41.6936 5.56591 41.752 5.47841 41.8301 5.40996C41.9083 5.34152 42.0153 5.29777 42.151 5.27871L44.9801 5.03079L46.0739 2.43496C46.1225 2.31829 46.1979 2.23079 46.3002 2.17246C46.4025 2.11413 46.5069 2.08496 46.6135 2.08496C46.72 2.08496 46.8244 2.11413 46.9267 2.17246C47.029 2.23079 47.1044 2.31829 47.1531 2.43496L48.2468 5.03079L51.076 5.27871C51.2121 5.29816 51.319 5.34191 51.3968 5.40996C51.4746 5.47802 51.5329 5.56552 51.5718 5.67246C51.6107 5.77941 51.6181 5.88888 51.594 6.00088C51.5699 6.11288 51.509 6.21243 51.4114 6.29954L49.2676 8.15163L49.9093 10.9079C49.9385 11.0343 49.9288 11.1486 49.8801 11.2509C49.8315 11.3532 49.7635 11.4381 49.676 11.5058C49.5885 11.5735 49.4864 11.6123 49.3697 11.6225C49.2531 11.6326 49.1413 11.6034 49.0343 11.535L46.6135 10.0766Z" fill="#F9BB47"/>
<path d="M59.8178 10.0766L57.397 11.535C57.29 11.603 57.1782 11.6322 57.0616 11.6225C56.9449 11.6127 56.8428 11.5738 56.7553 11.5058C56.6678 11.4377 56.5998 11.3528 56.5512 11.2509C56.5025 11.149 56.4928 11.0347 56.522 10.9079L57.1637 8.15163L55.0199 6.29954C54.9227 6.21204 54.862 6.11229 54.8379 6.00029C54.8138 5.88829 54.821 5.77902 54.8595 5.67246C54.898 5.56591 54.9563 5.47841 55.0345 5.40996C55.1127 5.34152 55.2196 5.29777 55.3553 5.27871L58.1845 5.03079L59.2782 2.43496C59.3268 2.31829 59.4023 2.23079 59.5046 2.17246C59.6068 2.11413 59.7113 2.08496 59.8178 2.08496C59.9244 2.08496 60.0288 2.11413 60.1311 2.17246C60.2333 2.23079 60.3088 2.31829 60.3574 2.43496L61.4512 5.03079L64.2803 5.27871C64.4164 5.29816 64.5234 5.34191 64.6012 5.40996C64.6789 5.47802 64.7373 5.56552 64.7762 5.67246C64.815 5.77941 64.8224 5.88888 64.7983 6.00088C64.7742 6.11288 64.7133 6.21243 64.6157 6.29954L62.472 8.15163L63.1137 10.9079C63.1428 11.0343 63.1331 11.1486 63.0845 11.2509C63.0359 11.3532 62.9678 11.4381 62.8803 11.5058C62.7928 11.5735 62.6907 11.6123 62.5741 11.6225C62.4574 11.6326 62.3456 11.6034 62.2387 11.535L59.8178 10.0766Z" fill="#F9BB47"/>
</svg>
