<svg width="99" height="16" viewBox="0 0 99 16" fill="none" xmlns="http://www.w3.org/2000/svg">
<path d="M7.87167 13.404L4.05577 15.85C3.8872 15.9641 3.71096 16.013 3.52706 15.9967C3.34316 15.9804 3.18225 15.9152 3.04433 15.801C2.9064 15.6869 2.79913 15.5444 2.7225 15.3735C2.64588 15.2026 2.63056 15.0108 2.67653 14.7982L3.68797 10.1753L0.308836 7.06889C0.155587 6.92213 0.0599593 6.75483 0.0219536 6.56697C-0.0160521 6.37912 -0.00471172 6.19584 0.0559748 6.01712C0.116661 5.8384 0.208611 5.69164 0.331823 5.57684C0.455035 5.46204 0.623608 5.38866 0.837544 5.3567L5.29709 4.94089L7.02113 0.587036C7.09776 0.391357 7.21668 0.244598 7.3779 0.146759C7.53912 0.0489195 7.7037 0 7.87167 0C8.03963 0 8.20422 0.0489195 8.36543 0.146759C8.52665 0.244598 8.64557 0.391357 8.7222 0.587036L10.4462 4.94089L14.9058 5.3567C15.1203 5.38932 15.2889 5.46269 15.4115 5.57684C15.5341 5.69099 15.6261 5.83775 15.6874 6.01712C15.7487 6.19649 15.7603 6.3801 15.7223 6.56795C15.6843 6.7558 15.5884 6.92278 15.4345 7.06889L12.0554 10.1753L13.0668 14.7982C13.1128 15.0102 13.0975 15.2019 13.0208 15.3735C12.9442 15.545 12.8369 15.6876 12.699 15.801C12.5611 15.9145 12.4002 15.9798 12.2163 15.9967C12.0324 16.0137 11.8561 15.9648 11.6876 15.85L7.87167 13.404Z" fill="#F9BB47"/>
<path d="M28.6857 13.404L24.8698 15.85C24.7012 15.9641 24.525 16.013 24.3411 15.9967C24.1572 15.9804 23.9963 15.9152 23.8583 15.801C23.7204 15.6869 23.6131 15.5444 23.5365 15.3735C23.4599 15.2026 23.4446 15.0108 23.4905 14.7982L24.502 10.1753L21.1228 7.06889C20.9696 6.92213 20.874 6.75483 20.836 6.56697C20.798 6.37912 20.8093 6.19584 20.87 6.01712C20.9307 5.8384 21.0226 5.69164 21.1458 5.57684C21.269 5.46204 21.4376 5.38866 21.6516 5.3567L26.1111 4.94089L27.8351 0.587036C27.9118 0.391357 28.0307 0.244598 28.1919 0.146759C28.3531 0.0489195 28.5177 0 28.6857 0C28.8536 0 29.0182 0.0489195 29.1794 0.146759C29.3407 0.244598 29.4596 0.391357 29.5362 0.587036L31.2603 4.94089L35.7198 5.3567C35.9343 5.38932 36.1029 5.46269 36.2255 5.57684C36.3481 5.69099 36.4401 5.83775 36.5014 6.01712C36.5627 6.19649 36.5743 6.3801 36.5363 6.56795C36.4983 6.7558 36.4024 6.92278 36.2485 7.06889L32.8694 10.1753L33.8808 14.7982C33.9268 15.0102 33.9115 15.2019 33.8348 15.3735C33.7582 15.545 33.6509 15.6876 33.513 15.801C33.3751 15.9145 33.2142 15.9798 33.0303 15.9967C32.8464 16.0137 32.6701 15.9648 32.5016 15.85L28.6857 13.404Z" fill="#F9BB47"/>
<path d="M49.4996 13.404L45.6837 15.85C45.5151 15.9641 45.3389 16.013 45.155 15.9967C44.9711 15.9804 44.8102 15.9152 44.6723 15.801C44.5343 15.6869 44.4271 15.5444 44.3504 15.3735C44.2738 15.2026 44.2585 15.0108 44.3045 14.7982L45.3159 10.1753L41.9368 7.06889C41.7835 6.92213 41.6879 6.75483 41.6499 6.56697C41.6119 6.37912 41.6232 6.19584 41.6839 6.01712C41.7446 5.8384 41.8366 5.69164 41.9598 5.57684C42.083 5.46204 42.2516 5.38866 42.4655 5.3567L46.925 4.94089L48.6491 0.587036C48.7257 0.391357 48.8446 0.244598 49.0058 0.146759C49.1671 0.0489195 49.3316 0 49.4996 0C49.6676 0 49.8322 0.0489195 49.9934 0.146759C50.1546 0.244598 50.2735 0.391357 50.3501 0.587036L52.0742 4.94089L56.5337 5.3567C56.7483 5.38932 56.9169 5.46269 57.0395 5.57684C57.1621 5.69099 57.254 5.83775 57.3153 6.01712C57.3766 6.19649 57.3882 6.3801 57.3502 6.56795C57.3122 6.7558 57.2163 6.92278 57.0624 7.06889L53.6833 10.1753L54.6947 14.7982C54.7407 15.0102 54.7254 15.2019 54.6488 15.3735C54.5721 15.545 54.4649 15.6876 54.327 15.801C54.189 15.9145 54.0281 15.9798 53.8442 15.9967C53.6603 16.0137 53.4841 15.9648 53.3155 15.85L49.4996 13.404Z" fill="#F9BB47"/>
<path d="M70.3136 13.404L66.4977 15.85C66.3291 15.9641 66.1529 16.013 65.969 15.9967C65.7851 15.9804 65.6242 15.9152 65.4863 15.801C65.3484 15.6869 65.2411 15.5444 65.1645 15.3735C65.0878 15.2026 65.0725 15.0108 65.1185 14.7982L66.1299 10.1753L62.7508 7.06889C62.5975 6.92213 62.5019 6.75483 62.4639 6.56697C62.4259 6.37912 62.4372 6.19584 62.4979 6.01712C62.5586 5.8384 62.6506 5.69164 62.7738 5.57684C62.897 5.46204 63.0656 5.38866 63.2795 5.3567L67.739 4.94089L69.4631 0.587036C69.5397 0.391357 69.6586 0.244598 69.8199 0.146759C69.9811 0.0489195 70.1457 0 70.3136 0C70.4816 0 70.6462 0.0489195 70.8074 0.146759C70.9686 0.244598 71.0875 0.391357 71.1642 0.587036L72.8882 4.94089L77.3477 5.3567C77.5623 5.38932 77.7309 5.46269 77.8535 5.57684C77.9761 5.69099 78.068 5.83775 78.1293 6.01712C78.1906 6.19649 78.2023 6.3801 78.1643 6.56795C78.1263 6.7558 78.0303 6.92278 77.8764 7.06889L74.4973 10.1753L75.5088 14.7982C75.5547 15.0102 75.5394 15.2019 75.4628 15.3735C75.3862 15.545 75.2789 15.6876 75.141 15.801C75.003 15.9145 74.8421 15.9798 74.6582 15.9967C74.4743 16.0137 74.2981 15.9648 74.1295 15.85L70.3136 13.404Z" fill="#F9BB47"/>
<path d="M91.1276 13.404L87.3117 15.85C87.1431 15.9641 86.9668 16.013 86.7829 15.9967C86.599 15.9804 86.4381 15.9152 86.3002 15.801C86.1623 15.6869 86.055 15.5444 85.9784 15.3735C85.9018 15.2026 85.8864 15.0108 85.9324 14.7982L86.9439 10.1753L83.5647 7.06889C83.4115 6.92213 83.3158 6.75483 83.2778 6.56697C83.2398 6.37912 83.2512 6.19584 83.3119 6.01712C83.3726 5.8384 83.4645 5.69164 83.5877 5.57684C83.7109 5.46204 83.8795 5.38866 84.0934 5.3567L88.553 4.94089L90.277 0.587036C90.3536 0.391357 90.4726 0.244598 90.6338 0.146759C90.795 0.0489195 90.9596 0 91.1276 0C91.2955 0 91.4601 0.0489195 91.6213 0.146759C91.7825 0.244598 91.9015 0.391357 91.9781 0.587036L93.7021 4.94089L98.1617 5.3567C98.3762 5.38932 98.5448 5.46269 98.6674 5.57684C98.79 5.69099 98.8819 5.83775 98.9432 6.01712C99.0045 6.19649 99.0162 6.3801 98.9782 6.56795C98.9402 6.7558 98.8442 6.92278 98.6904 7.06889L95.3112 10.1753L96.3227 14.7982C96.3687 15.0102 96.3533 15.2019 96.2767 15.3735C96.2001 15.545 96.0928 15.6876 95.9549 15.801C95.817 15.9145 95.6561 15.9798 95.4722 15.9967C95.2883 16.0137 95.112 15.9648 94.9434 15.85L91.1276 13.404Z" fill="#F9BB47"/>
</svg>
