<svg width="30" height="30" viewBox="0 0 30 30" fill="none" xmlns="http://www.w3.org/2000/svg">
<g clip-path="url(#clip0_325_19493)">
<mask id="mask0_325_19493" style="mask-type:luminance" maskUnits="userSpaceOnUse" x="0" y="0" width="30" height="30">
<path d="M30 0H0V30H30V0Z" fill="white"/>
</mask>
<g mask="url(#mask0_325_19493)">
<path fill-rule="evenodd" clip-rule="evenodd" d="M0 14.9914C0 6.71114 6.71567 0 15 0C23.2543 0 30 6.74113 30 14.9914C30 23.2716 23.2843 29.9827 15 29.9827C6.71567 29.9827 0 23.2716 0 14.9914ZM29.119 14.9917C29.119 7.20118 22.7992 0.884805 15.001 0.884805C7.17276 0.884805 0.853013 7.19618 0.88308 14.9917C0.88308 22.7873 7.20283 29.0986 15.001 29.0986C22.7992 29.0986 29.119 22.7822 29.119 14.9917Z" fill="black"/>
</g>
<path fill-rule="evenodd" clip-rule="evenodd" d="M24.204 18.8546C24.204 18.3698 23.8081 18 23.352 18C22.8959 18 22.525 18.3449 22.5 18.8546C22.5 19.3393 22.901 19.709 23.352 19.709C23.8031 19.709 24.204 19.3393 24.204 18.8546ZM24.0369 18.8551C24.0369 19.2499 23.7562 19.5647 23.3553 19.5647C22.9844 19.5647 22.6737 19.2549 22.6436 18.8551C22.6436 18.4603 22.9543 18.1455 23.3553 18.1455C23.7262 18.1455 24.0369 18.4553 24.0369 18.8551ZM23.0449 18.3459H23.4107C23.6363 18.3459 23.7515 18.4309 23.7515 18.6307C23.7515 18.8006 23.6362 18.8856 23.4959 18.8856L23.7816 19.3103H23.6112L23.3556 18.8856H23.1852V19.3103H23.0449V18.3459ZM23.3531 18.7699H23.1827V18.46H23.3831C23.4934 18.46 23.6087 18.46 23.6087 18.6C23.6087 18.7699 23.4934 18.7699 23.3531 18.7699Z" fill="black"/>
<path d="M7.28906 11.4355H8.61556V14.8724H10.0385V11.4355H11.365V19.8769H10.0385V16.0783H8.61556V19.8769H7.28906V11.4355Z" fill="black"/>
<path d="M14.0774 19.9974C13.4342 19.9974 12.9478 19.8166 12.6182 19.4548C12.2886 19.085 12.1238 18.5584 12.1238 17.8751V17.3927H13.3779V17.9715C13.3779 18.5182 13.6071 18.7915 14.0653 18.7915C14.2904 18.7915 14.4592 18.7272 14.5718 18.5986C14.6924 18.4619 14.7527 18.2449 14.7527 17.9474C14.7527 17.5937 14.6723 17.2842 14.5115 17.0189C14.3507 16.7455 14.0532 16.4199 13.6191 16.0421C13.0724 15.5597 12.6906 15.1256 12.4735 14.7397C12.2564 14.3458 12.1479 13.9036 12.1479 13.4132C12.1479 12.7459 12.3167 12.2314 12.6544 11.8697C12.992 11.4998 13.4824 11.3149 14.1256 11.3149C14.7607 11.3149 15.239 11.4998 15.5606 11.8697C15.8902 12.2314 16.055 12.754 16.055 13.4373V13.787H14.8009V13.3529C14.8009 13.0635 14.7446 12.8545 14.6321 12.7258C14.5195 12.5892 14.3547 12.5208 14.1377 12.5208C13.6955 12.5208 13.4744 12.7902 13.4744 13.3288C13.4744 13.6343 13.5548 13.9197 13.7156 14.185C13.8844 14.4503 14.1859 14.7719 14.62 15.1497C15.1747 15.6321 15.5566 16.0702 15.7656 16.4641C15.9746 16.8581 16.0792 17.3203 16.0792 17.8509C16.0792 18.5423 15.9063 19.0729 15.5606 19.4427C15.223 19.8125 14.7285 19.9974 14.0774 19.9974Z" fill="black"/>
<path d="M17.8294 11.4355H19.6262L21.0009 19.8769H19.6744L19.4333 18.2006V18.2248H17.9259L17.6847 19.8769H16.4547L17.8294 11.4355ZM19.2765 17.0792L18.6856 12.9067H18.6615L18.0827 17.0792H19.2765Z" fill="black"/>
</g>
<defs>
<clipPath id="clip0_325_19493">
<rect width="30" height="30" fill="white"/>
</clipPath>
</defs>
</svg>
