<svg width="28" height="29" viewBox="0 0 28 29" fill="none" xmlns="http://www.w3.org/2000/svg">
<path d="M10.6504 25.0159H25.528" stroke="white" stroke-width="1.75" stroke-linecap="round" stroke-linejoin="round"/>
<path d="M4.07105 11.9863C2.74585 10.8533 2.16418 10.1609 1.9916 8.49805C1.82804 6.92206 2.55894 5.29706 3.65782 4.46696C5.18597 3.3126 7.00059 4.39869 8.01532 5.92986C9.11495 7.58914 10.0658 12.3859 10.1386 14.443C10.2212 16.7787 9.84131 18.9007 8.86394 20.9309C8.19358 22.3233 7.20308 23.9648 5.88472 24.5207C4.68997 25.0246 3.39166 24.8368 3.15119 23.1321C2.85647 21.0428 3.66855 19.0072 4.55635 17.2805C5.73344 14.9912 7.21992 13.0957 9.27857 11.9863C17.2169 7.70789 12.5293 21.4841 15.1621 21.4841C17.7949 21.4841 17.9648 14.7165 19.8105 15.7983C21.6563 16.8801 18.1276 23.5989 24.7324 19.353" stroke="white" stroke-width="1.75" stroke-linecap="round" stroke-linejoin="round"/>
</svg>
