<svg width="25" height="25" viewBox="0 0 25 25" fill="none" xmlns="http://www.w3.org/2000/svg">
<path d="M13.1735 1.84863H3.34154C2.43653 1.84863 1.70288 2.58228 1.70288 3.48729V21.5125C1.70288 22.4175 2.43653 23.1512 3.34154 23.1512H14.8121C15.7171 23.1512 16.4508 22.4175 16.4508 21.5125V15.7772" stroke="white" stroke-width="1.23529" stroke-linecap="round" stroke-linejoin="round"/>
<path d="M8.25757 19.0542H9.89622" stroke="white" stroke-width="1.23529" stroke-linecap="round" stroke-linejoin="round"/>
<path d="M16.766 4.06808L17.6019 2.03804C17.6491 1.92343 17.7608 1.84863 17.8847 1.84863C18.0086 1.84863 18.1204 1.92343 18.1675 2.03804L19.0034 4.06808C19.3362 4.87621 19.9779 5.51794 20.7861 5.8507L22.8161 6.68662C22.9308 6.73379 23.0055 6.84548 23.0055 6.96943C23.0055 7.09338 22.9308 7.20507 22.8161 7.25225L20.7861 8.08816C19.9779 8.42092 19.3362 9.06265 19.0034 9.87079L18.1675 11.9008C18.1204 12.0154 18.0086 12.0902 17.8847 12.0902C17.7608 12.0902 17.6491 12.0154 17.6019 11.9008L16.766 9.87079C16.4332 9.06265 15.7915 8.42092 14.9834 8.08816L12.9533 7.25225C12.8387 7.20507 12.7639 7.09338 12.7639 6.96943C12.7639 6.84548 12.8387 6.73379 12.9533 6.68662L14.9834 5.8507C15.7915 5.51794 16.4332 4.87621 16.766 4.06808Z" stroke="white" stroke-width="1.23529" stroke-linecap="round" stroke-linejoin="round"/>
</svg>
