<svg width="33" height="33" viewBox="0 0 33 33" fill="none" xmlns="http://www.w3.org/2000/svg">
<path d="M11.1446 3.43555H22.4168C26.711 3.43555 30.2 6.92458 30.2 11.2188V22.491C30.2 24.5553 29.38 26.535 27.9204 27.9946C26.4607 29.4542 24.4811 30.2743 22.4168 30.2743H11.1446C6.85036 30.2743 3.36133 26.7852 3.36133 22.491V11.2188C3.36133 9.15453 4.18134 7.17484 5.64098 5.7152C7.10062 4.25556 9.08031 3.43555 11.1446 3.43555ZM10.8762 6.11942C9.59491 6.11942 8.36614 6.62839 7.46016 7.53438C6.55417 8.44036 6.0452 9.66913 6.0452 10.9504V22.7594C6.0452 25.4299 8.20571 27.5904 10.8762 27.5904H22.6852C23.9664 27.5904 25.1952 27.0814 26.1012 26.1754C27.0072 25.2694 27.5162 24.0407 27.5162 22.7594V10.9504C27.5162 8.27993 25.3556 6.11942 22.6852 6.11942H10.8762ZM23.8258 8.13232C24.2707 8.13232 24.6974 8.30905 25.012 8.62363C25.3265 8.9382 25.5033 9.36486 25.5033 9.80974C25.5033 10.2546 25.3265 10.6813 25.012 10.9959C24.6974 11.3104 24.2707 11.4872 23.8258 11.4872C23.381 11.4872 22.9543 11.3104 22.6397 10.9959C22.3251 10.6813 22.1484 10.2546 22.1484 9.80974C22.1484 9.36486 22.3251 8.9382 22.6397 8.62363C22.9543 8.30905 23.381 8.13232 23.8258 8.13232ZM16.7807 10.1452C18.5602 10.1452 20.2668 10.8521 21.5251 12.1104C22.7834 13.3688 23.4904 15.0754 23.4904 16.8549C23.4904 18.6344 22.7834 20.3411 21.5251 21.5994C20.2668 22.8577 18.5602 23.5646 16.7807 23.5646C15.0012 23.5646 13.2945 22.8577 12.0362 21.5994C10.7779 20.3411 10.071 18.6344 10.071 16.8549C10.071 15.0754 10.7779 13.3688 12.0362 12.1104C13.2945 10.8521 15.0012 10.1452 16.7807 10.1452ZM16.7807 12.8291C15.713 12.8291 14.689 13.2532 13.934 14.0082C13.179 14.7632 12.7549 15.7872 12.7549 16.8549C12.7549 17.9226 13.179 18.9466 13.934 19.7016C14.689 20.4566 15.713 20.8807 16.7807 20.8807C17.8484 20.8807 18.8724 20.4566 19.6274 19.7016C20.3823 18.9466 20.8065 17.9226 20.8065 16.8549C20.8065 15.7872 20.3823 14.7632 19.6274 14.0082C18.8724 13.2532 17.8484 12.8291 16.7807 12.8291Z" fill="black"/>
</svg>
