<svg width="57" height="26" viewBox="0 0 57 26" fill="none" xmlns="http://www.w3.org/2000/svg">
<path d="M48.147 0.0114478C47.146 0.0636125 46.1481 0.250792 45.0615 0.594465C43.1007 1.21124 41.0574 2.23305 37.6932 4.27668C34.0565 6.48601 33.4641 6.83275 32.0544 7.60601C27.9584 9.84603 25.7599 10.6837 23.137 11.009C22.8994 11.0397 21.9966 11.0489 19.5256 11.052C16.399 11.055 15.588 11.0734 14.1245 11.1624C9.81307 11.4232 6.6199 12.0952 4.24085 13.249C1.92517 14.3721 0.550329 15.937 0.13851 17.9254C-0.0737344 18.9564 -0.0420561 20.1102 0.233545 21.1504C0.705553 22.9363 1.93784 24.3877 3.68648 25.2131C4.67801 25.6826 5.52699 25.8974 6.73711 25.9833C8.07076 26.0785 9.95563 25.7624 11.8437 25.1364C12.9397 24.7713 13.7919 24.4184 16.0727 23.3874C16.9787 22.9793 17.9069 22.565 18.1318 22.4668C21.4263 21.0553 24.0778 20.4263 26.7166 20.4263C27.5434 20.4263 28.0186 20.46 29.4726 20.6257C34.2751 21.1688 36.803 21.3652 39.5305 21.399C44.1334 21.4573 47.1587 20.8804 49.7183 19.4597C52.2335 18.0604 54.3401 15.8603 55.6548 13.2613C56.3675 11.8528 56.773 10.5549 56.9599 9.05742C57.0201 8.5818 57.0106 7.26541 56.9441 6.80206C56.5576 4.13246 55.0719 2.13179 52.5788 0.928931C52.2905 0.790848 51.8724 0.609808 51.6475 0.530026C50.5482 0.137257 49.2874 -0.0499225 48.147 0.0114478ZM46.373 3.93301C47.203 3.97596 48.2452 4.28895 49.091 4.75537C50.5546 5.55625 51.4162 6.71001 51.6855 8.21358C51.752 8.57566 51.7583 9.49315 51.7013 9.88592C51.147 13.6602 47.5261 17.4406 43.3509 18.6005C42.087 18.9503 40.7691 19.1068 39.0617 19.1068C37.3194 19.1068 35.9128 18.9963 30.309 18.4195C28.063 18.1862 27.3312 18.1402 26.3682 18.1648C24.8698 18.2047 23.5361 18.401 22.1676 18.7815C20.8276 19.1559 19.7379 19.5886 17.4666 20.6411C16.1202 21.264 15.5564 21.5156 14.8689 21.7917C13.3167 22.4177 11.8088 22.8136 10.7191 22.878C7.78249 23.0529 5.29574 21.3806 4.74771 18.8644C4.65584 18.4471 4.6305 17.7137 4.69385 17.3117C4.90927 15.9677 5.77409 14.9551 7.32949 14.2279C8.97993 13.4546 11.1721 13.0434 14.5838 12.8746C15.5532 12.8256 18.4169 12.8256 20.7294 12.8746C22.6808 12.9145 23.3809 12.9023 24.1919 12.801C26.2415 12.5463 28.5952 11.7424 31.2466 10.3861C32.4504 9.76932 33.2519 9.32745 35.3648 8.11232C37.8769 6.66705 38.8526 6.13313 40.0089 5.57466C41.8082 4.70013 43.1608 4.23065 44.5198 4.00972C44.9158 3.94528 45.6666 3.89005 45.9137 3.90539C45.9834 3.91153 46.1893 3.9238 46.373 3.93301Z" fill="#375469"/>
</svg>
