<svg width="19" height="9" viewBox="0 0 19 9" fill="none" xmlns="http://www.w3.org/2000/svg">
<path d="M15.7841 0.826213C15.469 0.842412 15.1549 0.900537 14.8129 1.00726C14.1957 1.19879 13.5525 1.51609 12.4935 2.1507C11.3488 2.83677 11.1624 2.94444 10.7186 3.18457C9.42935 3.88016 8.73734 4.1403 7.91171 4.2413C7.83692 4.25083 7.55274 4.25369 6.77498 4.25464C5.7908 4.25559 5.53554 4.26131 5.07486 4.28894C3.71776 4.36994 2.71264 4.57862 1.9638 4.9369C1.23489 5.28565 0.802133 5.77161 0.672505 6.38907C0.605697 6.70924 0.615668 7.06752 0.702419 7.39054C0.850992 7.94511 1.23888 8.39582 1.7893 8.65214C2.1014 8.79793 2.36863 8.86463 2.74954 8.89131C3.16933 8.92085 3.76263 8.8227 4.35692 8.62832C4.70193 8.51493 4.97016 8.40535 5.6881 8.08518C5.97328 7.95845 6.26544 7.82981 6.33624 7.79932C7.37326 7.361 8.20786 7.16566 9.03847 7.16566C9.29873 7.16566 9.4483 7.17614 9.90598 7.2276C11.4176 7.39626 12.2134 7.45724 13.0719 7.46772C14.5207 7.48583 15.473 7.30669 16.2787 6.86551C17.0704 6.431 17.7335 5.74779 18.1473 4.94071C18.3717 4.50334 18.4993 4.10028 18.5581 3.63528C18.5771 3.48758 18.5741 3.0788 18.5531 2.93492C18.4315 2.10592 17.9638 1.48465 17.1791 1.11112C17.0883 1.06824 16.9567 1.01202 16.8859 0.987248C16.5399 0.865281 16.1431 0.807156 15.7841 0.826213ZM15.2257 2.04398C15.4869 2.05732 15.815 2.15451 16.0812 2.29935C16.5419 2.54805 16.8131 2.90633 16.8979 3.37324C16.9188 3.48567 16.9208 3.77058 16.9029 3.89255C16.7284 5.06458 15.5887 6.23852 14.2744 6.5987C13.8766 6.70733 13.4618 6.75593 12.9243 6.75593C12.3759 6.75593 11.9332 6.72162 10.1692 6.54248C9.46226 6.47007 9.23192 6.45577 8.92879 6.4634C8.45714 6.47578 8.03735 6.53677 7.60659 6.65492C7.1848 6.77117 6.84178 6.90553 6.12684 7.23236C5.70305 7.42579 5.52556 7.50393 5.30919 7.58969C4.82059 7.78407 4.34595 7.90699 4.00294 7.927C3.07859 7.98132 2.29584 7.462 2.12334 6.68065C2.09442 6.55106 2.08644 6.32332 2.10639 6.1985C2.17419 5.78114 2.44641 5.46669 2.936 5.24086C3.45551 5.00074 4.14553 4.87305 5.21944 4.82065C5.52457 4.8054 6.42598 4.8054 7.15389 4.82065C7.76812 4.83303 7.98849 4.82922 8.24376 4.79778C8.8889 4.71869 9.62977 4.46904 10.4644 4.04787C10.8433 3.85634 11.0956 3.71913 11.7607 3.34179C12.5514 2.89299 12.8585 2.72719 13.2225 2.55377C13.7888 2.2822 14.2146 2.13641 14.6424 2.0678C14.767 2.04779 15.0033 2.03064 15.0811 2.03541C15.1031 2.03731 15.1679 2.04112 15.2257 2.04398Z" fill="white"/>
</svg>
