<svg width="19" height="9" viewBox="0 0 19 9" fill="none" xmlns="http://www.w3.org/2000/svg">
<path d="M15.4091 0.606975C15.094 0.623174 14.7799 0.681299 14.4379 0.78802C13.8207 0.979547 13.1775 1.29685 12.1185 1.93146C10.9738 2.61753 10.7874 2.72521 10.3436 2.96533C9.05435 3.66092 8.36234 3.92106 7.53671 4.02206C7.46192 4.03159 7.17774 4.03445 6.39998 4.0354C5.4158 4.03636 5.16054 4.04207 4.69986 4.06971C3.34276 4.1507 2.33764 4.35938 1.5888 4.71766C0.85989 5.06641 0.427133 5.55237 0.297505 6.16983C0.230697 6.49 0.240668 6.84828 0.327419 7.1713C0.475992 7.72587 0.863878 8.17658 1.4143 8.4329C1.7264 8.57869 1.99363 8.64539 2.37454 8.67207C2.79433 8.70161 3.38763 8.60346 3.98192 8.40908C4.32693 8.29569 4.59516 8.18611 5.3131 7.86594C5.59828 7.73921 5.89044 7.61057 5.96124 7.58008C6.99826 7.14176 7.83286 6.94642 8.66347 6.94642C8.92373 6.94642 9.0733 6.9569 9.53098 7.00836C11.0426 7.17702 11.8384 7.238 12.6969 7.24848C14.1457 7.26659 15.098 7.08745 15.9037 6.64627C16.6954 6.21176 17.3585 5.52855 17.7723 4.72147C17.9967 4.2841 18.1243 3.88104 18.1831 3.41604C18.2021 3.26834 18.1991 2.85956 18.1781 2.71568C18.0565 1.88668 17.5888 1.26541 16.8041 0.891883C16.7133 0.849003 16.5817 0.792785 16.5109 0.76801C16.1649 0.646042 15.7681 0.587917 15.4091 0.606975ZM14.8507 1.82474C15.1119 1.83808 15.44 1.93528 15.7062 2.08011C16.1669 2.32881 16.4381 2.68709 16.5229 3.154C16.5438 3.26644 16.5458 3.55134 16.5279 3.67331C16.3534 4.84534 15.2137 6.01928 13.8994 6.37946C13.5016 6.48809 13.0868 6.53669 12.5493 6.53669C12.0009 6.53669 11.5582 6.50238 9.79422 6.32325C9.08726 6.25083 8.85692 6.23653 8.55379 6.24416C8.08214 6.25654 7.66235 6.31753 7.23159 6.43568C6.8098 6.55193 6.46678 6.68629 5.75184 7.01312C5.32805 7.20656 5.15056 7.28469 4.93419 7.37045C4.44559 7.56484 3.97095 7.68776 3.62794 7.70777C2.70359 7.76208 1.92084 7.24277 1.74834 6.46141C1.71942 6.33182 1.71144 6.10408 1.73139 5.97926C1.79919 5.5619 2.07141 5.24745 2.561 5.02162C3.08051 4.7815 3.77053 4.65382 4.84444 4.60141C5.14957 4.58616 6.05098 4.58616 6.77889 4.60141C7.39312 4.6138 7.61349 4.60998 7.86876 4.57854C8.5139 4.49945 9.25477 4.2498 10.0894 3.82863C10.4683 3.6371 10.7206 3.49989 11.3857 3.12255C12.1764 2.67375 12.4835 2.50795 12.8475 2.33453C13.4138 2.06296 13.8396 1.91717 14.2674 1.84856C14.392 1.82855 14.6283 1.8114 14.7061 1.81617C14.7281 1.81807 14.7929 1.82188 14.8507 1.82474Z" fill="#A8AAAE"/>
</svg>
