<svg width="86" height="41" viewBox="0 0 86 41" fill="none" xmlns="http://www.w3.org/2000/svg">
<path d="M72.6429 0.0180514C71.1325 0.100311 69.627 0.395478 67.9876 0.937425C65.0291 1.91003 61.9463 3.52135 56.8704 6.74399C51.3835 10.2279 50.4897 10.7747 48.3628 11.9941C42.1829 15.5264 38.8659 16.8474 34.9084 17.3603C34.55 17.4087 33.1878 17.4232 29.4597 17.4281C24.7423 17.4329 23.5188 17.462 21.3106 17.6023C14.8057 18.0136 9.98791 19.0733 6.39848 20.8927C2.90464 22.6637 0.83032 25.1315 0.208981 28.267C-0.111248 29.8929 -0.063453 31.7122 0.352367 33.3526C1.06452 36.1688 2.92376 38.4575 5.56206 39.7592C7.05806 40.4995 8.33897 40.8382 10.1648 40.9737C12.1769 41.1237 15.0208 40.6253 17.8694 39.6382C19.5231 39.0624 20.8088 38.5059 24.2501 36.8801C25.617 36.2365 27.0174 35.5833 27.3568 35.4284C32.3275 33.2026 36.3279 32.2106 40.3093 32.2106C41.5568 32.2106 42.2737 32.2639 44.4675 32.5252C51.7133 33.3816 55.5273 33.6913 59.6425 33.7445C66.5872 33.8365 71.1516 32.9268 75.0135 30.6864C78.8085 28.4799 81.9869 25.0105 83.9704 20.912C85.0458 18.691 85.6575 16.6442 85.9395 14.2829C86.0304 13.5328 86.016 11.457 85.9156 10.7263C85.3325 6.51657 83.0909 3.36167 79.3294 1.46485C78.8945 1.24711 78.2636 0.961619 77.9243 0.83581C76.2658 0.216442 74.3635 -0.0787248 72.6429 0.0180514ZM69.9663 6.20205C71.2186 6.26979 72.791 6.76335 74.0672 7.49885C76.2753 8.76178 77.5753 10.5812 77.9816 12.9522C78.082 13.5232 78.0915 14.97 78.0055 15.5893C77.1691 21.5411 71.7061 27.5025 65.4066 29.3315C63.4996 29.8832 61.5113 30.13 58.9352 30.13C56.3064 30.13 54.1843 29.9558 45.7293 29.0461C42.3406 28.6783 41.2365 28.6057 39.7835 28.6444C37.5228 28.7073 35.5106 29.017 33.4459 29.617C31.4241 30.2074 29.78 30.8896 26.353 32.5494C24.3217 33.5316 23.471 33.9284 22.4338 34.3639C20.0919 35.351 17.8168 35.9752 16.1726 36.0768C11.742 36.3527 7.99007 33.7155 7.16321 29.7477C7.0246 29.0896 6.98636 27.9331 7.08195 27.2992C7.40696 25.1799 8.71178 23.583 11.0585 22.4362C13.5487 21.2169 16.8561 20.5685 22.0037 20.3023C23.4662 20.2249 27.7869 20.2249 31.276 20.3023C34.2202 20.3652 35.2764 20.3459 36.5 20.1862C39.5924 19.7846 43.1436 18.5168 47.144 16.3781C48.9603 15.4055 50.1695 14.7087 53.3574 12.7925C57.1476 10.5134 58.6197 9.67147 60.3642 8.79081C63.079 7.41175 65.1199 6.67141 67.1703 6.32302C67.7677 6.2214 68.9005 6.1343 69.2733 6.1585C69.3784 6.16817 69.6891 6.18753 69.9663 6.20205Z" fill="#222222"/>
</svg>
