<svg width="32" height="32" viewBox="0 0 32 32" fill="none" xmlns="http://www.w3.org/2000/svg">
<path d="M21 3.28125H10.5C7.49437 3.28125 5.90625 4.86937 5.90625 7.875V23.625C5.90625 26.6306 7.49437 28.2188 10.5 28.2188H21C24.0056 28.2188 25.5938 26.6306 25.5938 23.625V7.875C25.5938 4.86937 24.0056 3.28125 21 3.28125ZM24.2812 23.625C24.2812 25.8943 23.2693 26.9062 21 26.9062H10.5C8.23069 26.9062 7.21875 25.8943 7.21875 23.625V7.875C7.21875 5.60569 8.23069 4.59375 10.5 4.59375H21C23.2693 4.59375 24.2812 5.60569 24.2812 7.875V23.625ZM18.375 7.875C18.375 8.23725 18.081 8.53125 17.7188 8.53125H13.7812C13.419 8.53125 13.125 8.23725 13.125 7.875C13.125 7.51275 13.419 7.21875 13.7812 7.21875H17.7188C18.081 7.21875 18.375 7.51275 18.375 7.875ZM16.7344 23.625C16.7344 24.1684 16.2934 24.6094 15.75 24.6094C15.2066 24.6094 14.7656 24.1684 14.7656 23.625C14.7656 23.0816 15.2066 22.6406 15.75 22.6406C16.2934 22.6406 16.7344 23.0816 16.7344 23.625Z" fill="black"/>
</svg>
