<svg width="32" height="32" viewBox="0 0 32 32" fill="none" xmlns="http://www.w3.org/2000/svg">
<path d="M17.0449 2.41943H4.50921C3.35533 2.41943 2.41992 3.35484 2.41992 4.50872V27.4909C2.41992 28.6448 3.35533 29.5801 4.50921 29.5801H19.1342C20.2881 29.5801 21.2235 28.6448 21.2235 27.4909V20.1784" stroke="black" stroke-width="2.25" stroke-linecap="round" stroke-linejoin="round"/>
<path d="M10.7773 24.3569H12.8666" stroke="black" stroke-width="2.25" stroke-linecap="round" stroke-linejoin="round"/>
<path d="M21.6251 5.24922L22.6909 2.66092C22.751 2.5148 22.8935 2.41943 23.0515 2.41943C23.2094 2.41943 23.3519 2.5148 23.4121 2.66092L24.4778 5.24922C24.9022 6.2796 25.7203 7.0978 26.7508 7.52208L29.339 8.58786C29.4852 8.64801 29.5805 8.79042 29.5805 8.94845C29.5805 9.10649 29.4852 9.24889 29.339 9.30904L26.7508 10.3748C25.7203 10.7991 24.9022 11.6173 24.4778 12.6477L23.4121 15.236C23.3519 15.3821 23.2094 15.4775 23.0515 15.4775C22.8935 15.4775 22.751 15.3821 22.6909 15.236L21.6251 12.6477C21.2008 11.6173 20.3826 10.7991 19.3523 10.3748L16.7639 9.30904C16.6178 9.24889 16.5225 9.10649 16.5225 8.94845C16.5225 8.79042 16.6178 8.64801 16.7639 8.58786L19.3523 7.52208C20.3826 7.0978 21.2008 6.2796 21.6251 5.24922Z" stroke="black" stroke-width="2.25" stroke-linecap="round" stroke-linejoin="round"/>
</svg>
