<svg width="33" height="32" viewBox="0 0 33 32" fill="none" xmlns="http://www.w3.org/2000/svg">
<path d="M5.16225 10.7566L13.1285 2.79025C13.9153 2.00351 15.1908 2.00351 15.9776 2.79025C16.4539 3.26654 16.6606 3.94935 16.5285 4.60986L16.1708 6.39857C16.071 6.89767 16.2272 7.41363 16.5871 7.77354C16.9141 8.10054 17.372 8.26117 17.8316 8.2101L19.4201 8.0336C20.0299 7.96585 20.6373 8.17895 21.0711 8.61271C21.3372 8.87884 21.5237 9.21404 21.6094 9.58053L23.6522 18.3096C23.8324 19.08 24.2244 19.7846 24.7837 20.344L28.013 23.5732C29.4365 24.9967 29.4365 27.3045 28.013 28.7278C27.3295 29.4114 26.4025 29.7954 25.4357 29.7954H21.7145C19.4628 29.7954 17.3034 28.901 15.7113 27.3087L5.16225 16.7597C3.50451 15.102 3.50451 12.4143 5.16225 10.7566Z" stroke="black" stroke-width="2.28571" stroke-linecap="round" stroke-linejoin="round"/>
<path d="M24.0291 29.7964L9.23497 15.0022C8.43897 14.2062 7.35938 13.759 6.23368 13.7589L4.05566 13.7588" stroke="black" stroke-width="2.28571" stroke-linecap="round" stroke-linejoin="round"/>
</svg>
