<svg width="32" height="32" viewBox="0 0 32 32" fill="none" xmlns="http://www.w3.org/2000/svg">
<path d="M26.446 3.46436H5.55315C4.39928 3.46436 3.46387 4.39977 3.46387 5.55364V26.4465C3.46387 27.6004 4.39928 28.5358 5.55315 28.5358H26.446C27.5999 28.5358 28.5353 27.6004 28.5353 26.4465V5.55364C28.5353 4.39977 27.5999 3.46436 26.446 3.46436Z" stroke="black" stroke-width="2.25" stroke-linecap="round" stroke-linejoin="round"/>
<path d="M3.46387 10.7766C3.46387 10.7766 6.5978 13.9105 10.7764 13.9105C14.9549 13.9105 17.0442 9.73193 21.2228 9.73193C25.4014 9.73193 28.5353 12.8659 28.5353 12.8659" stroke="black" stroke-width="2.25" stroke-linecap="round" stroke-linejoin="round"/>
<path d="M3.46387 19.134C3.46387 19.134 6.5978 22.2679 10.7764 22.2679C14.9549 22.2679 17.0442 18.0894 21.2228 18.0894C25.4014 18.0894 28.5353 21.2233 28.5353 21.2233" stroke="black" stroke-width="2.25" stroke-linecap="round" stroke-linejoin="round"/>
</svg>
