<svg width="85" height="20" viewBox="0 0 85 20" fill="none" xmlns="http://www.w3.org/2000/svg">
<path d="M9.69812 13.9598L13.0527 15.9888C13.667 16.3606 14.4188 15.8109 14.2571 15.1158L13.368 11.3004L16.3345 8.72992C16.8761 8.26109 16.5851 7.37192 15.8738 7.31534L11.9695 6.98392L10.4418 3.37876C10.167 2.72401 9.22929 2.72401 8.95446 3.37876L7.42671 6.97584L3.52246 7.30726C2.81112 7.36384 2.52012 8.25301 3.06171 8.72184L6.02829 11.2923L5.13912 15.1077C4.97746 15.8028 5.72921 16.3525 6.34354 15.9807L9.69812 13.9598Z" fill="#F5A411"/>
<path d="M26.1044 13.9598L29.459 15.9888C30.0733 16.3606 30.825 15.8109 30.6634 15.1158L29.7742 11.3004L32.7408 8.72992C33.2824 8.26109 32.9914 7.37192 32.28 7.31534L28.3758 6.98392L26.848 3.37876C26.5732 2.72401 25.6355 2.72401 25.3607 3.37876L23.833 6.97584L19.9287 7.30726C19.2174 7.36384 18.9264 8.25301 19.468 8.72184L22.4345 11.2923L21.5454 15.1077C21.3837 15.8028 22.1355 16.3525 22.7498 15.9807L26.1044 13.9598Z" fill="#F5A411"/>
<path d="M42.5028 13.9598L45.8574 15.9888C46.4717 16.3606 47.2235 15.8109 47.0618 15.1158L46.1726 11.3004L49.1392 8.72992C49.6808 8.26109 49.3898 7.37192 48.6785 7.31534L44.7742 6.98392L43.2465 3.37876C42.9716 2.72401 42.034 2.72401 41.7591 3.37876L40.2314 6.97584L36.3271 7.30726C35.6158 7.36384 35.3248 8.25301 35.8664 8.72184L38.833 11.2923L37.9438 15.1077C37.7821 15.8028 38.5339 16.3525 39.1482 15.9807L42.5028 13.9598Z" fill="#F5A411"/>
<path d="M58.9012 13.9598L62.2558 15.9888C62.8702 16.3606 63.6219 15.8109 63.4602 15.1158L62.5711 11.3004L65.5377 8.72992C66.0792 8.26109 65.7882 7.37192 65.0769 7.31534L61.1727 6.98392L59.6449 3.37876C59.3701 2.72401 58.4324 2.72401 58.1576 3.37876L56.6298 6.97584L52.7256 7.30726C52.0142 7.36384 51.7232 8.25301 52.2648 8.72184L55.2314 11.2923L54.3422 15.1077C54.1806 15.8028 54.9323 16.3525 55.5467 15.9807L58.9012 13.9598Z" fill="#F5A411"/>
<path d="M75.2997 13.9598L78.6543 15.9888C79.2686 16.3606 80.0204 15.8109 79.8587 15.1158L78.9695 11.3004L81.9361 8.72992C82.4777 8.26109 82.1867 7.37192 81.4754 7.31534L77.5711 6.98392L76.0434 3.37876C75.7685 2.72401 74.8309 2.72401 74.556 3.37876L73.0283 6.97584L69.124 7.30726C68.4127 7.36384 68.1217 8.25301 68.6633 8.72184L71.6299 11.2923L70.7407 15.1077C70.579 15.8028 71.3308 16.3525 71.9451 15.9807L75.2997 13.9598Z" fill="#F5A411"/>
</svg>
