<svg width="32" height="32" viewBox="0 0 32 32" fill="none" xmlns="http://www.w3.org/2000/svg">
<path d="M24.8793 18.6118L22.79 20.7011" stroke="black" stroke-width="2.25" stroke-linecap="round" stroke-linejoin="round"/>
<path d="M13.3881 7.12061L11.2988 9.20989" stroke="black" stroke-width="2.25" stroke-linecap="round" stroke-linejoin="round"/>
<path d="M15.4375 21.7058L22.2676 28.5359L28.5355 22.268L21.7083 15.4409L15.4375 21.7058Z" stroke="black" stroke-width="2.25" stroke-linecap="round" stroke-linejoin="round"/>
<path d="M16.5255 10.2581L9.73172 3.46436L3.46387 9.73221L10.2403 16.5086L16.5255 10.2581Z" stroke="black" stroke-width="2.25" stroke-linecap="round" stroke-linejoin="round"/>
<path d="M9.72503 27.4128L3.45996 28.5358L4.50413 22.2133L22.7385 4.07955C22.9328 3.88462 23.1637 3.72988 23.4182 3.62431C23.6727 3.51872 23.9457 3.46436 24.2213 3.46436C24.4971 3.46436 24.77 3.51872 25.0244 3.62431C25.2789 3.72988 25.51 3.88462 25.7041 4.07955L27.9177 6.2841C28.1134 6.47744 28.2689 6.70745 28.3748 6.9609C28.4809 7.21433 28.5355 7.48617 28.5355 7.76072C28.5355 8.03527 28.4809 8.30711 28.3748 8.56054C28.2689 8.81399 28.1134 9.044 27.9177 9.23734L9.72503 27.4128Z" stroke="black" stroke-width="2.25" stroke-linecap="round" stroke-linejoin="round"/>
</svg>
