<svg width="25" height="25" viewBox="0 0 25 25" fill="none" xmlns="http://www.w3.org/2000/svg">
<g clip-path="url(#clip0_802_13800)">
<path fill-rule="evenodd" clip-rule="evenodd" d="M21.0297 12.2455C21.1701 12.3862 21.249 12.5768 21.249 12.7755C21.249 12.9743 21.1701 13.1649 21.0297 13.3055L15.0297 19.3055C14.961 19.3792 14.8782 19.4383 14.7862 19.4793C14.6942 19.5203 14.5949 19.5424 14.4942 19.5441C14.3935 19.5459 14.2935 19.5274 14.2001 19.4897C14.1067 19.4519 14.0219 19.3958 13.9506 19.3246C13.8794 19.2534 13.8233 19.1685 13.7856 19.0751C13.7478 18.9818 13.7293 18.8817 13.7311 18.781C13.7329 18.6803 13.7549 18.581 13.7959 18.489C13.8369 18.397 13.896 18.3142 13.9697 18.2455L18.6897 13.5255L4.49968 13.5255C4.30077 13.5255 4.11 13.4465 3.96935 13.3059C3.8287 13.1652 3.74968 12.9745 3.74968 12.7755C3.74968 12.5766 3.8287 12.3859 3.96935 12.2452C4.11 12.1046 4.30077 12.0255 4.49968 12.0255L18.6897 12.0255L13.9697 7.30554C13.896 7.23688 13.8369 7.15408 13.7959 7.06208C13.7549 6.97008 13.7329 6.87077 13.7311 6.77007C13.7293 6.66936 13.7478 6.56933 13.7856 6.47595C13.8233 6.38256 13.8794 6.29772 13.9506 6.22651C14.0219 6.15529 14.1067 6.09914 14.2001 6.06142C14.2935 6.0237 14.3935 6.00518 14.4942 6.00695C14.5949 6.00873 14.6942 6.03077 14.7862 6.07176C14.8782 6.11275 14.961 6.17186 15.0297 6.24554L21.0297 12.2455Z" fill="#202124"/>
</g>
<defs>
<clipPath id="clip0_802_13800">
<rect width="24" height="24" fill="white" transform="translate(0.5 0.775391)"/>
</clipPath>
</defs>
</svg>
