<svg width="233" height="22" viewBox="0 0 233 22" fill="none" xmlns="http://www.w3.org/2000/svg">
<rect x="0.610114" y="0.879646" width="33.3692" height="19.8411" rx="3.15654" fill="white"/>
<rect x="0.610114" y="0.879646" width="33.3692" height="19.8411" rx="3.15654" stroke="#DFE1ED" stroke-width="0.901869"/>
<g clip-path="url(#clip0_802_13261)">
<path d="M13.1875 6.15771H18.1631V15.0981H13.1875V6.15771Z" fill="#FF5F00"/>
<path d="M13.5028 10.6255C13.5028 8.80896 14.3557 7.19776 15.6667 6.15521C14.7033 5.39703 13.487 4.93896 12.1602 4.93896C9.01672 4.93896 6.47363 7.48205 6.47363 10.6255C6.47363 13.7689 9.01672 16.3119 12.1601 16.3119C13.487 16.3119 14.7032 15.8539 15.6667 15.0956C14.3557 14.0689 13.5028 12.4419 13.5028 10.6255Z" fill="#EB001B"/>
<path d="M24.8757 10.6255C24.8757 13.7688 22.3326 16.3119 19.1892 16.3119C17.8624 16.3119 16.6462 15.8539 15.6826 15.0956C17.0095 14.0531 17.8466 12.4419 17.8466 10.6255C17.8466 8.80896 16.9936 7.19776 15.6826 6.15521C16.6461 5.39703 17.8624 4.93896 19.1892 4.93896C22.3326 4.93896 24.8757 7.49788 24.8757 10.6255Z" fill="#F79E1B"/>
</g>
<rect x="40.2927" y="0.879646" width="33.3692" height="19.8411" rx="3.15654" fill="white"/>
<rect x="40.2927" y="0.879646" width="33.3692" height="19.8411" rx="3.15654" stroke="#DFE1ED" stroke-width="0.901869"/>
<g clip-path="url(#clip1_802_13261)">
<path d="M58.9511 6.54286C58.535 6.06857 57.7828 5.86523 56.8205 5.86523H54.0277C53.9325 5.86522 53.8404 5.89918 53.768 5.96101C53.6956 6.02283 53.6476 6.10847 53.6327 6.20251L52.4698 13.5777C52.4467 13.7232 52.5593 13.8549 52.7067 13.8549H54.4309L54.8639 11.1083L54.8505 11.1943C54.8813 11.0002 55.0474 10.857 55.244 10.857H56.0633C57.6729 10.857 58.9332 10.2032 59.3014 8.31202C59.3123 8.25608 59.3218 8.20164 59.3299 8.14846C59.2835 8.12385 59.2835 8.12385 59.3299 8.14846C59.4396 7.44945 59.3292 6.97364 58.9511 6.54286Z" fill="#27346A"/>
<path d="M55.5237 7.89665C55.5708 7.87417 55.6223 7.86254 55.6746 7.86261H57.8641C58.1233 7.86261 58.3652 7.87948 58.5862 7.91505C58.648 7.92491 58.7095 7.93668 58.7706 7.95034C58.8572 7.96946 58.9429 7.99285 59.0272 8.02043C59.1358 8.05672 59.237 8.09897 59.33 8.14846C59.4396 7.44918 59.3292 6.97364 58.9511 6.54286C58.5347 6.06857 57.7828 5.86523 56.8205 5.86523H54.0275C53.8308 5.86523 53.6635 6.0084 53.6327 6.20251L52.4698 13.5775C52.4467 13.7231 52.5593 13.8547 52.7065 13.8547H54.4309L55.3293 8.15765C55.3381 8.10166 55.3604 8.04865 55.3943 8.00319C55.4281 7.95772 55.4725 7.92116 55.5237 7.89665Z" fill="#27346A"/>
<path d="M59.3017 8.31883C58.9336 10.2098 57.6733 10.8638 56.0637 10.8638H55.2441C55.0475 10.8638 54.8814 11.007 54.8509 11.2011L54.3122 14.6162C54.2921 14.7434 54.3905 14.8588 54.5193 14.8588H55.9727C56.056 14.8587 56.1365 14.829 56.1998 14.7749C56.2631 14.7208 56.305 14.6459 56.318 14.5637L56.3322 14.4896L56.6061 12.7535L56.6238 12.6576C56.6368 12.5753 56.6787 12.5005 56.742 12.4464C56.8053 12.3923 56.8858 12.3626 56.969 12.3625H57.1866C58.5945 12.3625 59.697 11.7905 60.0191 10.1362C60.1536 9.44489 60.084 8.86769 59.7283 8.46227C59.6204 8.33947 59.4864 8.23805 59.3303 8.15527C59.3219 8.20873 59.3127 8.2629 59.3017 8.31883Z" fill="#2790C3"/>
<path d="M58.9455 7.99848C58.8881 7.98171 58.8301 7.96687 58.7717 7.95398C58.7106 7.94054 58.6491 7.92885 58.5873 7.91892C58.366 7.88311 58.1244 7.86621 57.8649 7.86621H55.6756C55.6234 7.86612 55.5718 7.87785 55.5247 7.90052C55.4736 7.92495 55.4291 7.96148 55.3952 8.00696C55.3614 8.05244 55.3391 8.1055 55.3303 8.16153L54.865 11.112L54.8516 11.198C54.8822 11.0038 55.0482 10.8606 55.2449 10.8606H56.0644C57.674 10.8606 58.9343 10.2069 59.3024 8.31565C59.3134 8.25972 59.3226 8.20552 59.331 8.15209C59.2378 8.10292 59.1369 8.06032 59.0282 8.02431C59.0008 8.01522 58.9732 8.0066 58.9455 7.99848" fill="#1F264F"/>
</g>
<rect x="79.9744" y="0.879646" width="33.3692" height="19.8411" rx="3.15654" fill="white"/>
<rect x="79.9744" y="0.879646" width="33.3692" height="19.8411" rx="3.15654" stroke="#DFE1ED" stroke-width="0.901869"/>
<g clip-path="url(#clip2_802_13261)">
<path d="M93.2859 7.78313L90.104 15.3738H88.0281L86.4623 9.31574C86.3674 8.94351 86.2849 8.80652 85.996 8.64912C85.5238 8.39261 84.744 8.15271 84.0586 8.00348L84.1048 7.78313H87.4469C87.8722 7.78313 88.2551 8.06632 88.3525 8.55665L89.1799 12.9495L91.2225 7.78313H93.2859ZM96.0921 7.78313L94.4684 15.3738H92.5045L94.1283 7.78313H96.0921ZM101.419 12.8955C101.428 10.8925 98.6498 10.7813 98.6679 9.88639C98.6746 9.61431 98.9337 9.32467 99.5011 9.25062C99.7821 9.21426 100.558 9.1853 101.438 9.59048L101.782 7.97984C101.309 7.80896 100.701 7.64453 99.945 7.64453C98.0036 7.64453 96.638 8.6757 96.627 10.1534C96.6143 11.2465 97.6025 11.8557 98.3456 12.2198C99.1111 12.5915 99.3678 12.8305 99.3643 13.1627C99.3588 13.6721 98.7529 13.8975 98.1897 13.9059C97.202 13.9215 96.6294 13.6389 96.1727 13.4262L95.8162 15.0902C96.2757 15.3007 97.1225 15.4837 97.9996 15.493C100.063 15.493 101.413 14.4736 101.419 12.8955ZM106.546 15.3739H108.362L106.775 7.78313H105.1C104.722 7.78313 104.405 8.00243 104.264 8.33954L101.317 15.3738H103.379L103.788 14.2399H106.308L106.546 15.3739ZM104.354 12.6846L105.388 9.83398L105.982 12.6846H104.354Z" fill="#1A1F71"/>
</g>
<rect x="119.657" y="0.879646" width="33.3692" height="19.8411" rx="3.15654" fill="white"/>
<rect x="119.657" y="0.879646" width="33.3692" height="19.8411" rx="3.15654" stroke="#DFE1ED" stroke-width="0.901869"/>
<g clip-path="url(#clip3_802_13261)">
<path d="M139.33 10.7941C139.329 10.108 139.12 9.43827 138.731 8.87307C138.342 8.30786 137.792 7.87359 137.151 7.62737V13.9607C137.792 13.7149 138.343 13.2807 138.732 12.7154C139.121 12.1501 139.329 11.4803 139.33 10.7941ZM134.722 13.9596V7.62794C134.082 7.87439 133.531 8.30869 133.143 8.87376C132.754 9.43884 132.545 10.1083 132.544 10.7941C132.546 11.4798 132.754 12.1491 133.143 12.714C133.531 13.279 134.082 13.7132 134.722 13.9596ZM135.937 5.4409C134.517 5.44105 133.156 6.00511 132.152 7.00901C131.148 8.0129 130.584 9.37441 130.584 10.7941C130.585 12.2134 131.148 13.5746 132.152 14.5782C133.156 15.5817 134.517 16.1455 135.936 16.1455C136.639 16.1456 137.335 16.0072 137.985 15.7383C138.634 15.4694 139.224 15.0753 139.721 14.5784C140.218 14.0814 140.612 13.4915 140.881 12.8422C141.15 12.1928 141.289 11.4969 141.289 10.7941C141.289 9.37455 140.725 8.0133 139.721 7.0095C138.717 6.0057 137.356 5.4415 135.936 5.4409H135.937ZM135.924 16.6511C132.689 16.6664 130.026 14.0453 130.026 10.8549C130.026 7.36865 132.689 4.95671 135.924 4.95728H137.44C140.636 4.95728 143.554 7.36752 143.554 10.8549C143.554 14.0442 140.637 16.6511 137.44 16.6511" fill="#3086C8"/>
</g>
<rect x="159.339" y="0.879646" width="33.3692" height="19.8411" rx="3.15654" fill="white"/>
<rect x="159.339" y="0.879646" width="33.3692" height="19.8411" rx="3.15654" stroke="#DFE1ED" stroke-width="0.901869"/>
<g clip-path="url(#clip4_802_13261)">
<path d="M176.253 8.56641C175.112 8.56641 174.187 9.43445 174.187 10.5058C174.187 11.6448 175.072 12.4962 176.253 12.4962C177.404 12.4962 178.313 11.6335 178.313 10.5281C178.313 9.42931 177.41 8.56641 176.253 8.56641Z" fill="url(#paint0_linear_802_13261)"/>
<path d="M176.253 8.56641C175.112 8.56641 174.187 9.43445 174.187 10.5058C174.187 11.6448 175.072 12.4962 176.253 12.4962C177.404 12.4962 178.313 11.6335 178.313 10.5281C178.313 9.42931 177.41 8.56641 176.253 8.56641Z" fill="#FF8001"/>
<path d="M164.524 8.63736H163.413V12.4114H164.518C165.104 12.4114 165.528 12.2761 165.9 11.9759C166.341 11.6194 166.603 11.0818 166.603 10.5262C166.603 9.41195 165.749 8.63736 164.524 8.63736ZM165.407 11.4719C165.168 11.6817 164.861 11.7725 164.372 11.7725H164.169V9.27643H164.372C164.861 9.27643 165.156 9.3614 165.407 9.58185C165.668 9.80824 165.824 10.1588 165.824 10.5208C165.824 10.8836 165.668 11.2464 165.407 11.4719ZM166.952 12.4114H167.707V8.63736H166.952L166.952 12.4114ZM169.555 10.085C169.101 9.92129 168.967 9.81329 168.967 9.6103C168.967 9.37243 169.205 9.1915 169.531 9.1915C169.757 9.1915 169.943 9.28199 170.141 9.49637L170.536 8.99352C170.211 8.71566 169.822 8.57439 169.397 8.57439C168.712 8.57439 168.189 9.03865 168.189 9.65487C168.189 10.1759 168.433 10.4417 169.142 10.6913C169.438 10.7926 169.589 10.8602 169.665 10.9064C169.816 11.0026 169.891 11.138 169.891 11.2963C169.891 11.6024 169.641 11.8284 169.304 11.8284C168.944 11.8284 168.654 11.6532 168.479 11.325L167.992 11.7839C168.34 12.2812 168.758 12.5026 169.334 12.5026C170.118 12.5026 170.669 11.9926 170.669 11.2628C170.669 10.6628 170.415 10.391 169.555 10.085ZM170.908 10.5262C170.908 11.6366 171.802 12.4965 172.953 12.4965C173.278 12.4965 173.557 12.4339 173.9 12.276V11.4097C173.598 11.7043 173.33 11.8228 172.987 11.8228C172.227 11.8228 171.686 11.2851 171.686 10.5208C171.686 9.79679 172.244 9.22514 172.953 9.22514C173.313 9.22514 173.586 9.34954 173.9 9.64945V8.78326C173.569 8.61971 173.295 8.55225 172.97 8.55225C171.826 8.55225 170.908 9.42956 170.908 10.5262ZM180.022 11.1725L178.988 8.63736H178.163L179.808 12.5078H180.214L181.888 8.63731H181.069L180.022 11.1725ZM182.231 12.4114H184.374V11.7725H182.986V10.7531H184.321V10.1141H182.986V9.27638H184.374V8.63741H182.231L182.231 12.4114ZM187.365 9.75115C187.365 9.04416 186.866 8.63736 185.995 8.63736H184.873V12.4114H185.629V10.8946H185.728L186.773 12.4114H187.703L186.482 10.8217C187.052 10.7081 187.365 10.3287 187.365 9.75115ZM185.849 10.3744H185.629V9.23084H185.861C186.333 9.23084 186.588 9.42381 186.588 9.79109C186.588 10.17 186.333 10.3744 185.849 10.3744Z" fill="#0B1015"/>
</g>
<rect x="199.021" y="0.879646" width="33.3692" height="19.8411" rx="3.15654" fill="white"/>
<rect x="199.021" y="0.879646" width="33.3692" height="19.8411" rx="3.15654" stroke="#DFE1ED" stroke-width="0.901869"/>
<path d="M210.36 7.7579C210.06 7.7739 209.692 7.9569 209.48 8.2139C209.289 8.4339 209.12 8.7939 209.164 9.1319C209.502 9.1619 209.839 8.9629 210.052 8.7139C210.257 8.4559 210.397 8.1109 210.36 7.7589V7.7579ZM212.567 8.1779V13.6709H213.419V11.7939H214.599C215.677 11.7939 216.434 11.0549 216.434 9.9819C216.434 8.9119 215.692 8.1769 214.626 8.1769L212.567 8.1779ZM213.419 8.8969H214.401C215.14 8.8969 215.562 9.2929 215.562 9.9859C215.562 10.6779 215.14 11.0779 214.398 11.0779H213.419V8.8969ZM210.265 9.1969C209.815 9.2069 209.435 9.4769 209.215 9.4769C208.98 9.4769 208.622 9.2129 208.234 9.2199C207.982 9.22659 207.736 9.29903 207.52 9.43004C207.304 9.56105 207.126 9.74611 207.004 9.9669C206.477 10.8749 206.865 12.2219 207.378 12.9619C207.627 13.3279 207.927 13.7309 208.322 13.7159C208.695 13.7019 208.842 13.4739 209.295 13.4739C209.749 13.4739 209.881 13.7159 210.275 13.7089C210.685 13.7019 210.942 13.3429 211.19 12.9759C211.476 12.5589 211.593 12.1559 211.6 12.1349C211.593 12.1269 210.81 11.8269 210.803 10.9259C210.795 10.1719 211.418 9.8129 211.447 9.7909C211.095 9.2709 210.547 9.2129 210.357 9.1979L210.265 9.1969ZM218.469 9.5939C217.479 9.5939 216.863 10.1269 216.817 10.8499H217.594C217.666 10.4919 217.963 10.2639 218.439 10.2639C218.941 10.2639 219.242 10.5299 219.242 10.9749V11.2839L218.145 11.3479C217.194 11.4019 216.657 11.8319 216.657 12.5319C216.657 13.2519 217.205 13.7389 217.989 13.7389C218.515 13.7389 219.021 13.4579 219.253 13.0119H219.272V13.6709H220.06V10.9109C220.06 10.1079 219.44 9.5939 218.469 9.5939ZM220.409 9.6659L221.855 13.6749C221.855 13.6779 221.782 13.9149 221.782 13.9219C221.657 14.3319 221.452 14.4929 221.071 14.4929C221.002 14.4929 220.865 14.4929 220.804 14.4779V15.1439C220.864 15.1549 221.071 15.1629 221.139 15.1629C221.969 15.1629 222.365 14.8509 222.707 13.8799L224.207 9.6659H223.339L222.327 12.9249H222.312L221.299 9.6649L220.409 9.6659ZM219.242 11.8549V12.1709C219.242 12.6919 218.792 13.0879 218.218 13.0879C217.776 13.0879 217.487 12.8599 217.487 12.5089C217.487 12.1669 217.765 11.9489 218.256 11.9159L219.242 11.8549Z" fill="black"/>
<defs>
<linearGradient id="paint0_linear_802_13261" x1="254.296" y1="44.1823" x2="525.441" y2="338.144" gradientUnits="userSpaceOnUse">
<stop stop-color="#F34F26"/>
<stop offset="1" stop-color="#F69E35"/>
</linearGradient>
<clipPath id="clip0_802_13261">
<rect width="18.4203" height="14.3189" fill="white" transform="translate(6.47266 4.94165)"/>
</clipPath>
<clipPath id="clip1_802_13261">
<rect width="7.64498" height="9.01869" fill="white" transform="translate(52.4668 5.84351)"/>
</clipPath>
<clipPath id="clip2_802_13261">
<rect width="24.303" height="10.8224" fill="white" transform="translate(84.0586 4.94165)"/>
</clipPath>
<clipPath id="clip3_802_13261">
<rect width="13.528" height="13.528" fill="white" transform="translate(130.028 4.03979)"/>
</clipPath>
<clipPath id="clip4_802_13261">
<rect width="24.3505" height="4.09012" fill="white" transform="translate(163.396 8.54907)"/>
</clipPath>
</defs>
</svg>
