<svg width="24" height="24" viewBox="0 0 24 24" fill="none" xmlns="http://www.w3.org/2000/svg">
<path d="M6.28223 8.57614V7.7197C6.28223 4.4087 8.96631 1.72461 12.2773 1.72461C15.5883 1.72461 18.2724 4.4087 18.2724 7.7197V8.57614" stroke="black" stroke-width="1.5" stroke-linecap="round" stroke-linejoin="round"/>
<path d="M18.272 15.4272V8.57568H20.8413C21.7873 8.57568 22.5542 9.34258 22.5542 10.2886V13.7143C22.5542 14.6603 21.7873 15.4272 20.8413 15.4272H18.272Z" stroke="black" stroke-width="1.5" stroke-linecap="round" stroke-linejoin="round"/>
<path d="M18.2715 15.4282V17.1411C18.2715 18.7373 17.1797 20.0787 15.7021 20.459" stroke="black" stroke-width="1.5" stroke-linecap="round" stroke-linejoin="round"/>
<path d="M13.9907 22.2798H10.5649C9.61894 22.2798 8.85205 21.5129 8.85205 20.5669C8.85205 19.6209 9.61894 18.854 10.5649 18.854H13.9907C14.9367 18.854 15.7036 19.6209 15.7036 20.5669C15.7036 21.5129 14.9367 22.2798 13.9907 22.2798Z" stroke="black" stroke-width="1.5" stroke-linecap="round" stroke-linejoin="round"/>
<path d="M2 13.7143V10.2886C2 9.34258 2.76689 8.57568 3.71288 8.57568H6.28221V15.4272H3.71288C2.76689 15.4272 2 14.6603 2 13.7143Z" stroke="black" stroke-width="1.5" stroke-linecap="round" stroke-linejoin="round"/>
</svg>
