<svg width="18" height="19" viewBox="0 0 18 19" fill="none" xmlns="http://www.w3.org/2000/svg">
<path d="M16.6313 4.48818C16.2563 3.99018 15.654 3.68045 14.8402 3.5657L6.91946 2.45571C6.10571 2.34096 5.44502 2.47221 4.94852 2.84646C4.45052 3.22146 4.14003 3.8237 4.02603 4.63595L3.91571 5.41305H3.50024C1.84799 5.41305 0.9375 6.32279 0.9375 7.97579V14.4768C0.9375 16.1298 1.84799 17.0395 3.50024 17.0395H11.5012C12.933 17.0395 13.8053 16.3539 14.0138 15.0969C15.183 15.0024 15.9277 14.2434 16.122 12.8942L17.0212 6.45931C17.1375 5.64856 17.0055 4.98543 16.6313 4.48818ZM3.50024 6.53805H11.5012C12.5227 6.53805 12.9398 6.95429 12.9398 7.97579V11.7859L10.3725 9.21853C9.89097 8.73778 9.10947 8.73853 8.63022 9.21853L5.50049 12.3484L5.03851 11.8855C4.55701 11.404 3.77551 11.4055 3.29626 11.8855L2.0625 13.1192V7.97579C2.0625 6.95429 2.47949 6.53805 3.50024 6.53805ZM11.5012 15.9145H3.50024C2.55824 15.9145 2.13524 15.5537 2.07449 14.6972L4.09122 12.6805C4.13172 12.6408 4.20074 12.64 4.24274 12.6805L4.86978 13.3075C5.21778 13.6562 5.78552 13.6547 6.13202 13.3075L9.426 10.0136C9.468 9.97307 9.53702 9.97382 9.57752 10.0136L12.9398 13.3758V14.4768C12.9398 15.4983 12.5227 15.9145 11.5012 15.9145ZM15.9075 6.30257L15.0082 12.7367C14.8995 13.4912 14.6145 13.8714 14.0648 13.9652V7.97579C14.0648 6.32279 13.1542 5.41305 11.5012 5.41305H5.05124L5.13904 4.79433C5.21104 4.28733 5.37375 3.93396 5.625 3.74496C5.874 3.55671 6.25724 3.49679 6.76199 3.56954L14.6835 4.67953C15.1905 4.75153 15.543 4.91426 15.732 5.16476C15.921 5.41451 15.9795 5.79707 15.9075 6.30257ZM4.13773 9.35201C4.13773 8.93801 4.46999 8.60201 4.88324 8.60201H4.88928C5.30253 8.60201 5.63773 8.93801 5.63773 9.35201C5.63773 9.76601 5.30253 10.102 4.88928 10.102C4.47678 10.102 4.13773 9.76601 4.13773 9.35201Z" fill="black"/>
</svg>
