<svg width="54" height="54" viewBox="0 0 54 54" fill="none" xmlns="http://www.w3.org/2000/svg">
<path d="M15.3759 10.0998C15.1731 9.9796 14.9422 9.9152 14.7065 9.91314C14.4708 9.91108 14.2387 9.97144 14.0339 10.0881C13.8291 10.2047 13.6588 10.3735 13.5403 10.5773C13.4218 10.7811 13.3594 11.0126 13.3594 11.2483V42.1723C13.3594 42.408 13.4218 42.6395 13.5403 42.8433C13.6588 43.0471 13.8291 43.2159 14.0339 43.3325C14.2387 43.4492 14.4708 43.5095 14.7065 43.5075C14.9422 43.5054 15.1731 43.441 15.3759 43.3208L41.4679 27.8588C41.6672 27.7405 41.8322 27.5725 41.9469 27.3711C42.0616 27.1697 42.1219 26.942 42.1219 26.7103C42.1219 26.4786 42.0616 26.2509 41.9469 26.0495C41.8322 25.8481 41.6672 25.6801 41.4679 25.5618L15.3759 10.0998Z" fill="white" stroke="white" stroke-width="1.82107" stroke-linecap="round" stroke-linejoin="round"/>
</svg>
