<svg width="16" height="16" viewBox="0 0 16 16" fill="none" xmlns="http://www.w3.org/2000/svg">
<g clip-path="url(#clip0_895_28770)">
<path fill-rule="evenodd" clip-rule="evenodd" d="M11.6639 0.379483L11.6449 0.409283C11.5297 0.58936 11.3607 0.852147 11.1463 1.18124C10.7174 1.8396 10.1071 2.76249 9.38319 3.81896L9.33889 3.88356C8.93979 3.85316 8.49006 3.83293 7.99976 3.83293C7.50949 3.83293 7.05976 3.85316 6.66066 3.88356L6.61636 3.81896C5.89243 2.76249 5.28223 1.8396 4.85326 1.18124C4.63883 0.852147 4.46983 0.58936 4.35469 0.409283L4.33566 0.379476C5.02139 0.283114 6.21986 0.16626 7.99976 0.16626C9.77969 0.16626 10.9782 0.283118 11.6639 0.379483ZM1.64616 5.52799C1.44221 5.19453 1.41031 4.78726 1.55345 4.42353C2.44958 2.14641 3.33316 0.66626 3.33316 0.66626C3.33316 0.66626 4.65349 2.76524 6.47236 5.36826C5.09619 5.74066 3.92183 6.60403 3.14881 7.75879C2.47072 6.83853 1.95219 6.02833 1.64616 5.52799ZM12.8508 7.75883C13.5289 6.83856 14.0475 6.02833 14.3535 5.52799C14.5575 5.19453 14.5894 4.78726 14.4462 4.42353C13.5501 2.14641 12.6665 0.66626 12.6665 0.66626C12.6665 0.66626 11.3462 2.76525 9.52729 5.36829C10.9035 5.74066 12.0778 6.60406 12.8508 7.75883ZM7.99979 6.16626C5.33043 6.16626 3.16646 8.33023 3.16646 10.9996C3.16646 13.669 5.33043 15.8329 7.99979 15.8329C10.6692 15.8329 12.8331 13.669 12.8331 10.9996C12.8331 8.33023 10.6692 6.16626 7.99979 6.16626ZM8.36966 8.37936L8.98246 9.56083L10.2798 9.81629C10.5972 9.87876 10.7254 10.2632 10.5092 10.5037L9.58979 11.5262L9.75879 12.8957C9.79953 13.2255 9.45656 13.468 9.15919 13.3195L7.99979 12.7408L6.84039 13.3195C6.54303 13.468 6.20009 13.2255 6.24079 12.8957L6.40979 11.5262L5.49043 10.5037C5.27419 10.2632 5.40243 9.87876 5.71976 9.81629L7.01713 9.56083L7.62993 8.37936C7.78539 8.07959 8.21419 8.07959 8.36966 8.37936Z" fill="#1C67F3"/>
</g>
<defs>
<clipPath id="clip0_895_28770">
<rect width="16" height="16" fill="white" transform="translate(0 -0.000488281)"/>
</clipPath>
</defs>
</svg>
