<svg width="345" height="393" viewBox="0 0 345 393" fill="none" xmlns="http://www.w3.org/2000/svg">
<g filter="url(#filter0_d_991_860)">
<rect x="72" y="69" width="200.898" height="248.31" rx="11.9677" fill="white"/>
<rect x="72.5" y="69.5" width="199.898" height="247.31" rx="11.4677" stroke="black" stroke-opacity="0.11"/>
<path d="M109.066 149.092H161.031V97.126H109.066V149.092ZM122.057 110.117H148.04V136.1H122.057V110.117ZM109.066 214.049H161.031V162.083H109.066V214.049ZM122.057 175.075H148.04V201.057H122.057V175.075ZM174.023 97.126V149.092H225.988V97.126H174.023ZM212.997 136.1H187.014V110.117H212.997V136.1ZM212.997 201.057H225.988V214.049H212.997V201.057ZM174.023 162.083H187.014V175.075H174.023V162.083ZM187.014 175.075H200.006V188.066H187.014V175.075ZM174.023 188.066H187.014V201.057H174.023V188.066ZM187.014 201.057H200.006V214.049H187.014V201.057ZM200.006 188.066H212.997V201.057H200.006V188.066ZM200.006 162.083H212.997V175.075H200.006V162.083ZM212.997 175.075H225.988V188.066H212.997V175.075Z" fill="black"/>
<line x1="97.7149" y1="239.764" x2="257.63" y2="239.764" stroke="#DADADA" stroke-width="0.803593"/>
<path d="M118.476 280.993C118.491 279.902 118.802 278.832 119.38 277.882C119.958 276.933 120.784 276.136 121.782 275.564C121.148 274.72 120.312 274.026 119.34 273.536C118.368 273.047 117.287 272.775 116.182 272.743C113.826 272.512 111.542 274.057 110.342 274.057C109.118 274.057 107.269 272.766 105.279 272.804C103.991 272.843 102.737 273.191 101.637 273.817C100.537 274.442 99.6297 275.322 99.0033 276.371C96.2899 280.749 98.3138 287.183 100.913 290.722C102.214 292.455 103.733 294.391 105.722 294.322C107.668 294.247 108.395 293.166 110.744 293.166C113.071 293.166 113.753 294.322 115.782 294.279C117.871 294.247 119.186 292.538 120.441 290.789C121.376 289.554 122.095 288.189 122.572 286.745C121.358 286.267 120.323 285.466 119.595 284.444C118.866 283.421 118.477 282.221 118.476 280.993V280.993Z" fill="black"/>
<path d="M114.643 270.416C115.781 269.142 116.342 267.505 116.206 265.852C114.467 266.022 112.86 266.797 111.706 268.022C111.142 268.62 110.71 269.316 110.434 270.07C110.159 270.825 110.046 271.622 110.102 272.417C110.972 272.425 111.832 272.249 112.619 271.903C113.406 271.556 114.098 271.048 114.643 270.416Z" fill="black"/>
<path d="M143.076 289.934H136.434L134.84 294.323H132.027L138.317 278.086H141.24L147.53 294.323H144.669L143.076 289.934ZM137.122 287.909H142.386L139.791 280.787H139.719L137.122 287.909Z" fill="black"/>
<path d="M161.114 288.405C161.114 292.084 159.002 294.447 155.813 294.447C155.006 294.487 154.203 294.313 153.496 293.947C152.789 293.581 152.207 293.036 151.817 292.376H151.756V298.24H149.149V282.485H151.673V284.454H151.721C152.129 283.797 152.721 283.256 153.433 282.887C154.145 282.519 154.951 282.337 155.765 282.362C158.989 282.362 161.114 284.737 161.114 288.405ZM158.434 288.405C158.434 286.008 157.105 284.433 155.078 284.433C153.085 284.433 151.745 286.042 151.745 288.405C151.745 290.79 153.085 292.388 155.078 292.388C157.105 292.388 158.434 290.824 158.434 288.405Z" fill="black"/>
<path d="M175.096 288.405C175.096 292.084 172.983 294.447 169.794 294.447C168.987 294.487 168.184 294.313 167.477 293.947C166.77 293.581 166.188 293.036 165.798 292.376H165.737V298.24H163.13V282.485H165.654V284.454H165.702C166.11 283.797 166.702 283.256 167.414 282.887C168.126 282.519 168.932 282.337 169.746 282.362C172.97 282.362 175.096 284.737 175.096 288.405ZM172.416 288.405C172.416 286.008 171.086 284.433 169.059 284.433C167.066 284.433 165.726 286.042 165.726 288.405C165.726 290.79 167.066 292.388 169.059 292.388C171.086 292.388 172.416 290.824 172.416 288.405H172.416Z" fill="black"/>
<path d="M184.336 289.799C184.529 291.409 186.208 292.466 188.501 292.466C190.699 292.466 192.28 291.409 192.28 289.957C192.28 288.697 191.327 287.942 189.069 287.425L186.811 286.918C183.611 286.198 182.126 284.803 182.126 282.541C182.126 279.739 184.746 277.815 188.466 277.815C192.147 277.815 194.671 279.739 194.756 282.541H192.124C191.967 280.92 190.529 279.942 188.429 279.942C186.328 279.942 184.891 280.932 184.891 282.372C184.891 283.52 185.809 284.196 188.055 284.713L189.974 285.152C193.549 285.94 195.034 287.278 195.034 289.653C195.034 292.691 192.438 294.593 188.308 294.593C184.444 294.593 181.836 292.736 181.667 289.799L184.336 289.799Z" fill="black"/>
<path d="M200.661 279.683V282.485H203.077V284.409H200.661V290.935C200.661 291.949 201.145 292.422 202.207 292.422C202.493 292.417 202.78 292.398 203.064 292.365V294.278C202.587 294.361 202.102 294.399 201.616 294.39C199.044 294.39 198.041 293.49 198.041 291.194V284.409H196.194V282.485H198.041V279.683H200.661Z" fill="black"/>
<path d="M204.476 288.404C204.476 284.679 206.83 282.339 210.501 282.339C214.183 282.339 216.526 284.679 216.526 288.404C216.526 292.139 214.196 294.469 210.501 294.469C206.807 294.469 204.476 292.139 204.476 288.404ZM213.87 288.404C213.87 285.849 212.613 284.341 210.501 284.341C208.388 284.341 207.133 285.861 207.133 288.404C207.133 290.969 208.388 292.466 210.501 292.466C212.613 292.466 213.87 290.969 213.87 288.404H213.87Z" fill="black"/>
<path d="M218.677 282.485H221.163V284.5H221.224C221.392 283.871 221.788 283.315 222.344 282.925C222.9 282.536 223.584 282.337 224.279 282.361C224.58 282.36 224.879 282.391 225.172 282.452V284.725C224.793 284.617 224.397 284.567 224.001 284.578C223.622 284.564 223.245 284.626 222.894 284.761C222.543 284.895 222.228 285.099 221.97 285.358C221.712 285.616 221.517 285.924 221.399 286.26C221.28 286.595 221.241 286.951 221.284 287.302V294.323H218.677L218.677 282.485Z" fill="black"/>
<path d="M237.194 290.846C236.843 292.995 234.597 294.469 231.724 294.469C228.029 294.469 225.735 292.162 225.735 288.46C225.735 284.747 228.041 282.339 231.614 282.339C235.129 282.339 237.339 284.589 237.339 288.178V289.011H228.367V289.158C228.326 289.593 228.384 290.032 228.539 290.445C228.694 290.858 228.941 291.236 229.264 291.553C229.587 291.87 229.979 292.119 230.413 292.285C230.848 292.45 231.315 292.527 231.784 292.511C232.401 292.564 233.019 292.431 233.547 292.131C234.076 291.831 234.486 291.38 234.718 290.846L237.194 290.846ZM228.38 287.312H234.73C234.754 286.921 234.69 286.529 234.543 286.161C234.396 285.793 234.169 285.458 233.877 285.176C233.584 284.894 233.232 284.671 232.843 284.522C232.454 284.372 232.035 284.299 231.614 284.308C231.19 284.305 230.769 284.382 230.376 284.532C229.983 284.682 229.626 284.903 229.325 285.182C229.025 285.461 228.786 285.793 228.624 286.159C228.461 286.525 228.378 286.917 228.38 287.312V287.312Z" fill="black"/>
<path d="M136.796 265.865C137.342 265.829 137.891 265.906 138.402 266.091C138.913 266.276 139.373 266.564 139.75 266.935C140.127 267.306 140.411 267.75 140.581 268.235C140.751 268.721 140.804 269.235 140.735 269.742C140.735 272.234 139.289 273.667 136.796 273.667H133.772V265.865H136.796ZM135.072 272.564H136.651C137.041 272.586 137.432 272.526 137.795 272.389C138.158 272.252 138.483 272.042 138.747 271.773C139.012 271.504 139.209 271.184 139.324 270.835C139.438 270.487 139.468 270.119 139.411 269.758C139.464 269.399 139.431 269.033 139.315 268.687C139.198 268.341 139.001 268.023 138.737 267.756C138.473 267.49 138.149 267.281 137.788 267.144C137.428 267.008 137.039 266.948 136.651 266.968H135.072V272.564Z" fill="black"/>
<path d="M142.204 270.72C142.164 270.333 142.212 269.943 142.343 269.574C142.475 269.205 142.688 268.866 142.969 268.578C143.249 268.291 143.591 268.061 143.972 267.904C144.354 267.746 144.766 267.665 145.183 267.665C145.6 267.665 146.013 267.746 146.394 267.904C146.776 268.061 147.118 268.291 147.398 268.578C147.679 268.866 147.892 269.205 148.023 269.574C148.155 269.943 148.202 270.333 148.163 270.72C148.203 271.107 148.156 271.498 148.025 271.868C147.894 272.237 147.681 272.577 147.4 272.865C147.12 273.153 146.778 273.383 146.396 273.541C146.014 273.699 145.601 273.78 145.183 273.78C144.766 273.78 144.353 273.699 143.971 273.541C143.589 273.383 143.247 273.153 142.966 272.865C142.686 272.577 142.473 272.237 142.342 271.868C142.21 271.498 142.164 271.107 142.204 270.72V270.72ZM146.88 270.72C146.88 269.444 146.265 268.697 145.185 268.697C144.102 268.697 143.492 269.444 143.492 270.72C143.492 272.006 144.102 272.747 145.185 272.747C146.265 272.747 146.88 272.001 146.88 270.72H146.88Z" fill="black"/>
<path d="M156.083 273.667H154.79L153.484 269.33H153.385L152.085 273.667H150.804L149.063 267.779H150.327L151.459 272.272H151.552L152.851 267.779H154.047L155.346 272.272H155.445L156.571 267.779H157.818L156.083 273.667Z" fill="black"/>
<path d="M159.283 267.779H160.483V268.714H160.576C160.734 268.378 161.001 268.096 161.339 267.908C161.677 267.72 162.069 267.635 162.462 267.665C162.769 267.643 163.078 267.687 163.365 267.791C163.652 267.896 163.91 268.06 164.12 268.27C164.33 268.48 164.486 268.732 164.578 269.006C164.669 269.281 164.693 269.571 164.648 269.855V273.666H163.401V270.147C163.401 269.2 162.96 268.73 162.038 268.73C161.829 268.721 161.621 268.754 161.427 268.827C161.234 268.9 161.059 269.011 160.916 269.153C160.773 269.295 160.664 269.463 160.597 269.648C160.531 269.833 160.508 270.028 160.53 270.222V273.666H159.283L159.283 267.779Z" fill="black"/>
<path d="M166.634 265.48H167.881V273.667H166.634V265.48Z" fill="black"/>
<path d="M169.615 270.72C169.575 270.333 169.623 269.943 169.754 269.574C169.886 269.205 170.099 268.866 170.379 268.578C170.66 268.291 171.002 268.061 171.383 267.904C171.765 267.746 172.177 267.665 172.594 267.665C173.012 267.665 173.424 267.746 173.806 267.904C174.187 268.061 174.529 268.291 174.809 268.578C175.09 268.866 175.303 269.205 175.435 269.574C175.566 269.943 175.614 270.333 175.574 270.72C175.615 271.107 175.568 271.498 175.436 271.868C175.305 272.237 175.092 272.577 174.811 272.865C174.531 273.153 174.189 273.384 173.807 273.541C173.425 273.699 173.012 273.78 172.594 273.78C172.177 273.78 171.764 273.699 171.382 273.541C171 273.384 170.658 273.153 170.377 272.865C170.097 272.577 169.884 272.237 169.753 271.868C169.621 271.498 169.574 271.107 169.615 270.72V270.72ZM174.291 270.72C174.291 269.444 173.676 268.697 172.596 268.697C171.512 268.697 170.903 269.444 170.903 270.72C170.903 272.007 171.512 272.747 172.596 272.747C173.676 272.747 174.291 272.001 174.291 270.72H174.291Z" fill="black"/>
<path d="M176.887 272.001C176.887 270.942 177.733 270.331 179.236 270.244L180.948 270.152V269.644C180.948 269.022 180.507 268.671 179.654 268.671C178.958 268.671 178.476 268.909 178.338 269.325H177.131C177.258 268.314 178.279 267.665 179.712 267.665C181.296 267.665 182.189 268.4 182.189 269.644V273.666H180.989V272.839H180.89C180.69 273.136 180.409 273.378 180.075 273.54C179.742 273.703 179.368 273.78 178.993 273.763C178.727 273.789 178.459 273.763 178.206 273.686C177.952 273.609 177.718 273.484 177.52 273.318C177.322 273.152 177.163 272.949 177.054 272.722C176.945 272.495 176.888 272.25 176.887 272.001V272.001ZM180.948 271.498V271.006L179.405 271.098C178.535 271.152 178.14 271.428 178.14 271.947C178.14 272.477 178.634 272.785 179.312 272.785C179.511 272.804 179.711 272.785 179.902 272.73C180.093 272.675 180.27 272.585 180.423 272.465C180.575 272.345 180.7 272.197 180.791 272.031C180.881 271.865 180.934 271.684 180.948 271.498V271.498Z" fill="black"/>
<path d="M183.828 270.72C183.828 268.86 184.854 267.681 186.45 267.681C186.845 267.664 187.237 267.752 187.58 267.935C187.923 268.118 188.203 268.388 188.388 268.714H188.481V265.48H189.728V273.667H188.533V272.736H188.434C188.236 273.06 187.946 273.327 187.596 273.508C187.246 273.689 186.85 273.777 186.45 273.764C184.843 273.764 183.828 272.585 183.828 270.72ZM185.116 270.72C185.116 271.969 185.748 272.721 186.804 272.721C187.855 272.721 188.504 271.958 188.504 270.725C188.504 269.498 187.848 268.725 186.804 268.725C185.754 268.725 185.116 269.482 185.116 270.72H185.116Z" fill="black"/>
<path d="M194.886 270.72C194.846 270.333 194.894 269.943 195.025 269.574C195.157 269.205 195.37 268.866 195.65 268.578C195.931 268.291 196.273 268.061 196.654 267.904C197.036 267.746 197.448 267.665 197.865 267.665C198.282 267.665 198.695 267.746 199.076 267.904C199.458 268.061 199.8 268.291 200.08 268.578C200.361 268.866 200.574 269.205 200.705 269.574C200.837 269.943 200.884 270.333 200.845 270.72C200.885 271.107 200.838 271.498 200.707 271.868C200.576 272.237 200.363 272.577 200.082 272.865C199.802 273.153 199.459 273.383 199.078 273.541C198.696 273.699 198.283 273.78 197.865 273.78C197.448 273.78 197.035 273.699 196.653 273.541C196.271 273.383 195.929 273.153 195.648 272.865C195.368 272.577 195.155 272.237 195.024 271.868C194.892 271.498 194.845 271.107 194.886 270.72V270.72ZM199.562 270.72C199.562 269.444 198.947 268.697 197.867 268.697C196.784 268.697 196.174 269.444 196.174 270.72C196.174 272.006 196.784 272.747 197.867 272.747C198.947 272.747 199.562 272.001 199.562 270.72Z" fill="black"/>
<path d="M202.518 267.779H203.718V268.714H203.811C203.97 268.378 204.236 268.096 204.574 267.908C204.912 267.72 205.305 267.635 205.697 267.665C206.004 267.643 206.313 267.687 206.6 267.791C206.887 267.896 207.145 268.06 207.355 268.27C207.565 268.48 207.722 268.732 207.813 269.006C207.905 269.281 207.929 269.571 207.884 269.855V273.666H206.637V270.147C206.637 269.2 206.196 268.73 205.273 268.73C205.065 268.721 204.856 268.754 204.663 268.827C204.469 268.9 204.295 269.011 204.151 269.153C204.008 269.295 203.899 269.463 203.833 269.648C203.766 269.833 203.743 270.028 203.765 270.222V273.666H202.518V267.779Z" fill="black"/>
<path d="M214.929 266.313V267.806H216.298V268.784H214.929V271.812C214.929 272.429 215.202 272.699 215.822 272.699C215.981 272.698 216.14 272.689 216.298 272.672V273.64C216.074 273.677 215.847 273.697 215.619 273.699C214.233 273.699 213.681 273.245 213.681 272.109V268.784H212.678V267.806H213.681V266.313H214.929Z" fill="black"/>
<path d="M218.001 265.48H219.237V268.725H219.335C219.501 268.386 219.775 268.103 220.12 267.914C220.464 267.725 220.863 267.64 221.262 267.67C221.567 267.655 221.873 267.702 222.157 267.81C222.441 267.917 222.696 268.081 222.903 268.291C223.111 268.501 223.267 268.75 223.359 269.023C223.452 269.295 223.478 269.582 223.437 269.865V273.667H222.189V270.152C222.189 269.212 221.719 268.735 220.838 268.735C220.624 268.719 220.409 268.746 220.207 268.816C220.005 268.885 219.822 268.995 219.671 269.137C219.519 269.279 219.403 269.45 219.33 269.639C219.257 269.827 219.229 270.028 219.248 270.228V273.667H218.001L218.001 265.48Z" fill="black"/>
<path d="M230.707 272.077C230.538 272.615 230.17 273.08 229.67 273.392C229.17 273.703 228.568 273.841 227.969 273.78C227.553 273.79 227.139 273.716 226.757 273.562C226.375 273.409 226.033 273.179 225.755 272.89C225.478 272.601 225.271 272.259 225.149 271.888C225.028 271.517 224.994 271.126 225.051 270.741C224.996 270.356 225.03 269.963 225.151 269.591C225.272 269.219 225.478 268.875 225.754 268.584C226.03 268.292 226.371 268.059 226.752 267.901C227.133 267.742 227.546 267.662 227.964 267.665C229.722 267.665 230.782 268.784 230.782 270.633V271.039H226.321V271.104C226.302 271.32 226.331 271.537 226.407 271.742C226.483 271.947 226.604 272.135 226.762 272.294C226.92 272.453 227.113 272.579 227.327 272.665C227.54 272.75 227.771 272.793 228.004 272.791C228.302 272.824 228.604 272.774 228.872 272.647C229.139 272.52 229.36 272.321 229.507 272.077L230.707 272.077ZM226.321 270.179H229.512C229.528 269.982 229.499 269.783 229.428 269.597C229.356 269.41 229.243 269.239 229.097 269.096C228.951 268.952 228.773 268.839 228.577 268.763C228.381 268.687 228.17 268.65 227.957 268.654C227.741 268.652 227.527 268.689 227.328 268.765C227.128 268.841 226.946 268.953 226.794 269.095C226.641 269.237 226.521 269.407 226.44 269.593C226.359 269.779 226.318 269.978 226.321 270.179H226.321Z" fill="black"/>
</g>
<defs>
<filter id="filter0_d_991_860" x="0.194107" y="0.408479" width="344.51" height="391.922" filterUnits="userSpaceOnUse" color-interpolation-filters="sRGB">
<feFlood flood-opacity="0" result="BackgroundImageFix"/>
<feColorMatrix in="SourceAlpha" type="matrix" values="0 0 0 0 0 0 0 0 0 0 0 0 0 0 0 0 0 0 127 0" result="hardAlpha"/>
<feOffset dy="3.21437"/>
<feGaussianBlur stdDeviation="35.9029"/>
<feComposite in2="hardAlpha" operator="out"/>
<feColorMatrix type="matrix" values="0 0 0 0 0 0 0 0 0 0 0 0 0 0 0 0 0 0 0.1 0"/>
<feBlend mode="normal" in2="BackgroundImageFix" result="effect1_dropShadow_991_860"/>
<feBlend mode="normal" in="SourceGraphic" in2="effect1_dropShadow_991_860" result="shape"/>
</filter>
</defs>
</svg>
