<svg width="93" height="17" viewBox="0 0 93 17" fill="none" xmlns="http://www.w3.org/2000/svg">
<g clip-path="url(#clip0_802_13376)">
<path fill-rule="evenodd" clip-rule="evenodd" d="M1.82353 0.234863C0.816423 0.234863 0 1.05128 0 2.05839V14.8231C0 15.8302 0.816422 16.6466 1.82353 16.6466H14.5882C15.5954 16.6466 16.4118 15.8302 16.4118 14.8231V2.05839C16.4118 1.05129 15.5954 0.234863 14.5882 0.234863H1.82353ZM9.53888 6.97881L8.20591 2.84559L6.87293 6.97881L2.53008 6.96932L6.04909 9.51426L4.69806 13.6416L8.20591 11.0813L11.7138 13.6416L10.3628 9.51426L13.8817 6.96932L9.53888 6.97881Z" fill="#1C67F3"/>
<path fill-rule="evenodd" clip-rule="evenodd" d="M40.1175 0.234863C39.1103 0.234863 38.2939 1.05128 38.2939 2.05839V14.8231C38.2939 15.8302 39.1103 16.6466 40.1175 16.6466H52.8822C53.8893 16.6466 54.7057 15.8302 54.7057 14.8231V2.05839C54.7057 1.05129 53.8893 0.234863 52.8822 0.234863H40.1175ZM47.8328 6.97881L46.4998 2.84559L45.1668 6.97881L40.824 6.96932L44.343 9.51426L42.992 13.6416L46.4998 11.0813L50.0078 13.6416L48.6567 9.51426L52.1757 6.96932L47.8328 6.97881Z" fill="#1C67F3"/>
<path fill-rule="evenodd" clip-rule="evenodd" d="M20.97 0.234863C19.9629 0.234863 19.1465 1.05128 19.1465 2.05839V14.8231C19.1465 15.8302 19.9629 16.6466 20.97 16.6466H33.7347C34.7419 16.6466 35.5583 15.8302 35.5583 14.8231V2.05839C35.5583 1.05129 34.7419 0.234863 33.7347 0.234863H20.97ZM28.6854 6.97881L27.3524 2.84559L26.0194 6.97881L21.6765 6.96932L25.1956 9.51426L23.8445 13.6416L27.3524 11.0813L30.8603 13.6416L29.5092 9.51426L33.0282 6.96932L28.6854 6.97881Z" fill="#1C67F3"/>
<path fill-rule="evenodd" clip-rule="evenodd" d="M59.264 0.234863C58.2568 0.234863 57.4404 1.05128 57.4404 2.05839V14.8231C57.4404 15.8302 58.2568 16.6466 59.264 16.6466H72.0287C73.0358 16.6466 73.8522 15.8302 73.8522 14.8231V2.05839C73.8522 1.05129 73.0358 0.234863 72.0287 0.234863H59.264ZM66.9793 6.97881L65.6463 2.84559L64.3133 6.97881L59.9705 6.96932L63.4895 9.51426L62.1385 13.6416L65.6463 11.0813L69.1542 13.6416L67.8032 9.51426L71.3221 6.96932L66.9793 6.97881Z" fill="#1C67F3"/>
<path fill-rule="evenodd" clip-rule="evenodd" d="M78.4153 0.234863C77.4082 0.234863 76.5918 1.05128 76.5918 2.05839V14.8231C76.5918 15.8302 77.4082 16.6466 78.4153 16.6466H91.18C92.1875 16.6466 93.0036 15.8302 93.0036 14.8231V2.05839C93.0036 1.05129 92.1875 0.234863 91.18 0.234863H78.4153ZM86.1307 6.97881L84.7977 2.84559L83.4647 6.97881L79.1219 6.96932L82.6409 9.51426L81.2898 13.6416L84.7977 11.0813L88.3056 13.6416L86.9546 9.51426L90.4735 6.96932L86.1307 6.97881Z" fill="#1C67F3"/>
</g>
<defs>
<clipPath id="clip0_802_13376">
<rect width="93" height="16.4118" fill="white" transform="translate(0 0.238281)"/>
</clipPath>
</defs>
</svg>
