<svg width="88" height="18" viewBox="0 0 88 18" fill="none" xmlns="http://www.w3.org/2000/svg">
<path d="M8.80044 12.8682L5.7571 14.7015C5.62266 14.7871 5.4821 14.8238 5.33544 14.8115C5.18877 14.7993 5.06044 14.7504 4.95044 14.6649C4.84044 14.5793 4.75488 14.4725 4.69377 14.3444C4.63266 14.2163 4.62044 14.0726 4.6571 13.9132L5.46377 10.4482L2.76877 8.11987C2.64655 8.00987 2.57028 7.88447 2.53997 7.74367C2.50966 7.60287 2.5187 7.46549 2.5671 7.33153C2.6155 7.19758 2.68884 7.08758 2.7871 7.00153C2.88537 6.91549 3.01981 6.86049 3.19044 6.83653L6.7471 6.52487L8.1221 3.26153C8.18321 3.11487 8.27806 3.00487 8.40664 2.93153C8.53521 2.8582 8.66648 2.82153 8.80044 2.82153C8.93439 2.82153 9.06566 2.8582 9.19424 2.93153C9.32281 3.00487 9.41766 3.11487 9.47877 3.26153L10.8538 6.52487L14.4104 6.83653C14.5815 6.86098 14.716 6.91598 14.8138 7.00153C14.9115 7.08709 14.9849 7.19709 15.0338 7.33153C15.0827 7.46598 15.0919 7.6036 15.0616 7.7444C15.0313 7.8852 14.9548 8.01036 14.8321 8.11987L12.1371 10.4482L12.9438 13.9132C12.9804 14.0721 12.9682 14.2158 12.9071 14.3444C12.846 14.473 12.7604 14.5798 12.6504 14.6649C12.5404 14.7499 12.4121 14.7988 12.2654 14.8115C12.1188 14.8242 11.9782 14.7876 11.8438 14.7015L8.80044 12.8682Z" fill="black"/>
<path d="M25.4 12.8682L22.3567 14.7015C22.2223 14.7871 22.0817 14.8238 21.935 14.8115C21.7884 14.7993 21.66 14.7504 21.55 14.6649C21.44 14.5793 21.3545 14.4725 21.2934 14.3444C21.2323 14.2163 21.22 14.0726 21.2567 13.9132L22.0634 10.4482L19.3684 8.11987C19.2462 8.00987 19.1699 7.88447 19.1396 7.74367C19.1093 7.60287 19.1183 7.46549 19.1667 7.33153C19.2151 7.19758 19.2884 7.08758 19.3867 7.00153C19.485 6.91549 19.6194 6.86049 19.79 6.83653L23.3467 6.52487L24.7217 3.26153C24.7828 3.11487 24.8777 3.00487 25.0062 2.93153C25.1348 2.8582 25.2661 2.82153 25.4 2.82153C25.534 2.82153 25.6653 2.8582 25.7938 2.93153C25.9224 3.00487 26.0173 3.11487 26.0784 3.26153L27.4534 6.52487L31.01 6.83653C31.1812 6.86098 31.3156 6.91598 31.4134 7.00153C31.5112 7.08709 31.5845 7.19709 31.6334 7.33153C31.6823 7.46598 31.6916 7.6036 31.6612 7.7444C31.6309 7.8852 31.5544 8.01036 31.4317 8.11987L28.7367 10.4482L29.5434 13.9132C29.58 14.0721 29.5678 14.2158 29.5067 14.3444C29.4456 14.473 29.36 14.5798 29.25 14.6649C29.14 14.7499 29.0117 14.7988 28.865 14.8115C28.7184 14.8242 28.5778 14.7876 28.4434 14.7015L25.4 12.8682Z" fill="black"/>
<path d="M42.0006 12.8682L38.9573 14.7015C38.8229 14.7871 38.6823 14.8238 38.5356 14.8115C38.389 14.7993 38.2606 14.7504 38.1506 14.6649C38.0406 14.5793 37.9551 14.4725 37.894 14.3444C37.8329 14.2163 37.8206 14.0726 37.8573 13.9132L38.664 10.4482L35.969 8.11987C35.8467 8.00987 35.7705 7.88447 35.7402 7.74367C35.7099 7.60287 35.7189 7.46549 35.7673 7.33153C35.8157 7.19758 35.889 7.08758 35.9873 7.00153C36.0856 6.91549 36.22 6.86049 36.3906 6.83653L39.9473 6.52487L41.3223 3.26153C41.3834 3.11487 41.4783 3.00487 41.6068 2.93153C41.7354 2.8582 41.8667 2.82153 42.0006 2.82153C42.1346 2.82153 42.2659 2.8582 42.3944 2.93153C42.523 3.00487 42.6179 3.11487 42.679 3.26153L44.054 6.52487L47.6106 6.83653C47.7817 6.86098 47.9162 6.91598 48.014 7.00153C48.1117 7.08709 48.1851 7.19709 48.234 7.33153C48.2829 7.46598 48.2921 7.6036 48.2618 7.7444C48.2315 7.8852 48.155 8.01036 48.0323 8.11987L45.3373 10.4482L46.144 13.9132C46.1806 14.0721 46.1684 14.2158 46.1073 14.3444C46.0462 14.473 45.9606 14.5798 45.8506 14.6649C45.7406 14.7499 45.6123 14.7988 45.4656 14.8115C45.319 14.8242 45.1784 14.7876 45.044 14.7015L42.0006 12.8682Z" fill="black"/>
<path d="M58.6002 12.8682L55.5569 14.7015C55.4225 14.7871 55.2819 14.8238 55.1352 14.8115C54.9886 14.7993 54.8602 14.7504 54.7502 14.6649C54.6402 14.5793 54.5547 14.4725 54.4936 14.3444C54.4325 14.2163 54.4202 14.0726 54.4569 13.9132L55.2636 10.4482L52.5686 8.11987C52.4464 8.00987 52.3701 7.88447 52.3398 7.74367C52.3095 7.60287 52.3185 7.46549 52.3669 7.33153C52.4153 7.19758 52.4886 7.08758 52.5869 7.00153C52.6852 6.91549 52.8196 6.86049 52.9902 6.83653L56.5469 6.52487L57.9219 3.26153C57.983 3.11487 58.0779 3.00487 58.2064 2.93153C58.335 2.8582 58.4663 2.82153 58.6002 2.82153C58.7342 2.82153 58.8655 2.8582 58.994 2.93153C59.1226 3.00487 59.2175 3.11487 59.2786 3.26153L60.6536 6.52487L64.2102 6.83653C64.3814 6.86098 64.5158 6.91598 64.6136 7.00153C64.7114 7.08709 64.7847 7.19709 64.8336 7.33153C64.8825 7.46598 64.8918 7.6036 64.8614 7.7444C64.8311 7.8852 64.7546 8.01036 64.6319 8.11987L61.9369 10.4482L62.7436 13.9132C62.7802 14.0721 62.768 14.2158 62.7069 14.3444C62.6458 14.473 62.5602 14.5798 62.4502 14.6649C62.3402 14.7499 62.2119 14.7988 62.0652 14.8115C61.9186 14.8242 61.778 14.7876 61.6436 14.7015L58.6002 12.8682Z" fill="black"/>
<path d="M75.2008 12.8682L72.1575 14.7015C72.023 14.7871 71.8825 14.8238 71.7358 14.8115C71.5892 14.7993 71.4608 14.7504 71.3508 14.6649C71.2408 14.5793 71.1553 14.4725 71.0942 14.3444C71.033 14.2163 71.0208 14.0726 71.0575 13.9132L71.8642 10.4482L69.1692 8.11987C69.0469 8.00987 68.9707 7.88447 68.9404 7.74367C68.91 7.60287 68.9191 7.46549 68.9675 7.33153C69.0159 7.19758 69.0892 7.08758 69.1875 7.00153C69.2858 6.91549 69.4202 6.86049 69.5908 6.83653L73.1475 6.52487L74.5225 3.26153C74.5836 3.11487 74.6784 3.00487 74.807 2.93153C74.9356 2.8582 75.0669 2.82153 75.2008 2.82153C75.3348 2.82153 75.466 2.8582 75.5946 2.93153C75.7232 3.00487 75.818 3.11487 75.8792 3.26153L77.2542 6.52487L80.8108 6.83653C80.9819 6.86098 81.1164 6.91598 81.2142 7.00153C81.3119 7.08709 81.3853 7.19709 81.4342 7.33153C81.483 7.46598 81.4923 7.6036 81.462 7.7444C81.4317 7.8852 81.3552 8.01036 81.2325 8.11987L78.5375 10.4482L79.3442 13.9132C79.3808 14.0721 79.3686 14.2158 79.3075 14.3444C79.2464 14.473 79.1608 14.5798 79.0508 14.6649C78.9408 14.7499 78.8125 14.7988 78.6658 14.8115C78.5192 14.8242 78.3786 14.7876 78.2442 14.7015L75.2008 12.8682Z" fill="black"/>
</svg>
