<svg width="24" height="24" viewBox="0 0 24 24" fill="none" xmlns="http://www.w3.org/2000/svg">
<path d="M19.1646 9.61182H4.83531C3.956 9.61182 3.24316 10.3247 3.24316 11.204V20.7568C3.24316 21.6362 3.956 22.349 4.83531 22.349H19.1646C20.0439 22.349 20.7567 21.6362 20.7567 20.7568V11.204C20.7567 10.3247 20.0439 9.61182 19.1646 9.61182Z" stroke="black" stroke-width="1.71" stroke-linecap="round" stroke-linejoin="round"/>
<path d="M17.5725 9.61159V7.22338C17.5725 5.74546 16.9855 4.32807 15.9403 3.28303C14.8953 2.23798 13.4779 1.65088 12 1.65088C10.5221 1.65088 9.10468 2.23798 8.05964 3.28303C7.01459 4.32807 6.42749 5.74546 6.42749 7.22338V9.61159" stroke="black" stroke-width="1.71" stroke-linecap="round" stroke-linejoin="round"/>
<path d="M11.9999 16.7762C12.4396 16.7762 12.796 16.4198 12.796 15.9802C12.796 15.5405 12.4396 15.1841 11.9999 15.1841C11.5603 15.1841 11.2039 15.5405 11.2039 15.9802C11.2039 16.4198 11.5603 16.7762 11.9999 16.7762Z" stroke="black" stroke-width="1.71" stroke-linecap="round" stroke-linejoin="round"/>
</svg>
