<svg width="20" height="20" viewBox="0 0 20 20" fill="none" xmlns="http://www.w3.org/2000/svg">
<path d="M9.56787 18.3974C9.50454 18.3974 9.44116 18.387 9.3802 18.3664C8.12224 17.9468 1.84912 15.5251 1.84912 9.00656V4.34528C1.84912 4.06265 2.04864 3.81794 2.32652 3.76332C6.18985 2.99065 7.55945 2.31148 9.294 1.45094C9.46104 1.36781 9.68263 1.3568 9.84967 1.43992C11.5605 2.30205 12.9118 2.98352 16.81 3.76332C17.0879 3.81873 17.2874 4.06265 17.2874 4.34528V9.00733C17.2874 15.5259 11.0143 17.9476 9.75632 18.3672C9.69457 18.387 9.6312 18.3974 9.56787 18.3974ZM3.03662 4.82982V9.00656C3.03662 14.4414 8.11754 16.6542 9.56787 17.1743C11.0182 16.6542 16.0991 14.4406 16.0991 9.00656V4.82982C12.5992 4.09753 11.1274 3.41023 9.57966 2.63361C7.93537 3.44665 6.50808 4.10466 3.03662 4.82982ZM9.20528 11.8899L12.3719 8.72322C12.6039 8.49126 12.6039 8.11519 12.3719 7.88323C12.14 7.65127 11.7639 7.65127 11.532 7.88323L8.7849 10.6303L7.62117 9.46656C7.38922 9.2346 7.01315 9.2346 6.78119 9.46656C6.54923 9.69852 6.54923 10.0746 6.78119 10.3065L8.36452 11.8899C8.48011 12.0055 8.63213 12.064 8.78413 12.064C8.93613 12.064 9.0897 12.0063 9.20528 11.8899Z" fill="#25314C"/>
</svg>
