<svg width="24" height="25" viewBox="0 0 24 25" fill="none" xmlns="http://www.w3.org/2000/svg">
<path d="M20.2724 6.71354C19.8509 6.73521 19.4308 6.81296 18.9733 6.95572C18.1476 7.21192 17.2873 7.63636 15.8708 8.48526C14.3396 9.40298 14.0902 9.54701 13.4966 9.86821C11.772 10.7987 10.8463 11.1466 9.74189 11.2818C9.64185 11.2945 9.26171 11.2983 8.22132 11.2996C6.90484 11.3009 6.56338 11.3085 5.94715 11.3455C4.13182 11.4538 2.78732 11.733 1.78562 12.2122C0.810597 12.6787 0.231717 13.3288 0.0583202 14.1547C-0.0310461 14.583 -0.0177078 15.0623 0.0983349 15.4944C0.297075 16.2362 0.815932 16.8391 1.5522 17.1819C1.96969 17.377 2.32716 17.4662 2.83668 17.5019C3.39822 17.5414 4.19184 17.4101 4.9868 17.1501C5.4483 16.9984 5.8071 16.8518 6.76746 16.4235C7.14893 16.254 7.53974 16.0819 7.63444 16.0412C9.02162 15.4548 10.138 15.1935 11.2491 15.1935C11.5972 15.1935 11.7973 15.2076 12.4095 15.2764C14.4316 15.502 15.496 15.5836 16.6444 15.5976C18.5825 15.6218 19.8563 15.3822 20.934 14.792C21.9931 14.2108 22.8801 13.2969 23.4336 12.2173C23.7337 11.6323 23.9044 11.0931 23.9831 10.4711C24.0085 10.2735 24.0045 9.72673 23.9765 9.53426C23.8137 8.42535 23.1882 7.5943 22.1384 7.09465C22.0171 7.0373 21.841 6.96209 21.7463 6.92895C21.2835 6.7658 20.7526 6.68805 20.2724 6.71354ZM19.5255 8.3425C19.8749 8.36034 20.3138 8.49035 20.6699 8.68409C21.2861 9.01677 21.6489 9.49602 21.7623 10.1206C21.7903 10.271 21.793 10.6521 21.769 10.8152C21.5356 12.383 20.011 13.9533 18.253 14.4351C17.7208 14.5805 17.166 14.6455 16.447 14.6455C15.7134 14.6455 15.1212 14.5996 12.7617 14.3599C11.816 14.2631 11.5079 14.244 11.1024 14.2542C10.4715 14.2707 9.90995 14.3523 9.33373 14.5104C8.76953 14.6659 8.31069 14.8456 7.35434 15.2828C6.78746 15.5415 6.55004 15.646 6.2606 15.7607C5.60703 16.0208 4.97213 16.1852 4.51329 16.212C3.27684 16.2846 2.22979 15.5899 1.99903 14.5448C1.96035 14.3714 1.94968 14.0668 1.97636 13.8998C2.06706 13.3415 2.43119 12.9209 3.0861 12.6188C3.78102 12.2976 4.70403 12.1268 6.14056 12.0567C6.54871 12.0363 7.75449 12.0363 8.72818 12.0567C9.54981 12.0733 9.84459 12.0682 10.186 12.0261C11.049 11.9203 12.0401 11.5864 13.1565 11.023C13.6633 10.7668 14.0008 10.5833 14.8904 10.0785C15.9482 9.47818 16.359 9.2564 16.8458 9.02442C17.6034 8.66115 18.173 8.46614 18.7452 8.37436C18.9119 8.3476 19.228 8.32465 19.3321 8.33103C19.3614 8.33358 19.4481 8.33867 19.5255 8.3425Z" fill="#2E2525"/>
</svg>
