<svg width="28" height="27" viewBox="0 0 28 27" fill="none" xmlns="http://www.w3.org/2000/svg">
<path d="M4.54562 9.18191L11.1061 2.62142C11.754 1.97352 12.8045 1.97352 13.4524 2.62142C13.8446 3.01366 14.0149 3.57598 13.9061 4.11992L13.6115 5.59298C13.5293 6.004 13.6579 6.42892 13.9543 6.72531C14.2236 6.99461 14.6007 7.12689 14.9792 7.08483L16.2874 6.93948C16.7895 6.88369 17.2898 7.05917 17.647 7.41639C17.8662 7.63556 18.0197 7.91161 18.0904 8.21342L19.7726 15.4021C19.921 16.0365 20.2439 16.6168 20.7044 17.0775L23.3639 19.7368C24.5362 20.9091 24.5362 22.8096 23.3639 23.9818C22.801 24.5448 22.0376 24.8609 21.2414 24.8609H18.1769C16.3226 24.8609 14.5442 24.1244 13.2331 22.8131L4.54562 14.1257C3.18043 12.7605 3.18043 10.5471 4.54562 9.18191Z" stroke="white" stroke-width="1.88235" stroke-linecap="round" stroke-linejoin="round"/>
<path d="M20.0834 24.8617L7.90008 12.6783C7.24454 12.0228 6.35548 11.6545 5.42842 11.6544L3.63477 11.6543" stroke="white" stroke-width="1.88235" stroke-linecap="round" stroke-linejoin="round"/>
</svg>
