<svg width="24" height="25" viewBox="0 0 24 25" fill="none" xmlns="http://www.w3.org/2000/svg">
<path d="M9.12891 21.2681H21.8812" stroke="black" stroke-width="1.5" stroke-linecap="round" stroke-linejoin="round"/>
<path d="M3.48947 10.1007C2.35359 9.12959 1.85501 8.5361 1.70709 7.11077C1.56689 5.75992 2.19338 4.36707 3.13527 3.65555C4.44512 2.6661 6.00051 3.59703 6.87027 4.90947C7.81282 6.33171 8.62784 10.4432 8.6902 12.2065C8.761 14.2085 8.43541 16.0273 7.59766 17.7675C7.02307 18.961 6.17407 20.368 5.04404 20.8445C4.01997 21.2764 2.90713 21.1154 2.70102 19.6542C2.44841 17.8634 3.14447 16.1186 3.90544 14.6386C4.91438 12.6763 6.18851 11.0516 7.95306 10.1007C14.7574 6.4335 10.7394 18.2417 12.9961 18.2417C15.2528 18.2417 15.3984 12.4408 16.9805 13.3681C18.5625 14.2954 15.5379 20.0544 21.1992 16.415" stroke="black" stroke-width="1.5" stroke-linecap="round" stroke-linejoin="round"/>
</svg>
