<svg width="119" height="25" viewBox="0 0 119 25" fill="none" xmlns="http://www.w3.org/2000/svg">
<path d="M12.2653 17.656L8.0238 20.2112C7.83642 20.3304 7.64053 20.3815 7.43612 20.3645C7.2317 20.3474 7.05284 20.2793 6.89953 20.1601C6.74623 20.0408 6.62699 19.8919 6.54181 19.7134C6.45664 19.5349 6.43961 19.3346 6.49071 19.1124L7.61498 14.2832L3.85891 11.0382C3.68857 10.8849 3.58227 10.7101 3.54003 10.5139C3.49778 10.3176 3.51039 10.1262 3.57784 9.93947C3.6453 9.75277 3.74751 9.59946 3.88446 9.47954C4.02142 9.35962 4.20879 9.28297 4.44659 9.24958L9.40358 8.81521L11.3199 4.26704C11.4051 4.06263 11.5373 3.90932 11.7165 3.80712C11.8957 3.70491 12.0786 3.65381 12.2653 3.65381C12.452 3.65381 12.635 3.70491 12.8142 3.80712C12.9934 3.90932 13.1256 4.06263 13.2107 4.26704L15.1271 8.81521L20.0841 9.24958C20.3226 9.28365 20.51 9.3603 20.6462 9.47954C20.7825 9.59878 20.8847 9.75209 20.9528 9.93947C21.021 10.1268 21.0339 10.3187 20.9917 10.5149C20.9494 10.7111 20.8428 10.8856 20.6718 11.0382L16.9157 14.2832L18.04 19.1124C18.0911 19.3339 18.074 19.5342 17.9889 19.7134C17.9037 19.8926 17.7845 20.0415 17.6312 20.1601C17.4778 20.2786 17.299 20.3468 17.0946 20.3645C16.8902 20.3822 16.6943 20.3311 16.5069 20.2112L12.2653 17.656Z" fill="#EFB10E"/>
<path d="M35.7907 17.656L31.5492 20.2112C31.3618 20.3304 31.1659 20.3815 30.9615 20.3645C30.7571 20.3474 30.5782 20.2793 30.4249 20.1601C30.2716 20.0408 30.1524 19.8919 30.0672 19.7134C29.982 19.5349 29.965 19.3346 30.0161 19.1124L31.1404 14.2832L27.3843 11.0382C27.214 10.8849 27.1077 10.7101 27.0654 10.5139C27.0232 10.3176 27.0358 10.1262 27.1032 9.93947C27.1707 9.75277 27.2729 9.59946 27.4099 9.47954C27.5468 9.35962 27.7342 9.28297 27.972 9.24958L32.929 8.81521L34.8453 4.26704C34.9305 4.06263 35.0627 3.90932 35.2419 3.80712C35.4211 3.70491 35.604 3.65381 35.7907 3.65381C35.9774 3.65381 36.1604 3.70491 36.3396 3.80712C36.5188 3.90932 36.651 4.06263 36.7361 4.26704L38.6525 8.81521L43.6095 9.24958C43.848 9.28365 44.0353 9.3603 44.1716 9.47954C44.3079 9.59878 44.4101 9.75209 44.4782 9.93947C44.5464 10.1268 44.5593 10.3187 44.5171 10.5149C44.4748 10.7111 44.3682 10.8856 44.1972 11.0382L40.4411 14.2832L41.5654 19.1124C41.6165 19.3339 41.5994 19.5342 41.5143 19.7134C41.4291 19.8926 41.3099 20.0415 41.1565 20.1601C41.0032 20.2786 40.8244 20.3468 40.62 20.3645C40.4156 20.3822 40.2197 20.3311 40.0323 20.2112L35.7907 17.656Z" fill="#EFB10E"/>
<path d="M59.3259 17.656L55.0843 20.2112C54.897 20.3304 54.7011 20.3815 54.4967 20.3645C54.2923 20.3474 54.1134 20.2793 53.9601 20.1601C53.8068 20.0408 53.6875 19.8919 53.6024 19.7134C53.5172 19.5349 53.5002 19.3346 53.5513 19.1124L54.6755 14.2832L50.9195 11.0382C50.7491 10.8849 50.6428 10.7101 50.6006 10.5139C50.5583 10.3176 50.5709 10.1262 50.6384 9.93947C50.7058 9.75277 50.8081 9.59946 50.945 9.47954C51.082 9.35962 51.2693 9.28297 51.5071 9.24958L56.4641 8.81521L58.3805 4.26704C58.4657 4.06263 58.5978 3.90932 58.777 3.80712C58.9562 3.70491 59.1392 3.65381 59.3259 3.65381C59.5126 3.65381 59.6955 3.70491 59.8747 3.80712C60.0539 3.90932 60.1861 4.06263 60.2713 4.26704L62.1877 8.81521L67.1446 9.24958C67.3831 9.28365 67.5705 9.3603 67.7068 9.47954C67.843 9.59878 67.9453 9.75209 68.0134 9.93947C68.0815 10.1268 68.0945 10.3187 68.0522 10.5149C68.01 10.7111 67.9033 10.8856 67.7323 11.0382L63.9763 14.2832L65.1005 19.1124C65.1516 19.3339 65.1346 19.5342 65.0494 19.7134C64.9642 19.8926 64.845 20.0415 64.6917 20.1601C64.5384 20.2786 64.3595 20.3468 64.1551 20.3645C63.9507 20.3822 63.7548 20.3311 63.5674 20.2112L59.3259 17.656Z" fill="#EFB10E"/>
<path d="M82.8493 17.656L78.6078 20.2112C78.4204 20.3304 78.2245 20.3815 78.0201 20.3645C77.8157 20.3474 77.6368 20.2793 77.4835 20.1601C77.3302 20.0408 77.211 19.8919 77.1258 19.7134C77.0406 19.5349 77.0236 19.3346 77.0747 19.1124L78.199 14.2832L74.4429 11.0382C74.2726 10.8849 74.1663 10.7101 74.124 10.5139C74.0818 10.3176 74.0944 10.1262 74.1618 9.93947C74.2293 9.75277 74.3315 9.59946 74.4684 9.47954C74.6054 9.35962 74.7928 9.28297 75.0306 9.24958L79.9876 8.81521L81.9039 4.26704C81.9891 4.06263 82.1213 3.90932 82.3005 3.80712C82.4797 3.70491 82.6626 3.65381 82.8493 3.65381C83.036 3.65381 83.219 3.70491 83.3982 3.80712C83.5774 3.90932 83.7096 4.06263 83.7947 4.26704L85.7111 8.81521L90.6681 9.24958C90.9066 9.28365 91.0939 9.3603 91.2302 9.47954C91.3665 9.59878 91.4687 9.75209 91.5368 9.93947C91.605 10.1268 91.6179 10.3187 91.5757 10.5149C91.5334 10.7111 91.4268 10.8856 91.2558 11.0382L87.4997 14.2832L88.624 19.1124C88.6751 19.3339 88.658 19.5342 88.5729 19.7134C88.4877 19.8926 88.3684 20.0415 88.2151 20.1601C88.0618 20.2786 87.883 20.3468 87.6786 20.3645C87.4741 20.3822 87.2782 20.3311 87.0909 20.2112L82.8493 17.656Z" fill="#EFB10E"/>
<path d="M106.383 17.656L102.141 20.2112C101.954 20.3304 101.758 20.3815 101.553 20.3645C101.349 20.3474 101.17 20.2793 101.017 20.1601C100.863 20.0408 100.744 19.8919 100.659 19.7134C100.574 19.5349 100.557 19.3346 100.608 19.1124L101.732 14.2832L97.9761 11.0382C97.8058 10.8849 97.6995 10.7101 97.6572 10.5139C97.615 10.3176 97.6276 10.1262 97.695 9.93947C97.7625 9.75277 97.8647 9.59946 98.0016 9.47954C98.1386 9.35962 98.326 9.28297 98.5638 9.24958L103.521 8.81521L105.437 4.26704C105.522 4.06263 105.654 3.90932 105.834 3.80712C106.013 3.70491 106.196 3.65381 106.383 3.65381C106.569 3.65381 106.752 3.70491 106.931 3.80712C107.111 3.90932 107.243 4.06263 107.328 4.26704L109.244 8.81521L114.201 9.24958C114.44 9.28365 114.627 9.3603 114.763 9.47954C114.9 9.59878 115.002 9.75209 115.07 9.93947C115.138 10.1268 115.151 10.3187 115.109 10.5149C115.067 10.7111 114.96 10.8856 114.789 11.0382L111.033 14.2832L112.157 19.1124C112.208 19.3339 112.191 19.5342 112.106 19.7134C112.021 19.8926 111.902 20.0415 111.748 20.1601C111.595 20.2786 111.416 20.3468 111.212 20.3645C111.007 20.3822 110.811 20.3311 110.624 20.2112L106.383 17.656Z" fill="#EFB10E"/>
</svg>
