<svg width="33" height="33" viewBox="0 0 33 33" fill="none" xmlns="http://www.w3.org/2000/svg">
<path d="M22.2767 8.5616C21.3596 7.51426 20.8541 6.16947 20.8542 4.77734H16.7077V21.4173C16.6763 22.318 16.2964 23.1714 15.6479 23.7973C14.9995 24.4232 14.1333 24.7727 13.232 24.7722C11.3265 24.7722 9.74301 23.2155 9.74301 21.2832C9.74301 18.975 11.9706 17.2439 14.2653 17.9552V13.7146C9.63565 13.0973 5.58301 16.6937 5.58301 21.2832C5.58301 25.7518 9.28675 28.9322 13.2186 28.9322C17.4323 28.9322 20.8542 25.5102 20.8542 21.2832V12.8424C22.5357 14.0499 24.5544 14.6978 26.6246 14.6942V10.5477C26.6246 10.5477 24.1017 10.6684 22.2767 8.5616Z" fill="black"/>
</svg>
