<svg width="45" height="46" viewBox="0 0 45 46" fill="none" xmlns="http://www.w3.org/2000/svg">
<path d="M12.8212 9.00825C12.6521 8.90801 12.4595 8.8543 12.263 8.85258C12.0664 8.85087 11.8729 8.9012 11.7021 8.99848C11.5313 9.09575 11.3893 9.2365 11.2905 9.40643C11.1917 9.57635 11.1397 9.7694 11.1396 9.96595V35.7534C11.1397 35.9499 11.1917 36.143 11.2905 36.3129C11.3893 36.4828 11.5313 36.6236 11.7021 36.7209C11.8729 36.8181 12.0664 36.8685 12.263 36.8668C12.4595 36.865 12.6521 36.8113 12.8212 36.7111L34.5792 23.8174C34.7454 23.7188 34.8831 23.5786 34.9787 23.4107C35.0743 23.2428 35.1246 23.0529 35.1246 22.8597C35.1246 22.6664 35.0743 22.4765 34.9787 22.3086C34.8831 22.1407 34.7454 22.0006 34.5792 21.902L12.8212 9.00825Z" fill="white" stroke="white" stroke-width="1.51858" stroke-linecap="round" stroke-linejoin="round"/>
</svg>
