<svg width="33" height="33" viewBox="0 0 33 33" fill="none" xmlns="http://www.w3.org/2000/svg">
<path d="M16.1029 5.36914C17.2503 5.36914 18.4272 5.39866 19.5678 5.44697L20.9151 5.51139L22.2047 5.58788L23.4125 5.66973L24.5155 5.75562C25.7128 5.84672 26.8395 6.35739 27.6972 7.19766C28.5549 8.03794 29.0886 9.15393 29.2043 10.3491L29.2579 10.9194L29.3586 12.1405C29.4525 13.406 29.5223 14.7855 29.5223 16.1046C29.5223 17.4237 29.4525 18.8033 29.3586 20.0687L29.2579 21.2899L29.2043 21.8602C29.0886 23.0555 28.5547 24.1717 27.6967 25.012C26.8387 25.8523 25.7117 26.3628 24.5142 26.4536L23.4138 26.5382L22.2061 26.6214L20.9151 26.6979L19.5678 26.7623C18.4135 26.8123 17.2583 26.8382 16.1029 26.8401C14.9476 26.8382 13.7924 26.8123 12.6381 26.7623L11.2908 26.6979L10.0012 26.6214L8.79343 26.5382L7.69035 26.4536C6.4931 26.3625 5.36639 25.8519 4.50868 25.0116C3.65098 24.1713 3.11729 23.0553 3.00163 21.8602L2.94796 21.2899L2.84731 20.0687C2.7451 18.7497 2.69049 17.4275 2.68359 16.1046C2.68359 14.7855 2.75337 13.406 2.84731 12.1405L2.94796 10.9194L3.00163 10.3491C3.11725 9.15414 3.65074 8.03832 4.50817 7.19807C5.36561 6.35782 6.492 5.84703 7.68901 5.75562L8.79074 5.66973L9.99848 5.58788L11.2894 5.51139L12.6367 5.44697C13.7915 5.39696 14.9471 5.37101 16.1029 5.36914ZM16.1029 8.05301C14.9959 8.05301 13.8565 8.08253 12.7481 8.12816L11.4357 8.19123L10.1756 8.26504L8.99203 8.34555L7.90775 8.4301C7.33769 8.47 6.80023 8.71073 6.39091 9.10949C5.98158 9.50826 5.72688 10.0392 5.67208 10.6081C5.51508 12.2305 5.36746 14.2501 5.36746 16.1046C5.36746 17.9592 5.51508 19.9788 5.67208 21.6012C5.78615 22.7714 6.71477 23.6812 7.90775 23.7792L8.99203 23.8624L10.1756 23.9429L11.4357 24.018L12.7481 24.0811C13.8565 24.1267 14.9959 24.1562 16.1029 24.1562C17.21 24.1562 18.3493 24.1267 19.4578 24.0811L20.7702 24.018L22.0303 23.9442L23.2139 23.8637L24.2981 23.7792C24.8682 23.7392 25.4057 23.4985 25.815 23.0998C26.2243 22.701 26.479 22.17 26.5338 21.6012C26.6908 19.9788 26.8384 17.9592 26.8384 16.1046C26.8384 14.2501 26.6908 12.2305 26.5338 10.6081C26.479 10.0392 26.2243 9.50826 25.815 9.10949C25.4057 8.71073 24.8682 8.47 24.2981 8.4301L23.2139 8.3469L22.0303 8.26638L20.7702 8.19123L19.4578 8.12816C18.3401 8.08019 17.2216 8.05513 16.1029 8.05301ZM13.4191 12.8504C13.419 12.7193 13.4509 12.5901 13.5122 12.4741C13.5734 12.3581 13.662 12.2588 13.7703 12.1849C13.8787 12.1109 14.0034 12.0646 14.1337 12.0498C14.2641 12.0351 14.396 12.0524 14.5181 12.1003L14.6268 12.154L20.2629 15.4068C20.3752 15.4716 20.4701 15.5625 20.5397 15.6718C20.6093 15.7811 20.6515 15.9055 20.6627 16.0346C20.6739 16.1637 20.6538 16.2936 20.604 16.4133C20.5543 16.5329 20.4764 16.6388 20.377 16.7219L20.2629 16.8024L14.6268 20.0566C14.5132 20.1224 14.3853 20.1594 14.2542 20.1644C14.123 20.1695 13.9926 20.1423 13.8743 20.0854C13.7561 20.0286 13.6535 19.9436 13.5755 19.838C13.4976 19.7324 13.4466 19.6094 13.4271 19.4796L13.4191 19.3588V12.8504Z" fill="black"/>
</svg>
